<svg width="1080" height="1080" viewBox="0 0 1080 1080" fill="none" xmlns="http://www.w3.org/2000/svg">
<path fill-rule="evenodd" clip-rule="evenodd" d="M502 1077.68C453.268 1074.3 406.318 1064.46 362 1049V561H502V1077.68Z" fill="#EF4444"/>
<path fill-rule="evenodd" clip-rule="evenodd" d="M717 29.6768V1050.32C672.673 1065.7 625.723 1075.46 577 1078.75L577 1.2478C625.723 4.54479 672.673 14.3045 717 29.6768Z" fill="#EF4444"/>
<path fill-rule="evenodd" clip-rule="evenodd" d="M717 1050.32C672.673 1065.7 625.723 1075.46 577 1078.75V916.212C627.189 911.337 674.503 896.646 717 874.084V1050.32ZM792 1017.72C963.281 927.177 1080 747.219 1080 540C1080 254.202 857.976 20.261 577 1.2478V163.788C768.399 182.382 918 343.72 918 540C918 651.951 869.332 752.535 792 821.75V1017.72ZM0 540C0 825.459 221.497 1059.18 502 1078.68V916.114C311.08 897.056 162 735.938 162 540C162 344.062 311.08 182.944 502 163.886V1.3164C221.497 20.8163 0 254.541 0 540Z" fill="#EF4444"/>
<rect x="577" y="600" width="140" height="480" fill="#EF4444"/>
</svg>
