<?xml version="1.0" encoding="utf-8"?>
<!-- Generator: Adobe Illustrator 27.5.0, SVG Export Plug-In . SVG Version: 6.00 Build 0)  -->
<svg version="1.1" xmlns="http://www.w3.org/2000/svg" xmlns:xlink="http://www.w3.org/1999/xlink" x="0px" y="0px"
	 viewBox="0 0 750 500" style="enable-background:new 0 0 750 500;" xml:space="preserve">
<g id="Background_Complete">
	<g>
		<g>
			<g>
				<g>
					<polygon style="fill:#F5F5F5;" points="634.238,79.058 591.968,164.327 604.589,164.807 568.773,232.563 587.584,232.563 
						558.238,292.761 722.277,292.761 686.158,232.563 703.465,231.81 668.852,164.088 681.644,163.335 					"/>
				</g>
			</g>
			<g>
				<g>
					<g>
						<path style="fill:#E0E0E0;" d="M641.385,177.971c0.242,0.003-0.091,51.484-0.742,114.973
							c-0.653,63.511-1.697,122.14-1.698,121.898c-0.079-13.583,0.17-58.396,0.822-121.907
							C640.419,229.447,641.144,177.969,641.385,177.971z"/>
					</g>
				</g>
			</g>
		</g>
		<g>
			<g>
				<g>
					<path style="fill:#E0E0E0;" d="M661.489,199.892c0.192,0.148-4.022,5.934-9.411,12.923c-5.39,6.991-9.914,12.537-10.106,12.389
						c-0.192-0.148,4.021-5.933,9.412-12.924C656.773,205.291,661.298,199.744,661.489,199.892z"/>
				</g>
			</g>
		</g>
		<g>
			<g>
				<g>
					<path style="fill:#E0E0E0;" d="M640.987,223.391c-0.149,0.191-4.313-2.806-9.3-6.692c-4.989-3.888-8.911-7.194-8.762-7.385
						c0.149-0.191,4.312,2.805,9.301,6.693C637.212,219.895,641.135,223.201,640.987,223.391z"/>
				</g>
			</g>
		</g>
		<g>
			<g>
				<g>
					<path style="fill:#E0E0E0;" d="M639.864,265.218c-0.085,0.091-1.253-0.864-3.113-2.43c-1.859-1.567-4.422-3.733-7.294-6.074
						c-2.874-2.341-5.513-4.414-7.422-5.919c-1.909-1.506-3.08-2.456-3.008-2.558c0.068-0.096,1.366,0.677,3.376,2.059
						c2.01,1.382,4.721,3.387,7.608,5.738c2.885,2.352,5.395,4.603,7.154,6.293C638.925,264.017,639.944,265.133,639.864,265.218z"
						/>
				</g>
			</g>
		</g>
		<g>
			<g>
				<g>
					<path style="fill:#E0E0E0;" d="M661.515,239.363c0.189,0.152-4.429,6.212-10.313,13.534
						c-5.886,7.325-10.809,13.138-10.997,12.986c-0.189-0.151,4.428-6.21,10.314-13.535
						C656.402,245.026,661.326,239.212,661.515,239.363z"/>
				</g>
			</g>
		</g>
	</g>
	<g>
		<g>
			<g>
				<g>
					<g>
						<polygon style="fill:#F5F5F5;" points="154.11,79.058 115.598,156.746 127.097,157.183 94.465,218.916 111.604,218.916 
							84.867,273.762 234.322,273.762 201.415,218.916 217.183,218.23 185.646,156.528 197.301,155.843 						"/>
					</g>
				</g>
				<g>
					<g>
						<g>
							<path style="fill:#E0E0E0;" d="M160.622,169.177c0.221,0.002-0.082,46.907-0.676,104.752
								c-0.594,57.865-1.255,123.438-1.475,123.436c-0.221-0.002,0.082-65.579,0.677-123.444
								C159.741,216.076,160.402,169.175,160.622,169.177z"/>
						</g>
					</g>
				</g>
			</g>
			<g>
				<g>
					<g>
						<path style="fill:#E0E0E0;" d="M178.939,189.15c0.175,0.135-3.664,5.407-8.574,11.774c-4.911,6.37-9.033,11.423-9.207,11.288
							c-0.174-0.135,3.664-5.406,8.575-11.775C174.642,194.069,178.764,189.015,178.939,189.15z"/>
					</g>
				</g>
			</g>
			<g>
				<g>
					<g>
						<path style="fill:#E0E0E0;" d="M160.259,210.56c-0.136,0.174-3.93-2.556-8.473-6.097c-4.545-3.542-8.118-6.554-7.983-6.728
							c0.136-0.174,3.929,2.556,8.474,6.098C156.82,207.374,160.394,210.386,160.259,210.56z"/>
					</g>
				</g>
			</g>
			<g>
				<g>
					<g>
						<path style="fill:#E0E0E0;" d="M159.236,248.668c-0.077,0.083-1.141-0.787-2.836-2.214c-1.694-1.427-4.029-3.401-6.645-5.534
							c-2.618-2.133-5.023-4.021-6.763-5.393c-1.74-1.372-2.806-2.238-2.74-2.331c0.062-0.087,1.245,0.617,3.076,1.876
							c1.831,1.259,4.302,3.085,6.932,5.228c2.628,2.143,4.916,4.194,6.518,5.733C158.381,247.573,159.309,248.59,159.236,248.668z"
							/>
					</g>
				</g>
			</g>
			<g>
				<g>
					<g>
						<path style="fill:#E0E0E0;" d="M178.962,225.112c0.172,0.138-4.035,5.659-9.396,12.331c-5.363,6.673-9.848,11.97-10.02,11.831
							c-0.172-0.138,4.035-5.658,9.397-12.332C174.304,230.271,178.79,224.974,178.962,225.112z"/>
					</g>
				</g>
			</g>
		</g>
		<g>
			<g>
				<g>
					<g>
						<polygon style="fill:#EBEBEB;" points="87.802,183.012 58.14,242.848 66.996,243.184 41.863,290.732 55.064,290.732 
							34.47,332.975 142.967,332.975 124.237,290.732 136.382,290.204 112.092,242.68 121.069,242.152 						"/>
					</g>
				</g>
				<g>
					<g>
						<g>
							<path style="fill:#E0E0E0;" d="M92.818,252.422c0.17,0.002-0.063,36.129-0.521,80.681
								c-0.458,44.568-0.966,80.685-1.136,80.683c-0.17-0.002,0.064-36.121,0.521-80.689
								C92.14,288.545,92.648,252.421,92.818,252.422z"/>
						</g>
					</g>
				</g>
			</g>
			<g>
				<g>
					<g>
						<path style="fill:#E0E0E0;" d="M106.926,267.805c0.135,0.104-2.822,4.164-6.604,9.069c-3.783,4.906-6.957,8.798-7.092,8.694
							c-0.134-0.103,2.822-4.163,6.605-9.07C103.616,271.594,106.791,267.702,106.926,267.805z"/>
					</g>
				</g>
			</g>
			<g>
				<g>
					<g>
						<path style="fill:#E0E0E0;" d="M92.538,284.296c-0.104,0.134-3.027-1.969-6.526-4.696c-3.501-2.728-6.253-5.048-6.149-5.182
							c0.104-0.134,3.026,1.968,6.527,4.697C89.89,281.842,92.642,284.162,92.538,284.296z"/>
					</g>
				</g>
			</g>
			<g>
				<g>
					<g>
						<path style="fill:#E0E0E0;" d="M91.75,313.647c-0.06,0.064-0.879-0.606-2.184-1.705c-1.305-1.099-3.103-2.619-5.118-4.263
							c-2.017-1.643-3.869-3.097-5.209-4.153c-1.34-1.057-2.161-1.724-2.111-1.795c0.047-0.067,0.959,0.475,2.369,1.445
							c1.41,0.97,3.313,2.376,5.339,4.027c2.024,1.651,3.786,3.23,5.02,4.416C91.092,312.804,91.807,313.587,91.75,313.647z"/>
					</g>
				</g>
			</g>
			<g>
				<g>
					<g>
						<path style="fill:#E0E0E0;" d="M106.944,295.504c0.132,0.106-3.108,4.359-7.237,9.497c-4.13,5.14-7.585,9.219-7.717,9.113
							c-0.132-0.106,3.108-4.358,7.238-9.498C103.356,299.478,106.811,295.398,106.944,295.504z"/>
					</g>
				</g>
			</g>
		</g>
	</g>
	<g>
		<g>
			<path style="fill:#F5F5F5;" d="M602.686,415.124c-39.076,29.28-91.512,33.44-140.169,29.346
				c-48.657-4.095-97.015-15.295-145.758-12.4c-27.606,1.64-54.862,7.793-82.512,8.28c-27.65,0.487-56.989-5.585-76.982-24.692
				L602.686,415.124z"/>
		</g>
	</g>
	<g>
		<g>
			<g>
				<path style="fill:#EBEBEB;" d="M234.854,134.996h132.045c0,0-11.677-21.249-45.665-18.156
					c-32.461,2.954-34.112-10.454-50.617-12.104C254.11,103.085,240.355,115.74,234.854,134.996z"/>
			</g>
		</g>
	</g>
	<g>
		<g>
			<g>
				<path style="fill:#F5F5F5;" d="M352.44,171.342h71.998c0,0-6.367-11.586-24.899-9.9c-17.7,1.611-18.6-5.7-27.599-6.6
					C362.94,153.942,355.44,160.842,352.44,171.342z"/>
			</g>
		</g>
	</g>
	<g>
		<g>
			<g>
				<path style="fill:#FAFAFA;" d="M427.381,103.927h71.998c0,0-6.367-11.586-24.899-9.9c-17.7,1.611-18.6-5.7-27.599-6.6
					C437.881,86.527,430.381,93.427,427.381,103.927z"/>
			</g>
		</g>
	</g>
</g>
<g id="Background_Simple" style="display:none;">
	<g style="display:inline;">
		<path style="fill:#EBEBEB;" d="M613.636,196.594c-4.221-41.027-20.908-71.556-51.392-93.975
			c-29.902-21.992-76.113-30.877-121.302-6.751c-30.756,16.421-51.841,47.954-69.498,61.98
			c-19.337,15.361-40.567,21.079-65.102,23.896c-24.069,2.763-49.171-6.224-73.097-10.031c-23.926-3.807-51.831-3.056-71.26,11.418
			c-18.894,14.075-32.97,41.157-28.789,64.344c4.181,23.186,15.307,46.387,33.942,60.804s37.23,33.775,61.739,44.092l0,0
			c42.275,19.357,83.397,27.017,125.641,30.671c41.091,3.554,83.023,1.718,122.648-9.725c39.625-11.443,76.921-32.912,103.59-64.374
			C607.427,277.481,617.857,237.622,613.636,196.594z"/>
	</g>
</g>
<g id="Floor">
	<g>
		<g>
			<g>
				<path style="fill:#263238;" d="M717.428,414.514c0,0.144-153.366,0.26-342.508,0.26c-189.208,0-342.541-0.117-342.541-0.26
					c0-0.144,153.333-0.26,342.541-0.26C564.062,414.254,717.428,414.371,717.428,414.514z"/>
			</g>
		</g>
	</g>
</g>
<g id="Car">
	<g>
		<g>
			<g>
				<g>
					<g>
						<path style="fill:#E8505B;" d="M672.84,315.919L672.84,315.919c9.718,10.575,10.39,26.813,1.184,37.838
							c-3.953,4.733-8.98,8.615-14.823,11.247l-49.142,22.14l-34.712,5.371l-454.263-2.883l-28.463-5.569
							c-13.725-2.685-23.56-14.808-23.358-28.792l0.285-19.776c0.044-3.038,2.042-5.702,4.946-6.594l2.015-0.619
							c0,0,1.684-19.391,13.384-23.783c42.631-18.371,70.859-24.269,142.224-27.251l60.275-36.029c0,0,24.33-15.55,47.007-17.585
							c22.678-2.035,73.984-2.067,97.504-0.713c27.612,1.589,62.647,14.153,82.184,23.841c15.302,7.588,52.132,26.339,52.132,26.339
							l20.834,3.492c3.133,0.147,60.669,3.656,67.28,4.67c3.886,0.596,8.815,3.524,10.466,8.987
							c1.651,5.463,3.04,25.515,3.04,25.515"/>
					</g>
				</g>
				<g>
					<g>
						<path style="fill:#263238;" d="M496.951,247.811c-9.819-4.91-36.161-11.681-50.89-14.443
							c-14.729-2.762-44.666-3.142-56.633-2.835c-11.967,0.307-45.195,0.876-62.715,5.852c-9.012,2.56-23.491,10.057-32.03,16.34
							c-2.963,2.18-15.838,12.269-18.716,14.56l-22.298,20.812l273.986-8.648c0,0,1.578-9.547-3.35-15.051
							C519.377,258.893,496.951,247.811,496.951,247.811z"/>
					</g>
				</g>
				<g>
					<g>
						<g>
							<g>
								<g>
									<path style="fill:#FAFAFA;" d="M90.533,327.106l-13.86-0.2c0.539-3.736,2.371-13.677,8.293-19.243l18.351,0.263
										c3.348,0.048,5.368,3.724,3.614,6.576l-3.339,5.428C100.808,324.457,95.847,327.183,90.533,327.106z"/>
								</g>
							</g>
						</g>
					</g>
					<g>
						<g>
							<g>
								<g>
									<path style="fill:#E0E0E0;" d="M92.212,326.275c1.441-6.107,3.257-14.126,8.405-18.387l2.7,0.039
										c3.348,0.048,5.368,3.724,3.614,6.576l-3.339,5.428c-2.52,4.098-6.83,6.697-11.565,7.1
										C92.089,326.778,92.151,326.533,92.212,326.275z"/>
								</g>
							</g>
						</g>
					</g>
				</g>
				<g>
					<g style="opacity:0.7;">
						<g>
							<g>
								<g>
									<path d="M226.699,390.471c1.428-6.948,1.808-14.263,0.944-21.679c-3.585-30.769-23.737-52.913-54.172-53.352
										c-26.487-0.382-48.37,16.169-52.84,46.822c-1.338,9.172-0.959,18.573,0.923,27.501L226.699,390.471z"/>
								</g>
							</g>
						</g>
					</g>
					<g style="opacity:0.7;">
						<g>
							<g>
								<g>
									<path d="M610.034,387.272c-0.043-1.134-0.138-2.288-0.154-3.492c-0.541-38.833-26.588-65.733-57.574-66.18
										c-28.306-0.408-51.67,22.291-52.078,50.598c-0.125,8.639-0.54,16.776,0.482,23.944l74.612,0.502L610.034,387.272z"/>
								</g>
							</g>
						</g>
					</g>
				</g>
				<g>
					<g>
						<g>
							<g>
								<g>
									<path style="fill:#263238;" d="M506.835,368.294c-0.356,24.704,19.382,45.02,44.086,45.377
										c24.705,0.356,45.021-19.382,45.377-44.086c0.356-24.704-19.382-45.021-44.087-45.377
										C527.507,323.851,507.191,343.589,506.835,368.294z"/>
								</g>
							</g>
						</g>
					</g>
					<g>
						<g>
							<g>
								<g>
									<path style="fill:#263238;" d="M506.843,368.178c-0.001,0.039-0.007,0.077-0.008,0.115
										c-0.356,24.704,19.382,45.02,44.086,45.377c24.705,0.356,45.021-19.382,45.377-44.086c0.001-0.039-0.004-0.077-0.004-0.115
										L506.843,368.178z"/>
								</g>
							</g>
						</g>
					</g>
					<g>
						<g>
							<g>
								<g>
									<path style="fill:#FAFAFA;" d="M520.162,368.486c-0.25,17.345,13.607,31.608,30.951,31.858
										c17.345,0.25,31.608-13.607,31.858-30.952c0.25-17.344-13.607-31.608-30.952-31.858
										C534.675,337.284,520.412,351.142,520.162,368.486z"/>
								</g>
							</g>
						</g>
					</g>
					<g>
						<g>
							<g>
								<g>
									<path style="fill:#E0E0E0;" d="M552.019,337.534c-17.344-0.25-31.607,13.607-31.857,30.952l62.809,0.906
										C583.222,352.048,569.364,337.784,552.019,337.534z"/>
								</g>
							</g>
						</g>
					</g>
					<g>
						<g>
							<g>
								<g>
									<path style="fill:#263238;" d="M532.437,368.663c-0.152,10.565,8.289,19.254,18.854,19.406
										c10.565,0.152,19.254-8.289,19.407-18.854c0.152-10.565-8.289-19.254-18.855-19.406
										C541.277,349.656,532.589,358.098,532.437,368.663z"/>
								</g>
							</g>
						</g>
					</g>
				</g>
				<g>
					<g>
						<g>
							<g>
								<g>
									
										<ellipse transform="matrix(0.999 -0.0449 0.0449 0.999 -16.4473 8.2056)" style="fill:#263238;" cx="174.371" cy="370.093" rx="44.737" ry="44.736"/>
								</g>
							</g>
						</g>
					</g>
					<g>
						<g>
							<g>
								<g>
									<path style="fill:#263238;" d="M129.647,369.333c-0.001,0.039-0.007,0.077-0.008,0.115
										c-0.356,24.704,19.382,45.02,44.086,45.377c24.705,0.356,45.021-19.382,45.377-44.086c0.001-0.039-0.004-0.077-0.004-0.116
										L129.647,369.333z"/>
								</g>
							</g>
						</g>
					</g>
					<g>
						<g>
							<g>
								<g>
									<path style="fill:#FAFAFA;" d="M142.967,369.64c-0.25,17.344,13.607,31.608,30.951,31.858
										c17.345,0.25,31.608-13.607,31.858-30.952c0.25-17.344-13.607-31.608-30.952-31.858
										C157.48,338.438,143.217,352.296,142.967,369.64z"/>
								</g>
							</g>
						</g>
					</g>
					<g>
						<g>
							<g>
								<g>
									<path style="fill:#E0E0E0;" d="M174.824,338.689c-17.344-0.25-31.607,13.607-31.857,30.952l62.809,0.906
										C206.026,353.202,192.169,338.939,174.824,338.689z"/>
								</g>
							</g>
						</g>
					</g>
					<g>
						<g>
							<g>
								<g>
									<path style="fill:#263238;" d="M155.241,369.817c-0.152,10.565,8.289,19.254,18.854,19.406
										c10.565,0.152,19.254-8.289,19.407-18.854c0.152-10.566-8.29-19.254-18.855-19.406
										C164.082,350.811,155.394,359.252,155.241,369.817z"/>
								</g>
							</g>
						</g>
					</g>
				</g>
				<g style="opacity:0.4;">
					<g>
						<g>
							<g>
								<path d="M87.832,359.84c-0.072,5.012-2.608,9.039-5.664,8.995c-3.056-0.044-5.475-4.143-5.403-9.155
									c0.072-5.012,2.609-9.039,5.664-8.995C85.485,350.729,87.904,354.828,87.832,359.84z"/>
							</g>
						</g>
					</g>
				</g>
				<g>
					<g>
						<g>
							<g>
								<g>
									<path style="fill:#263238;" d="M672.84,315.919c0,0.022-0.297,0.047-0.863,0.074c-0.63,0.022-1.452,0.051-2.474,0.087
										c-2.149,0.055-5.258,0.12-9.097,0.277c-3.839,0.13-8.408,0.366-13.466,0.775c-5.049,0.455-10.612,1.05-16.292,2.401
										c-2.826,0.71-5.55,1.568-8.015,2.767c-2.474,1.184-4.624,2.741-6.595,4.331c-4.005,3.106-7.02,6.563-9.764,9.266
										c-2.714,2.735-5.169,4.706-7.014,5.832c-0.924,0.559-1.661,0.961-2.184,1.183c-0.517,0.236-0.792,0.349-0.801,0.329
										c-0.031-0.064,1.065-0.539,2.85-1.721c1.786-1.181,4.167-3.177,6.828-5.941c2.685-2.725,5.69-6.242,9.716-9.407
										c1.969-1.61,4.165-3.218,6.689-4.434c2.514-1.233,5.28-2.108,8.138-2.825c5.74-1.365,11.328-1.943,16.397-2.367
										c5.076-0.379,9.655-0.568,13.5-0.64c3.846-0.099,6.958-0.095,9.109-0.074c1.024,0.014,1.846,0.025,2.476,0.033
										C672.543,315.879,672.84,315.897,672.84,315.919z"/>
								</g>
							</g>
						</g>
					</g>
				</g>
				<g style="opacity:0.5;">
					<g>
						<g>
							<g>
								<g>
									<path style="fill:#FFFFFF;" d="M608.595,388.067c0,0,0.178-0.128,0.54-0.349c0.359-0.225,0.878-0.585,1.513-1.113
										c1.243-1.068,2.927-2.925,4.137-5.828c1.248-2.877,1.822-6.767,1.446-11.208c-0.384-4.439-1.399-9.456-2.965-14.847
										c-1.597-5.383-3.888-11.139-7.2-16.854c-3.323-5.694-7.701-11.336-13.303-16.206c-5.58-4.859-12.381-8.981-20.113-11.302
										c-7.716-2.342-16.204-3.014-24.711-2.109c-8.517,0.888-16.686,3.106-24.11,6.27c-7.408,3.18-14.059,7.534-19.073,12.997
										c-5.083,5.41-8.515,11.717-10.902,17.851c-2.394,6.157-3.759,12.198-4.664,17.74c-0.435,2.777-0.768,5.436-0.994,7.96
										c-0.25,2.521-0.396,4.907-0.297,7.13c0.141,4.442,1.594,8.236,3.866,10.41c2.201,2.255,4.688,3.005,6.304,3.117
										c1.651,0.068,2.49-0.287,2.498-0.228c0,0-0.206,0.071-0.619,0.18c-0.414,0.103-1.049,0.188-1.886,0.177
										c-1.645-0.071-4.2-0.796-6.473-3.07c-2.351-2.193-3.874-6.077-4.047-10.568c-0.117-2.25,0.015-4.656,0.249-7.184
										c0.212-2.533,0.53-5.203,0.953-7.994c0.88-5.57,2.225-11.649,4.616-17.861c1.202-3.099,2.654-6.23,4.445-9.293
										c1.802-3.055,3.972-6.02,6.52-8.768c5.067-5.545,11.79-9.957,19.257-13.171c7.484-3.198,15.701-5.434,24.293-6.331
										c8.579-0.912,17.155-0.233,24.959,2.146c7.824,2.358,14.695,6.538,20.318,11.457c5.645,4.929,10.046,10.635,13.374,16.383
										c3.317,5.769,5.597,11.573,7.175,16.992c1.547,5.432,2.533,10.464,2.888,14.948c0.345,4.483-0.273,8.43-1.574,11.332
										c-1.261,2.928-3.001,4.783-4.283,5.829C609.42,387.74,608.595,388.067,608.595,388.067z"/>
								</g>
							</g>
						</g>
					</g>
				</g>
				<g>
					<g>
						<g>
							<g>
								<g>
									<path style="fill:none;stroke:#839198;stroke-miterlimit:10;" d="M522.208,378.851"/>
								</g>
							</g>
						</g>
					</g>
				</g>
				<g>
					<g>
						<g>
							<g>
								<g>
									<path style="fill:#263238;" d="M121.565,362.25c-0.046,0.033-0.521-0.61-1.445-1.706c-0.919-1.101-2.358-2.607-4.339-4.227
										c-3.925-3.27-10.345-6.647-18.014-8.231c-7.675-1.582-14.841-1.453-19.967-1.279c-2.571,0.097-4.651,0.22-6.089,0.296
										c-1.438,0.077-2.236,0.105-2.239,0.06c-0.002-0.022,0.195-0.06,0.571-0.112c0.451-0.053,0.995-0.118,1.649-0.195
										c1.433-0.153,3.511-0.344,6.087-0.5c5.133-0.29,12.35-0.495,20.12,1.105c7.769,1.603,14.267,5.102,18.172,8.509
										c1.971,1.687,3.377,3.26,4.244,4.418c0.458,0.56,0.743,1.049,0.961,1.359C121.483,362.064,121.584,362.237,121.565,362.25z
										"/>
								</g>
							</g>
						</g>
					</g>
				</g>
				<g>
					<g>
						<g>
							<g>
								<g>
									<path style="fill:#263238;" d="M121.295,328.951c-0.003,0.177-10.683,0.166-23.851-0.024
										c-13.173-0.19-23.847-0.487-23.844-0.664c0.003-0.176,10.68-0.166,23.854,0.024
										C110.621,328.478,121.297,328.775,121.295,328.951z"/>
								</g>
							</g>
						</g>
					</g>
				</g>
				<g style="opacity:0.5;">
					<g>
						<g>
							<g>
								<g>
									<path style="fill:#FFFFFF;" d="M242.338,385.855c0,0-0.023-0.208-0.037-0.612c-0.011-0.431-0.025-1.027-0.044-1.795
										c-0.003-0.789-0.048-1.764-0.117-2.916c-0.045-1.152-0.141-2.479-0.288-3.97c-0.516-5.955-1.906-14.585-5.436-24.698
										c-1.757-5.053-4.1-10.445-7.104-15.972c-3-5.518-6.611-11.248-11.338-16.494c-4.698-5.26-10.797-9.734-17.902-12.661
										c-7.073-2.99-15.003-4.564-23.136-4.759c-4.074-0.057-8.094,0.279-12.017,0.865c-3.909,0.678-7.712,1.616-11.351,2.849
										c-3.607,1.307-7.121,2.719-10.345,4.533l-1.222,0.645l-1.176,0.712c-0.781,0.475-1.558,0.946-2.33,1.415
										c-0.743,0.515-1.481,1.026-2.215,1.535l-1.097,0.762l-1.041,0.823c-5.577,4.325-10.181,9.316-13.686,14.527
										c-3.539,5.191-6.107,10.501-7.913,15.526c-1.81,5.031-2.858,9.776-3.471,13.977c-0.235,2.111-0.49,4.073-0.535,5.895
										c-0.137,1.817-0.09,3.481-0.077,4.977c-0.03,1.499,0.16,2.82,0.21,3.971c0.053,1.153,0.204,2.117,0.305,2.899
										c0.095,0.762,0.169,1.353,0.223,1.781c0.047,0.402,0.055,0.611,0.055,0.611s-0.051-0.201-0.119-0.6
										c-0.069-0.426-0.164-1.015-0.286-1.774c-0.121-0.781-0.293-1.745-0.366-2.9c-0.071-1.153-0.28-2.478-0.27-3.981
										c-0.033-1.502-0.098-3.172,0.021-4.999c0.026-1.831,0.266-3.804,0.485-5.929c0.582-4.228,1.604-9.009,3.399-14.082
										c1.79-5.068,4.353-10.427,7.901-15.673c3.513-5.265,8.144-10.316,13.763-14.694l1.049-0.833l1.105-0.771
										c0.74-0.515,1.484-1.033,2.232-1.554c0.778-0.475,1.561-0.953,2.348-1.433l1.185-0.72l1.232-0.653
										c3.25-1.835,6.794-3.266,10.432-4.588c3.671-1.249,7.508-2.198,11.452-2.884c3.959-0.595,8.016-0.934,12.13-0.877
										c8.214,0.197,16.219,1.791,23.368,4.822c7.179,2.964,13.365,7.518,18.096,12.843c4.763,5.311,8.374,11.083,11.368,16.637
										c2.998,5.565,5.328,10.991,7.065,16.076c3.49,10.176,4.815,18.849,5.257,24.826
										C242.552,382.531,242.338,385.855,242.338,385.855z"/>
								</g>
							</g>
						</g>
					</g>
				</g>
				<g>
					<g>
						<g>
							<g>
								<g>
									<path style="fill:#263238;" d="M592.129,277.206c0.022,0.004,0.006,0.229-0.045,0.655
										c-0.065,0.497-0.146,1.111-0.245,1.858c-0.214,1.612-0.55,3.943-0.764,6.834c-0.204,2.884-0.27,6.365,0.462,10.105
										c0.733,3.727,2.546,7.647,5.628,10.788c3.055,3.16,6.766,5.304,10.284,6.749c3.538,1.449,6.916,2.243,9.754,2.827
										c2.846,0.571,5.175,0.918,6.78,1.182c0.744,0.125,1.355,0.227,1.849,0.309c0.422,0.077,0.642,0.128,0.639,0.15
										c-0.003,0.022-0.229,0.013-0.656-0.022c-0.499-0.051-1.115-0.114-1.865-0.191c-1.617-0.189-3.959-0.468-6.831-0.985
										c-2.865-0.531-6.284-1.284-9.889-2.725c-3.587-1.438-7.384-3.606-10.523-6.851c-3.168-3.224-5.032-7.3-5.745-11.116
										c-0.717-3.833-0.598-7.356-0.335-10.257c0.273-2.909,0.679-5.235,0.969-6.837c0.146-0.801,0.272-1.421,0.364-1.84
										C592.049,277.421,592.107,277.202,592.129,277.206z"/>
								</g>
							</g>
						</g>
					</g>
				</g>
				<g>
					<g>
						<g>
							<g>
								<g>
									<path style="fill:#263238;" d="M364.855,301.689c0-0.022,0.19-0.042,0.552-0.054c0.361-0.006,0.898-0.023,1.591,0.084
										c0.678,0.091,1.594,0.445,2.172,1.319c0.589,0.824,0.854,2.149,0.264,3.345c-0.565,1.185-1.781,2.114-3.23,2.507
										c-1.453,0.407-3.051,0.32-4.658,0.23c-3.244-0.184-6.794-0.386-10.519-0.598c-0.935-0.06-1.907-0.147-2.812-0.528
										c-0.89-0.379-1.708-1.064-2.029-2.027c-0.327-0.969-0.013-2.004,0.524-2.727c0.529-0.746,1.316-1.278,2.12-1.548
										c1.632-0.555,3.218-0.438,4.649-0.469c1.445,0.004,2.789,0.046,4.014,0.095c2.365,0.101,4.319,0.185,5.793,0.248
										c1.367,0.048,2.125,0.068,2.126,0.115c0,0.022-0.189,0.046-0.549,0.072c-0.36,0.026-0.893,0.049-1.579,0.062
										c-1.372,0.034-3.357,0.001-5.804-0.045c-1.223-0.021-2.562-0.036-3.997-0.017c-1.428,0.048-2.998-0.026-4.452,0.493
										c-0.726,0.254-1.369,0.707-1.825,1.349c-0.455,0.625-0.678,1.448-0.427,2.174c0.242,0.731,0.913,1.316,1.683,1.639
										c0.782,0.33,1.682,0.419,2.605,0.476c3.724,0.229,7.271,0.448,10.514,0.647c1.611,0.108,3.14,0.202,4.486-0.154
										c1.329-0.335,2.445-1.167,2.962-2.194c0.538-1.029,0.345-2.184-0.156-2.948c-0.495-0.8-1.269-1.141-1.922-1.272
										C365.628,301.72,364.849,301.758,364.855,301.689z"/>
								</g>
							</g>
						</g>
					</g>
				</g>
				<g>
					<g>
						<g>
							<g>
								<g>
									<path style="fill:#263238;" d="M506.326,300.521c0-0.022,0.19-0.042,0.552-0.054c0.361-0.006,0.898-0.023,1.591,0.084
										c0.678,0.091,1.594,0.444,2.172,1.319c0.589,0.824,0.854,2.149,0.264,3.345c-0.565,1.185-1.781,2.114-3.23,2.507
										c-1.453,0.407-3.051,0.32-4.658,0.23c-3.244-0.184-6.794-0.386-10.519-0.598c-0.935-0.06-1.907-0.147-2.812-0.529
										c-0.89-0.379-1.708-1.064-2.029-2.027c-0.327-0.968-0.013-2.004,0.524-2.727c0.53-0.746,1.316-1.278,2.12-1.548
										c1.632-0.556,3.218-0.438,4.649-0.47c1.445,0.004,2.789,0.046,4.014,0.095c2.365,0.101,4.319,0.185,5.793,0.248
										c1.367,0.048,2.125,0.068,2.126,0.115c0,0.022-0.189,0.046-0.549,0.072c-0.361,0.026-0.893,0.049-1.579,0.062
										c-1.372,0.034-3.357,0.001-5.804-0.045c-1.223-0.021-2.562-0.036-3.997-0.017c-1.427,0.048-2.998-0.027-4.451,0.493
										c-0.726,0.254-1.369,0.707-1.825,1.349c-0.455,0.625-0.678,1.448-0.427,2.174c0.242,0.731,0.913,1.316,1.683,1.639
										c0.782,0.33,1.682,0.419,2.605,0.476c3.723,0.229,7.271,0.448,10.514,0.648c1.611,0.108,3.14,0.202,4.486-0.154
										c1.329-0.335,2.445-1.167,2.962-2.194c0.538-1.029,0.345-2.184-0.156-2.948c-0.495-0.8-1.269-1.141-1.922-1.272
										C507.098,300.552,506.319,300.59,506.326,300.521z"/>
								</g>
							</g>
						</g>
					</g>
				</g>
				<g>
					<g>
						<g>
							<path style="fill:#263238;" d="M527.654,279.448c0,0-0.041,0.192-0.14,0.565c-0.104,0.383-0.254,0.936-0.451,1.662
								c-0.409,1.475-1.01,3.643-1.793,6.467c-1.589,5.668-3.913,13.958-6.867,24.493l-0.017,0.062l-0.058,0.027
								c-4.563,2.129-9.306,5.128-13.758,9.177c-2.264,1.983-4.358,4.317-6.406,6.817c-2.023,2.527-3.875,5.324-5.605,8.31
								c-3.414,6.004-6.125,12.88-8.031,20.343c-1.873,7.462-3.095,15.529-3.097,23.923v0.237H481.2
								c-29.611,0.009-63.92,0.019-100.32,0.03c-48.705-0.02-93.657-0.037-129.403-0.052h-0.185l-0.023-0.183
								c-3.247-26.53-5.299-48.374-6.535-63.576c-0.621-7.601-1.047-13.542-1.324-17.582c-0.13-2.013-0.23-3.554-0.298-4.605
								c-0.063-1.04-0.08-1.576-0.08-1.576s0.059,0.533,0.143,1.571c0.082,1.05,0.202,2.59,0.359,4.6
								c0.331,4.047,0.816,9.978,1.437,17.571c1.307,15.194,3.42,37.027,6.713,63.545l-0.207-0.183
								c35.746-0.014,80.699-0.032,129.403-0.052c36.4,0.011,70.709,0.021,100.32,0.03l-0.23,0.237
								c0.013-8.468,1.251-16.541,3.145-24.04c1.927-7.493,4.664-14.398,8.11-20.427c1.746-2.999,3.616-5.808,5.657-8.344
								c2.066-2.51,4.18-4.853,6.462-6.841c4.49-4.061,9.271-7.061,13.863-9.183l-0.076,0.089
								c3.008-10.52,5.376-18.798,6.994-24.457c0.814-2.815,1.438-4.977,1.863-6.447c0.213-0.721,0.375-1.271,0.487-1.651
								C527.588,279.634,527.654,279.448,527.654,279.448z"/>
						</g>
					</g>
				</g>
				<g>
					<g>
						<g>
							<path style="fill:#263238;" d="M383.439,284.517c0.009,0.001,0.006,0.087-0.009,0.252c-0.021,0.195-0.046,0.436-0.078,0.731
								c-0.085,0.683-0.201,1.619-0.349,2.804c-0.164,1.215-0.355,2.704-0.532,4.437c-0.184,1.732-0.434,3.7-0.607,5.886
								c-0.201,2.183-0.417,4.574-0.568,7.148c-0.2,2.57-0.3,5.323-0.433,8.217c-0.191,5.792-0.242,12.166-0.03,18.85
								c0.24,6.686,0.722,13.043,1.304,18.81c0.328,2.88,0.614,5.619,0.987,8.17c0.325,2.558,0.701,4.929,1.049,7.093
								c0.32,2.169,0.703,4.116,1.003,5.831c0.294,1.717,0.585,3.189,0.831,4.39c0.227,1.172,0.406,2.098,0.537,2.773
								c0.051,0.293,0.093,0.531,0.127,0.724c0.026,0.164,0.035,0.249,0.026,0.251c-0.009,0.002-0.035-0.079-0.078-0.239
								c-0.047-0.19-0.106-0.425-0.177-0.713c-0.154-0.671-0.366-1.591-0.633-2.754c-0.276-1.196-0.597-2.663-0.918-4.377
								c-0.328-1.713-0.736-3.657-1.08-5.825c-0.372-2.164-0.77-4.536-1.114-7.095c-0.392-2.553-0.695-5.295-1.037-8.179
								c-0.609-5.775-1.106-12.144-1.347-18.843c-0.212-6.698-0.146-13.085,0.072-18.887c0.146-2.899,0.263-5.656,0.482-8.229
								c0.17-2.577,0.407-4.97,0.632-7.154c0.197-2.187,0.473-4.154,0.684-5.885c0.205-1.732,0.426-3.217,0.621-4.43
								c0.188-1.179,0.337-2.112,0.445-2.791c0.052-0.293,0.094-0.531,0.129-0.724C383.409,284.599,383.43,284.516,383.439,284.517z
								"/>
						</g>
					</g>
				</g>
				<g>
					<g>
						<path style="fill:#263238;" d="M244.215,281.667c-3.209,2.399-7.976,2.997-11.902,2.195c-3.925-0.802-7.014-2.627-9.025-6.091
							l8.805-0.394L244.215,281.667z"/>
					</g>
				</g>
				<g>
					<g>
						<path style="fill:#455A64;" d="M232.093,277.377c0,0,8.875,5.409,11.456,4.672c2.581-0.738,43.974-33.456,68.952-46.091
							c0,0-3.286-1.328-7.588-1.722c0,0-11.624,5.882-26.118,14.606c-11.028,6.638-22.251,13.596-27.5,16.803
							C239.824,272.653,232.093,277.377,232.093,277.377z"/>
					</g>
				</g>
				<g>
					<g>
						<g>
							<path style="fill:#263238;" d="M260.487,284.32c0.004,0.007-0.093,0.069-0.287,0.185c-0.214,0.125-0.501,0.292-0.869,0.507
								c-0.792,0.45-1.929,1.096-3.396,1.93c-2.999,1.681-7.345,4.117-12.824,7.188l-0.039,0.022l-0.046-0.002
								c-8.037-0.29-18.359-0.501-30.181-0.017c-5.909,0.252-12.191,0.675-18.736,1.344c-6.544,0.679-13.349,1.6-20.317,2.71
								c-12.206,1.906-23.725,4.308-34.264,6.242c-10.547,1.892-20.157,2.953-28.248,3.387c-8.092,0.466-14.655,0.346-19.18,0.214
								c-2.264-0.068-4.02-0.16-5.21-0.234c-0.577-0.036-1.026-0.065-1.353-0.086c-0.305-0.022-0.46-0.047-0.46-0.047
								s0.157-0.011,0.463-0.006c0.328,0.008,0.778,0.02,1.356,0.034c1.191,0.041,2.947,0.1,5.21,0.137
								c4.523,0.07,11.079,0.133,19.154-0.379c8.075-0.48,17.659-1.577,28.186-3.492c10.516-1.956,22.05-4.376,34.266-6.283
								c6.976-1.112,13.792-2.029,20.347-2.7c6.557-0.661,12.85-1.071,18.769-1.307c11.841-0.451,22.173-0.19,30.213,0.159
								l-0.085,0.02c5.51-3.015,9.881-5.407,12.897-7.057c1.485-0.801,2.636-1.422,3.438-1.855c0.377-0.198,0.671-0.352,0.89-0.468
								C260.379,284.362,260.483,284.313,260.487,284.32z"/>
						</g>
					</g>
				</g>
				<g>
					<g>
						<path style="fill:#455A64;" d="M269.923,285.349c62.88-2.808,189.716-5.144,252.595-7.952c0,0,2.076-6.906-3.844-11.223
							c-2.159-1.574-15.214-11.45-30.462-17.266c-23.926-9.126-48.33-12.768-58.087-13.566c-11.199-0.916-31.687-1.74-31.687-1.74
							s-37.511,1.495-47.979,2.442c-15.419,1.394-28.369,5.587-37.959,10.334c-13.11,6.488-35.917,25.592-35.917,25.592
							l-16.036,13.378H269.923z"/>
					</g>
				</g>
				<g>
					<g>
						<polygon style="fill:#263238;" points="385.636,231.738 373.501,283.632 395.507,282.93 399.885,231.738 						"/>
					</g>
				</g>
				<g>
					<g>
						<polygon style="fill:#263238;" points="480.775,244.301 478.636,279.453 481.695,279.453 483.765,245.4 						"/>
					</g>
				</g>
				<g>
					<g>
						<path style="fill:#263238;" d="M272.297,273.446c0.965,1.295,6.554,13.855,6.554,13.855l-21.238-1.39L272.297,273.446z"/>
					</g>
				</g>
				<g>
					<g>
						<g>
							<g>
								<g>
									<path style="fill:#E8505B;" d="M292.225,286.051l-16.191,0.451c-2.137-0.031-3.814-3.824-3.747-8.474l0,0
										c0.06-4.156,1.506-7.671,3.403-8.273l15.372-4.879L292.225,286.051z"/>
								</g>
							</g>
						</g>
					</g>
				</g>
				<g>
					<g>
						<g>
							<path style="fill:#455A64;" d="M392.527,231.145c0.142,0.022-1.573,11.849-3.829,26.413
								c-2.258,14.569-4.203,26.358-4.345,26.336c-0.142-0.022,1.572-11.846,3.83-26.416
								C390.439,242.915,392.385,231.123,392.527,231.145z"/>
						</g>
					</g>
				</g>
				<g>
					<g>
						<g>
							<path style="fill:#455A64;" d="M272.929,272.681c0.125,0.047-0.77,2.553-2.476,5.341c-1.696,2.795-3.514,4.738-3.613,4.649
								c-0.119-0.098,1.497-2.164,3.168-4.92C271.69,275.004,272.787,272.621,272.929,272.681z"/>
						</g>
					</g>
				</g>
				<g>
					<g>
						<g>
							<path style="fill:#EBEBEB;" d="M362.678,241.176c0.015,0.01-0.066,0.158-0.234,0.428c-0.205,0.318-0.454,0.704-0.754,1.17
								c-0.715,1.074-1.672,2.512-2.835,4.258c-2.402,3.589-5.715,8.551-9.321,14.065c-3.606,5.517-6.823,10.542-9.147,14.182
								c-1.133,1.765-2.067,3.219-2.763,4.305c-0.306,0.461-0.56,0.844-0.77,1.159c-0.181,0.262-0.283,0.395-0.299,0.386
								c-0.015-0.009,0.057-0.161,0.209-0.441c0.187-0.329,0.413-0.729,0.686-1.211c0.605-1.046,1.501-2.548,2.624-4.393
								c2.245-3.692,5.415-8.751,9.024-14.272c3.609-5.518,6.972-10.45,9.453-13.988c1.24-1.769,2.256-3.192,2.972-4.166
								c0.332-0.443,0.607-0.811,0.834-1.115C362.553,241.293,362.663,241.166,362.678,241.176z"/>
						</g>
					</g>
				</g>
				<g>
					<g>
						<g>
							<path style="fill:#EBEBEB;" d="M353.446,249.033c0.117,0.084-2.098,3.389-4.946,7.381c-2.849,3.994-5.253,7.163-5.37,7.079
								c-0.117-0.083,2.097-3.388,4.946-7.382C350.925,252.119,353.329,248.949,353.446,249.033z"/>
						</g>
					</g>
				</g>
				<g>
					<g>
						<g>
							<g>
								<path style="fill:#F5F5F5;" d="M672.645,313.154c0,0-5.216,0.33-9.151-1.361c-6.25-2.686-9.247-10.101-6.269-16.218
									c0.018-0.038,0.037-0.075,0.055-0.113c1.862-3.748,5.725-6.425,9.91-6.399l2.182,0c0,0,0.969,1.552,1.42,5.199
									C671.384,299.039,672.273,306.271,672.645,313.154z"/>
							</g>
						</g>
					</g>
				</g>
			</g>
			<g>
				<g>
					<g>
						<path style="fill:#EBEBEB;" d="M441.659,242.861c0.121,0.077-4.68,7.848-10.722,17.355
							c-6.044,9.51-11.041,17.154-11.163,17.077c-0.121-0.077,4.679-7.847,10.723-17.357
							C436.54,250.43,441.538,242.784,441.659,242.861z"/>
					</g>
				</g>
			</g>
			<g>
				<g>
					<g>
						<path style="fill:#EBEBEB;" d="M440.033,252.673c0.121,0.078-1.482,2.778-3.581,6.03c-2.099,3.253-3.898,5.827-4.019,5.749
							c-0.121-0.078,1.482-2.777,3.581-6.031C438.113,255.169,439.913,252.595,440.033,252.673z"/>
					</g>
				</g>
			</g>
		</g>
		<g>
			<g>
				<g>
					<path style="fill:#EBEBEB;" d="M288.512,267.889c0.052,0.127-2.631,1.312-6.098,2.321c-3.465,1.017-6.364,1.463-6.388,1.328
						c-0.03-0.147,2.803-0.818,6.242-1.828C285.709,268.709,288.457,267.749,288.512,267.889z"/>
				</g>
			</g>
		</g>
		<g>
			<g>
				<g>
					<path style="fill:#EBEBEB;" d="M375.563,289.864c0,0.144-26.389,0.26-58.935,0.26c-32.557,0-58.941-0.117-58.941-0.26
						s26.384-0.26,58.941-0.26C349.173,289.603,375.563,289.72,375.563,289.864z"/>
				</g>
			</g>
		</g>
		<g>
			<g>
				<g>
					<path style="fill:#EBEBEB;" d="M366.899,300.341c0,0.144-3.834,0.26-8.563,0.26c-4.73,0-8.564-0.116-8.564-0.26
						c0-0.144,3.834-0.26,8.564-0.26C363.064,300.081,366.899,300.198,366.899,300.341z"/>
				</g>
			</g>
		</g>
		<g>
			<g>
				<g>
					<path style="fill:#EBEBEB;" d="M175.276,312.218c-0.001,0.018-0.227,0.025-0.654,0.022c-0.428,0.006-1.057-0.036-1.868-0.018
						c-1.621-0.008-3.97,0.073-6.844,0.421c-5.726,0.665-13.64,2.72-21.195,7.334c-7.56,4.612-13.005,10.713-16.214,15.502
						c-1.623,2.397-2.768,4.449-3.502,5.894c-0.387,0.713-0.637,1.292-0.837,1.67c-0.193,0.382-0.302,0.579-0.319,0.572
						c-0.016-0.007,0.061-0.219,0.223-0.615c0.17-0.393,0.391-0.987,0.751-1.717c0.68-1.478,1.783-3.569,3.378-6.009
						c3.151-4.874,8.609-11.082,16.248-15.742c7.634-4.663,15.648-6.68,21.424-7.255c2.9-0.303,5.263-0.328,6.889-0.258
						c0.814,0.013,1.443,0.088,1.87,0.116C175.054,312.172,175.277,312.201,175.276,312.218z"/>
				</g>
			</g>
		</g>
		<g>
			<g>
				<g>
					<path style="fill:#EBEBEB;" d="M476.7,287.088c0,0.144-17.472,0.26-39.02,0.26c-21.555,0-39.024-0.117-39.024-0.26
						s17.468-0.26,39.024-0.26C459.228,286.828,476.7,286.945,476.7,287.088z"/>
				</g>
			</g>
		</g>
		<g>
			<g>
				<g>
					<path style="fill:#EBEBEB;" d="M510.918,298.806c-0.005,0.074-1.082,0.059-2.82,0.018c-1.738-0.041-4.137-0.098-6.787-0.113
						c-2.651-0.014-5.051,0.017-6.789,0.04c-1.738,0.022-2.815,0.026-2.82-0.048c-0.004-0.069,1.066-0.203,2.805-0.319
						c1.738-0.117,4.146-0.206,6.806-0.193c2.659,0.015,5.065,0.13,6.802,0.266C509.854,298.592,510.923,298.737,510.918,298.806z"
						/>
				</g>
			</g>
		</g>
	</g>
</g>
<g id="Character">
	<g>
		<g>
			<g>
				<g>
					<g>
						<g>
							<g>
								<g>
									<g>
										<g>
											<g>
												<g>
													<path style="fill:#B78876;" d="M574.236,208.172L574.236,208.172c-3.844,0-6.956-3.124-6.941-6.967l0.03-8.005
														c0,0-5.756-0.895-5.827-6.649c-0.071-5.754,0.927-18.968,0.927-18.968l0,0c6.661-2.863,14.35-1.896,20.095,2.526l0,0
														l-1.361,31.617C580.9,205.357,577.878,208.172,574.236,208.172z"/>
												</g>
											</g>
										</g>
									</g>
								</g>
							</g>
							<g>
								<g>
									<g>
										<g>
											<g>
												<g>
													<path style="fill:#AA6550;" d="M567.315,193.116c0,0,3.637,0.296,7.502-2.132c0,0-1.773,4.141-7.515,3.623
														L567.315,193.116z"/>
												</g>
											</g>
										</g>
									</g>
								</g>
							</g>
						</g>
					</g>
				</g>
				<g>
					<g>
						<g>
							<g>
								<g>
									<g>
										<g>
											<path style="fill:#B78876;" d="M581.882,176.725c0.098-0.042,3.954-1.169,3.828,2.765
												c-0.126,3.934-4.049,2.996-4.053,2.883C581.654,182.26,581.882,176.725,581.882,176.725z"/>
										</g>
									</g>
								</g>
							</g>
						</g>
					</g>
					<g>
						<g>
							<g>
								<g>
									<g>
										<g>
											<g>
												<path style="fill:#AA6550;" d="M582.907,180.921c0.018-0.012,0.067,0.05,0.181,0.107
													c0.111,0.055,0.304,0.097,0.512,0.027c0.42-0.139,0.792-0.788,0.833-1.496c0.021-0.358-0.043-0.701-0.16-0.987
													c-0.111-0.292-0.291-0.499-0.499-0.543c-0.207-0.055-0.359,0.066-0.41,0.175c-0.056,0.108-0.034,0.188-0.055,0.194
													c-0.011,0.009-0.082-0.068-0.046-0.23c0.019-0.078,0.068-0.169,0.163-0.242c0.097-0.074,0.237-0.109,0.382-0.088
													c0.303,0.031,0.567,0.318,0.696,0.633c0.146,0.316,0.227,0.702,0.203,1.104c-0.051,0.792-0.48,1.521-1.054,1.667
													c-0.279,0.063-0.507-0.027-0.624-0.124C582.911,181.016,582.893,180.928,582.907,180.921z"/>
											</g>
										</g>
									</g>
								</g>
							</g>
						</g>
					</g>
				</g>
				<g>
					<g>
						<g>
							<g>
								<g>
									<g>
										<g>
											<g>
												<g>
													<g>
														<g>
															<g>
																<path style="fill:#263238;" d="M564.514,176.5c-0.015,0.434,0.339,0.805,0.792,0.829
																	c0.452,0.024,0.832-0.307,0.847-0.741c0.015-0.434-0.339-0.805-0.792-0.83
																	C564.909,175.734,564.529,176.066,564.514,176.5z"/>
															</g>
														</g>
													</g>
												</g>
											</g>
										</g>
										<g>
											<g>
												<g>
													<g>
														<g>
															<g>
																<g>
																	<path style="fill:#263238;" d="M563.514,175.677c0.102,0.107,0.724-0.354,1.609-0.351
																		c0.883-0.01,1.532,0.445,1.628,0.336c0.047-0.048-0.057-0.241-0.339-0.447c-0.278-0.205-0.753-0.404-1.303-0.402
																		c-0.551,0.003-1.014,0.206-1.281,0.413C563.556,175.435,563.464,175.629,563.514,175.677z"/>
																</g>
															</g>
														</g>
													</g>
												</g>
											</g>
										</g>
									</g>
									<g>
										<g>
											<g>
												<g>
													<g>
														<g>
															<g>
																<path style="fill:#263238;" d="M573.174,176.5c-0.015,0.434,0.34,0.805,0.792,0.829
																	c0.452,0.024,0.832-0.307,0.847-0.741c0.015-0.434-0.34-0.805-0.792-0.83
																	C573.569,175.734,573.189,176.066,573.174,176.5z"/>
															</g>
														</g>
													</g>
												</g>
											</g>
										</g>
										<g>
											<g>
												<g>
													<g>
														<g>
															<g>
																<g>
																	<path style="fill:#263238;" d="M572.206,175.842c0.102,0.107,0.725-0.354,1.609-0.351
																		c0.883-0.01,1.532,0.445,1.628,0.336c0.047-0.048-0.056-0.241-0.339-0.447c-0.278-0.205-0.752-0.404-1.303-0.402
																		c-0.551,0.003-1.014,0.206-1.281,0.413C572.249,175.6,572.156,175.794,572.206,175.842z"/>
																</g>
															</g>
														</g>
													</g>
												</g>
											</g>
										</g>
									</g>
									<g>
										<g>
											<g>
												<g>
													<g>
														<g>
															<g>
																<path style="fill:#263238;" d="M568.997,182.4c0.004-0.05-0.546-0.145-1.436-0.259
																	c-0.226-0.023-0.44-0.068-0.478-0.222c-0.053-0.163,0.041-0.406,0.151-0.669c0.212-0.547,0.435-1.119,0.668-1.72
																	c0.927-2.448,1.599-4.461,1.5-4.498s-0.931,1.918-1.858,4.366c-0.223,0.604-0.437,1.179-0.64,1.73
																	c-0.085,0.257-0.232,0.548-0.117,0.886c0.061,0.169,0.227,0.291,0.371,0.33c0.145,0.044,0.272,0.047,0.383,0.053
																	C568.438,182.446,568.994,182.45,568.997,182.4z"/>
															</g>
														</g>
													</g>
												</g>
											</g>
										</g>
									</g>
									<g>
										<g>
											<g>
												<g>
													<g>
														<g>
															<g>
																<path style="fill:#263238;" d="M571.599,183.012c-0.144-0.008-0.146,0.952-0.967,1.633
																	c-0.82,0.684-1.843,0.576-1.851,0.71c-0.013,0.06,0.228,0.186,0.66,0.198c0.424,0.015,1.042-0.122,1.545-0.538
																	c0.501-0.418,0.717-0.975,0.749-1.369C571.772,183.244,571.665,183.006,571.599,183.012z"/>
															</g>
														</g>
													</g>
												</g>
											</g>
										</g>
									</g>
								</g>
							</g>
						</g>
						<g>
							<g>
								<g>
									<g>
										<g>
											<g>
												<path style="fill:#263238;" d="M571.978,172.376c0.087,0.24,0.97,0.127,2.008,0.252c1.04,0.104,1.877,0.408,2.014,0.192
													c0.061-0.103-0.084-0.329-0.423-0.562c-0.335-0.232-0.87-0.453-1.493-0.523c-0.623-0.068-1.193,0.031-1.571,0.184
													C572.132,172.073,571.941,172.262,571.978,172.376z"/>
											</g>
										</g>
									</g>
								</g>
							</g>
						</g>
						<g>
							<g>
								<g>
									<g>
										<g>
											<g>
												<path style="fill:#263238;" d="M563.839,173.117c0.156,0.201,0.765-0.008,1.497-0.017
													c0.732-0.035,1.353,0.135,1.496-0.075c0.063-0.102-0.035-0.303-0.306-0.493c-0.267-0.189-0.714-0.344-1.217-0.329
													c-0.503,0.016-0.94,0.198-1.194,0.404C563.856,172.813,563.771,173.02,563.839,173.117z"/>
											</g>
										</g>
									</g>
								</g>
							</g>
						</g>
					</g>
				</g>
			</g>
			<g>
				<g>
					<g>
						<g>
							<path style="fill:#263238;" d="M559.622,163.949c-0.062-0.713,0.204-1.479,0.784-1.898s1.48-0.393,1.952,0.146
								c-0.27-0.961,0.515-2.069,1.512-2.132c0.938-0.06,1.739,0.649,2.646,0.898c0.885,0.243,1.835,0.033,2.687-0.31
								c0.851-0.343,1.647-0.816,2.51-1.131c1.798-0.657,3.855-0.574,5.594,0.225c1.74,0.799,3.143,2.304,3.817,4.096
								c1.258-0.393,2.688,0.246,3.465,1.312c0.776,1.066,0.975,2.466,0.821,3.775c-0.104,0.885-0.36,1.74-0.658,2.582
								c0,0.074,0.008,0.146,0.006,0.221c-0.06,3.164-0.417,6.88-1.767,6.901c-2.353,0.036-1.792-4.397-1.792-4.397
								c-2.888-1.116-1.812-5.442-2.534-6.098c-0.722-0.656-2.232-2.181-8.278,0.909c-2.347,1.2-5.469,1.162-7.173,0.776
								c-0.05-0.011-0.101-0.018-0.151-0.031c-0.01-0.003-0.024-0.005-0.035-0.007c-0.019-0.005-0.032-0.015-0.05-0.02
								c-0.543-0.142-1.067-0.352-1.55-0.658c-0.548-0.346-1.046-0.815-1.278-1.421c-0.232-0.605-0.145-1.36,0.33-1.801
								C560.033,165.325,559.683,164.662,559.622,163.949z"/>
						</g>
					</g>
				</g>
			</g>
		</g>
		<g>
			<g>
				<path style="fill:#B78876;" d="M630.752,202.853c-0.147,0.242-1.782,3.324-1.782,3.324s1.303-5.045,1.35-5.229
					c0.422-1.647-0.598-1.477-0.897-0.888c-0.309,0.609-2.154,5.574-2.154,5.574c1.733-6.488,1.191-7.06,0.704-7.162
					c-0.487-0.102-2.015,5.831-2.015,5.831s-0.549-1.014-1.566-1.713c-1.567-1.078-4.178-0.002-4.304,0.736
					c-0.126,0.738,0.807,0.944,0.807,0.944c1.963-1.265,3.976,0.267,3.77,2.141c-0.206,1.873-2.578,1.613-2.874,0.28
					c-0.649-2.926-1.655-1.975-1.655-1.975l1.009,6.453l-1.068,3.245l-5.835,15.829l-11.157-11.619c0,0-5.966,13.187-6.107,13.63
					c-0.094,0.297,5.595,6.214,9.335,10.061c2.025,2.083,4.815,3.236,7.72,3.195c4.845-0.07,9.021-3.428,10.128-8.146l4.412-22.733
					l2.065-7.45c0,0,0.745-3.027,0.923-3.734C631.795,202.511,631.139,202.217,630.752,202.853z"/>
			</g>
		</g>
		<g>
			<g>
				<path style="fill:#B78876;" d="M531.612,247.261c3.328,0.586,7.153-1.808,9.196-4.499l8.312-10.951l-9.767-8.711l-8.752,10.93
					l-32.865-1.743l-7.762-4.351c-0.532-0.298-1.15-0.41-1.753-0.316l-10.682,3.014l10.023,3.079l17.489,6.581L531.612,247.261z"/>
			</g>
		</g>
		<g>
			<g>
				<g>
					<g>
						<g>
							<path style="fill:#E8505B;" d="M606.093,408.313l1.377,5.784c0,0,9.459,12.286,12.377,11.685
								c1.912-0.394-0.438-3.599-4.036-12.931l-0.755-3.854L606.093,408.313z"/>
						</g>
					</g>
				</g>
				<g>
					<g>
						<g>
							<g>
								<path style="fill:#263238;" d="M620.232,423.967c0,0-0.009,0.067-0.075,0.174c-0.065,0.105-0.186,0.256-0.397,0.371
									c-0.207,0.118-0.5,0.202-0.842,0.185c-0.344-0.017-0.716-0.163-1.071-0.392c-1.34-1.019-3.001-2.609-4.767-4.444
									c-1.757-1.843-3.217-3.629-4.228-4.954c-0.504-0.664-0.899-1.211-1.165-1.594c-0.106-0.157-0.205-0.303-0.301-0.444
									c-0.067-0.103-0.1-0.159-0.095-0.162c0.005-0.004,0.048,0.045,0.125,0.141c0.104,0.135,0.213,0.274,0.329,0.424
									c0.354,0.455,0.755,0.971,1.21,1.555c1.036,1.302,2.508,3.069,4.259,4.907c1.755,1.824,3.416,3.44,4.705,4.462
									c0.672,0.492,1.409,0.477,1.806,0.254C620.138,424.237,620.212,423.949,620.232,423.967z"/>
							</g>
						</g>
					</g>
				</g>
				<g>
					<g>
						<g>
							<g>
								<path style="fill:#263238;" d="M618.892,420.018c-0.005,0.032-0.299-0.027-0.765,0.039
									c-0.464,0.062-1.092,0.267-1.703,0.645c-0.618,0.37-1.059,0.861-1.277,1.275c-0.224,0.413-0.285,0.707-0.317,0.699
									c-0.018-0.002-0.003-0.31,0.2-0.758c0.197-0.45,0.656-0.991,1.297-1.374c0.633-0.393,1.298-0.588,1.786-0.618
									C618.605,419.892,618.899,420,618.892,420.018z"/>
							</g>
						</g>
					</g>
				</g>
				<g>
					<g>
						<g>
							<g>
								<path style="fill:#263238;" d="M609.937,417.134c-0.032-0.009,0.099-0.415,0.174-1.085c0.083-0.666,0-1.62-0.475-2.534
									c-0.462-0.916-1.211-1.531-1.807-1.825c-0.601-0.303-1.032-0.338-1.025-0.374c0.001-0.011,0.108-0.012,0.299,0.016
									c0.191,0.029,0.465,0.098,0.783,0.239c0.633,0.274,1.433,0.901,1.917,1.859c0.494,0.948,0.56,1.958,0.44,2.635
									c-0.054,0.342-0.128,0.611-0.189,0.793C609.992,417.041,609.949,417.138,609.937,417.134z"/>
							</g>
						</g>
					</g>
				</g>
				<g>
					<g>
						<g>
							<g>
								<path style="fill:#263238;" d="M606.695,409.294c0.051-0.019,0.347,0.784,0.524,1.812c0.172,1.026,0.359,1.837,0.317,1.852
									c-0.056,0.02-0.328-0.792-0.5-1.818C606.86,410.118,606.65,409.31,606.695,409.294z"/>
							</g>
						</g>
					</g>
				</g>
				<g>
					<g>
						<g>
							<g>
								<path style="fill:#263238;" d="M615.979,413.667c-0.004,0.055-0.54,0.039-1.173,0.188c-0.634,0.143-1.109,0.392-1.136,0.345
									c-0.028-0.038,0.426-0.374,1.095-0.526C615.432,413.517,615.987,413.62,615.979,413.667z"/>
							</g>
						</g>
					</g>
				</g>
				<g>
					<g>
						<g>
							<g>
								<path style="fill:#263238;" d="M616.173,414.657c-0.008,0.055-0.456,0.008-0.981,0.137
									c-0.527,0.121-0.906,0.365-0.938,0.319c-0.033-0.034,0.324-0.367,0.895-0.5
									C615.718,414.475,616.188,414.612,616.173,414.657z"/>
							</g>
						</g>
					</g>
				</g>
				<g>
					<g>
						<g>
							<g>
								<path style="fill:#263238;" d="M616.928,415.901c-0.016,0.053-0.472-0.093-1.019,0.037c-0.55,0.119-0.898,0.447-0.935,0.407
									c-0.044-0.023,0.281-0.453,0.894-0.588C616.479,415.614,616.958,415.861,616.928,415.901z"/>
							</g>
						</g>
					</g>
				</g>
				<g>
					<g>
						<g>
							<g>
								<path style="fill:#263238;" d="M615.328,413.251c-0.002,0.011-0.116,0.003-0.317-0.035c-0.201-0.038-0.49-0.108-0.838-0.226
									c-0.347-0.119-0.753-0.288-1.178-0.524c-0.214-0.118-0.43-0.251-0.65-0.403c-0.207-0.162-0.468-0.367-0.473-0.727
									c0.023-0.382,0.449-0.532,0.722-0.452c0.293,0.075,0.487,0.277,0.659,0.441c0.346,0.339,0.637,0.665,0.869,0.948
									c0.232,0.283,0.405,0.523,0.519,0.693c0.113,0.17,0.168,0.269,0.158,0.277c-0.023,0.017-0.294-0.344-0.777-0.884
									c-0.242-0.269-0.54-0.582-0.888-0.91c-0.172-0.162-0.357-0.335-0.581-0.387c-0.214-0.055-0.491,0.061-0.495,0.285
									c-0.008,0.218,0.202,0.427,0.394,0.569c0.209,0.148,0.422,0.283,0.627,0.402c0.412,0.239,0.804,0.417,1.139,0.55
									C614.892,413.129,615.335,413.221,615.328,413.251z"/>
							</g>
						</g>
					</g>
				</g>
				<g>
					<g>
						<g>
							<g>
								<path style="fill:#263238;" d="M614.831,413.132c-0.013-0.001-0.016-0.104-0.011-0.29c0.006-0.186,0.018-0.454,0.06-0.786
									c0.043-0.33,0.116-0.729,0.297-1.143c0.094-0.206,0.205-0.413,0.373-0.606c0.15-0.174,0.445-0.403,0.757-0.239
									c0.292,0.183,0.287,0.519,0.262,0.754c-0.04,0.25-0.114,0.473-0.207,0.68c-0.186,0.412-0.444,0.729-0.676,0.971
									c-0.235,0.24-0.45,0.407-0.603,0.514C614.93,413.094,614.838,413.141,614.831,413.132c-0.02-0.026,0.321-0.261,0.758-0.748
									c0.213-0.246,0.449-0.559,0.615-0.951c0.083-0.194,0.15-0.412,0.183-0.633c0.027-0.214-0.003-0.477-0.171-0.569
									c-0.171-0.101-0.388,0.036-0.532,0.198c-0.147,0.165-0.261,0.365-0.352,0.555c-0.18,0.386-0.264,0.77-0.323,1.091
									C614.902,412.724,614.862,413.135,614.831,413.132z"/>
							</g>
						</g>
					</g>
				</g>
				<g style="opacity:0.4;">
					<g>
						<g>
							<path d="M607.47,414.096l-0.666-2.78c0,0,2.318,0.429,2.919,2.164c0.602,1.735,0.452,2.969,0.452,2.969l5.039,5.426
								c0,0,1.264-2.47,3.554-1.876c0,0,1.801,3.961,1.745,4.954c-0.061,1.091-1.21,0.873-1.62,0.686
								c-0.185-0.084-2.362-1.33-4.512-3.56C611.711,419.311,608.763,415.798,607.47,414.096z"/>
						</g>
					</g>
				</g>
			</g>
			<g>
				<g>
					<g>
						<g>
							<g>
								<g>
									<g>
										<path style="fill:#E8505B;" d="M559.068,411.236l-0.044-7.714l14.449-0.175l0.184,11.285l-0.895,0.068
											c-3.984,0.27-20.277,1.09-22.952,0.315C546.825,414.149,559.068,411.236,559.068,411.236z"/>
									</g>
								</g>
							</g>
						</g>
						<g style="opacity:0.4;">
							<g>
								<g>
									<g>
										<path d="M568.416,414.581c0.191-1.21,0.849-2.34,1.806-3.103c0.957-0.763,2.143-1.174,3.364-1.091l0.052,4.038
											L568.416,414.581z"/>
									</g>
								</g>
							</g>
						</g>
					</g>
					<g>
						<g>
							<g style="opacity:0.4;">
								<g>
									<path d="M553.089,412.873c0,0-4.288,1.293-3.742,1.996c0.545,0.702,17.042,0.492,24.31-0.237l-0.027-0.323l-19.24,0.409
										C554.389,414.718,553.93,412.898,553.089,412.873z"/>
								</g>
							</g>
						</g>
					</g>
					<g>
						<g>
							<g>
								<g>
									<g>
										<path style="fill:#263238;" d="M573.856,414.297c0,0.006-0.085,0.016-0.248,0.03c-0.214,0.016-0.448,0.033-0.713,0.052
											c-0.713,0.04-1.59,0.089-2.625,0.147c-2.217,0.108-5.282,0.216-8.668,0.263c-3.388,0.045-6.455,0.019-8.674-0.029
											c-1.036-0.03-1.914-0.055-2.627-0.076c-0.265-0.012-0.5-0.023-0.714-0.033c-0.163-0.009-0.249-0.017-0.249-0.023
											c0-0.006,0.086-0.01,0.249-0.012c0.215,0,0.45,0,0.715,0c0.714,0.005,1.592,0.012,2.628,0.02
											c2.219,0.016,5.284,0.023,8.67-0.022c3.385-0.046,6.448-0.135,8.666-0.211c1.036-0.036,1.913-0.066,2.626-0.091
											c0.265-0.007,0.5-0.014,0.715-0.019C573.77,414.289,573.856,414.291,573.856,414.297z"/>
									</g>
								</g>
							</g>
						</g>
					</g>
					<g>
						<g>
							<g>
								<g>
									<g>
										<path style="fill:#263238;" d="M554.396,414.942c-0.053,0.007-0.102-0.619-0.507-1.247
											c-0.393-0.635-0.938-0.949-0.908-0.994c0.01-0.044,0.633,0.221,1.056,0.9C554.469,414.276,554.44,414.952,554.396,414.942
											z"/>
									</g>
								</g>
							</g>
						</g>
					</g>
					<g>
						<g>
							<g>
								<g>
									<g>
										<path style="fill:#263238;" d="M558.632,412.725c-0.041,0.026-0.248-0.219-0.463-0.549
											c-0.215-0.329-0.357-0.618-0.316-0.644c0.04-0.027,0.248,0.219,0.463,0.548
											C558.531,412.41,558.672,412.698,558.632,412.725z"/>
									</g>
								</g>
							</g>
						</g>
					</g>
					<g>
						<g>
							<g>
								<g>
									<g>
										<path style="fill:#263238;" d="M559.794,412.091c-0.032,0.036-0.262-0.113-0.514-0.333
											c-0.252-0.22-0.43-0.429-0.398-0.465c0.032-0.036,0.262,0.113,0.513,0.333
											C559.647,411.847,559.826,412.055,559.794,412.091z"/>
									</g>
								</g>
							</g>
						</g>
					</g>
					<g>
						<g>
							<g>
								<g>
									<g>
										<path style="fill:#263238;" d="M560.516,410.718c0.001,0.048-0.336,0.096-0.753,0.106c-0.417,0.01-0.756-0.021-0.757-0.07
											c-0.001-0.048,0.336-0.096,0.753-0.106C560.176,410.639,560.515,410.67,560.516,410.718z"/>
									</g>
								</g>
							</g>
						</g>
					</g>
					<g>
						<g>
							<g>
								<g>
									<g>
										<path style="fill:#263238;" d="M560.758,409.753c0.017,0.043-0.349,0.214-0.838,0.255c-0.489,0.045-0.879-0.06-0.87-0.105
											c0.008-0.05,0.39-0.027,0.855-0.07C560.369,409.795,560.742,409.705,560.758,409.753z"/>
									</g>
								</g>
							</g>
						</g>
					</g>
					<g>
						<g>
							<g>
								<g>
									<g>
										<path style="fill:#263238;" d="M558.126,411.471c0.001,0.02-0.354,0.068-0.929,0.006
											c-0.286-0.031-0.625-0.094-0.991-0.205c-0.182-0.062-0.372-0.108-0.569-0.226c-0.093-0.06-0.196-0.145-0.233-0.285
											c-0.04-0.139,0.032-0.296,0.136-0.373c0.882-0.471,1.777,0.017,2.112,0.471c0.185,0.232,0.27,0.459,0.311,0.616
											c0.039,0.159,0.038,0.249,0.027,0.251c-0.032,0.012-0.067-0.365-0.433-0.787c-0.18-0.207-0.452-0.407-0.8-0.505
											c-0.329-0.093-0.796-0.113-1.105,0.089c-0.146,0.111-0.087,0.284,0.079,0.379c0.154,0.097,0.352,0.154,0.525,0.216
											c0.353,0.116,0.681,0.191,0.959,0.237C557.771,411.446,558.125,411.442,558.126,411.471z"/>
									</g>
								</g>
							</g>
						</g>
					</g>
					<g>
						<g>
							<g>
								<g>
									<g>
										<path style="fill:#263238;" d="M557.886,411.52c-0.013,0.01-0.153-0.225-0.115-0.643c0.02-0.205,0.092-0.449,0.245-0.682
											c0.161-0.208,0.369-0.495,0.767-0.483c0.216,0.025,0.324,0.269,0.292,0.425c-0.015,0.163-0.086,0.303-0.153,0.417
											c-0.135,0.234-0.289,0.423-0.431,0.567c-0.288,0.288-0.516,0.4-0.527,0.383c-0.016-0.022,0.183-0.169,0.435-0.466
											c0.125-0.149,0.261-0.337,0.382-0.562c0.125-0.198,0.208-0.551-0.026-0.591c-0.233-0.019-0.467,0.215-0.607,0.402
											c-0.143,0.203-0.222,0.42-0.255,0.607C557.827,411.272,557.916,411.512,557.886,411.52z"/>
									</g>
								</g>
							</g>
						</g>
					</g>
					<g>
						<g>
							<g>
								<g>
									<g>
										<path style="fill:#263238;" d="M573.511,410.348c-0.003,0.033-0.414-0.034-1.067,0.051
											c-0.646,0.08-1.542,0.357-2.317,0.99c-0.774,0.634-1.223,1.458-1.429,2.075c-0.213,0.622-0.229,1.039-0.261,1.035
											c-0.011-0.001-0.017-0.104-0.004-0.292c0.013-0.187,0.054-0.457,0.148-0.781c0.181-0.643,0.629-1.512,1.436-2.173
											c0.807-0.66,1.747-0.927,2.414-0.977c0.336-0.028,0.609-0.015,0.795,0.01C573.412,410.31,573.512,410.337,573.511,410.348
											z"/>
									</g>
								</g>
							</g>
						</g>
					</g>
					<g>
						<g>
							<g>
								<g>
									<g>
										<path style="fill:#263238;" d="M571.937,404.354c0.048-0.001,0.121,1.327,0.163,2.966c0.042,1.64,0.036,2.97-0.012,2.971
											c-0.048,0.001-0.121-1.327-0.163-2.966C571.883,405.685,571.888,404.355,571.937,404.354z"/>
									</g>
								</g>
							</g>
						</g>
					</g>
					<g>
						<g>
							<g>
								<g>
									<g>
										<path style="fill:#263238;" d="M566.58,413.196c0.007,0.045-0.933,0.212-2.106,0.236c-1.174,0.028-2.12-0.097-2.115-0.142
											c0.004-0.051,0.948-0.005,2.111-0.033C565.633,413.233,566.574,413.145,566.58,413.196z"/>
									</g>
								</g>
							</g>
						</g>
					</g>
					<g>
						<g>
							<g>
								<g>
									<g>
										<path style="fill:#263238;" d="M569.412,413.155c0.036,0.035-0.075,0.201-0.168,0.419
											c-0.097,0.217-0.144,0.41-0.194,0.408c-0.047,0-0.077-0.227,0.033-0.478C569.192,413.253,569.38,413.121,569.412,413.155z
											"/>
									</g>
								</g>
							</g>
						</g>
					</g>
					<g>
						<g>
							<g>
								<g>
									<g>
										<path style="fill:#263238;" d="M570.462,411.814c0.035,0.034-0.056,0.185-0.204,0.339
											c-0.148,0.153-0.295,0.251-0.33,0.217c-0.035-0.033,0.056-0.185,0.204-0.339
											C570.279,411.878,570.427,411.78,570.462,411.814z"/>
									</g>
								</g>
							</g>
						</g>
					</g>
					<g>
						<g>
							<g>
								<g>
									<g>
										<path style="fill:#263238;" d="M571.982,411.188c-0.01,0.049-0.202,0.05-0.413,0.127c-0.213,0.072-0.363,0.192-0.401,0.16
											c-0.039-0.026,0.08-0.233,0.343-0.325C571.773,411.056,571.995,411.143,571.982,411.188z"/>
									</g>
								</g>
							</g>
						</g>
					</g>
					<g>
						<g>
							<g>
								<g>
									<g>
										<path style="fill:#263238;" d="M573.065,410.887c0.018,0.045-0.064,0.12-0.183,0.168
											c-0.119,0.048-0.231,0.051-0.249,0.006c-0.018-0.045,0.064-0.12,0.183-0.168
											C572.935,410.845,573.047,410.843,573.065,410.887z"/>
									</g>
								</g>
							</g>
						</g>
					</g>
				</g>
			</g>
			<g>
				<g>
					<polygon style="fill:#455A64;" points="621.443,409.343 592.873,258.04 553.157,264.089 555.98,407.912 578.48,408.384 
						574.743,282.914 600.051,409.343 					"/>
				</g>
			</g>
			<g>
				<g>
					<g>
						<g>
							<g>
								<path style="fill:#263238;" d="M597.263,272.513l-45.397-1.695l1.291-41.427l-5.951,6.784l-12.133-10.506l13.35-18.194
									c3.464-4.682,8.683-7.762,14.454-8.549c1.695-0.231,2.982-0.343,3.819-0.448c4.937,1.52,9.874,1.517,14.811-0.009l0,0
									c2.289,0.097,4.268,0.501,6.132,1.175c3.838,1.388,7.046,3.491,9.785,6.335l0.001-0.003l14.893,20.133l-12.732,11.015
									l-7.252-6.379L597.263,272.513z"/>
							</g>
						</g>
					</g>
					<g>
						<g>
							<g>
								<path style="fill:#455A64;" d="M553.835,213.753c0.144,0.005,0.003,6.897-0.315,15.39
									c-0.318,8.496-0.691,15.377-0.835,15.372c-0.144-0.005-0.003-6.895,0.315-15.391
									C553.317,220.63,553.691,213.747,553.835,213.753z"/>
							</g>
						</g>
					</g>
					<g>
						<g>
							<g>
								<path style="fill:#455A64;" d="M590.722,216.47c0.143-0.014,0.646,3.971,1.122,8.9c0.477,4.93,0.747,8.937,0.604,8.951
									c-0.143,0.014-0.645-3.97-1.122-8.9C590.849,220.492,590.579,216.484,590.722,216.47z"/>
							</g>
						</g>
					</g>
					<g>
						<g>
							<g>
								<path style="fill:#455A64;" d="M568.498,198.934c0.089,0.113-0.255,0.53-0.767,0.931c-0.512,0.401-0.999,0.634-1.088,0.521
									c-0.089-0.113,0.255-0.53,0.767-0.931C567.922,199.054,568.409,198.821,568.498,198.934z"/>
							</g>
						</g>
					</g>
					<g>
						<g>
							<g>
								<path style="fill:#455A64;" d="M570.563,199.382c0.128,0.071,0.032,0.484-0.101,0.964c-0.138,0.48-0.273,0.881-0.419,0.874
									c-0.141-0.004-0.238-0.471-0.082-1.016C570.113,199.659,570.44,199.311,570.563,199.382z"/>
							</g>
						</g>
					</g>
					<g>
						<g>
							<g>
								<path style="fill:#455A64;" d="M572.914,199.675c0.144-0.007,0.279,0.382,0.303,0.87c0.024,0.487-0.073,0.888-0.217,0.895
									c-0.144,0.007-0.279-0.382-0.303-0.87C572.674,200.083,572.771,199.682,572.914,199.675z"/>
							</g>
						</g>
					</g>
					<g>
						<g>
							<g>
								<path style="fill:#455A64;" d="M575.931,199.455c0.146-0.002,0.269,0.418,0.406,0.916c0.132,0.5,0.237,0.925,0.109,0.996
									c-0.122,0.071-0.46-0.292-0.612-0.861C575.68,199.938,575.79,199.454,575.931,199.455z"/>
							</g>
						</g>
					</g>
					<g>
						<g>
							<g>
								<path style="fill:#455A64;" d="M579.303,199.092c0.138-0.05,0.371,0.252,0.641,0.605c0.265,0.356,0.492,0.664,0.406,0.782
									c-0.08,0.116-0.502-0.044-0.821-0.469C579.207,199.587,579.169,199.137,579.303,199.092z"/>
							</g>
						</g>
					</g>
					<g>
						<g>
							<g>
								<path style="fill:#455A64;" d="M581.074,198.582c0.078-0.121,0.422-0.036,0.766,0.188c0.345,0.224,0.561,0.504,0.482,0.624
									c-0.078,0.12-0.421,0.036-0.766-0.188C581.212,198.982,580.996,198.703,581.074,198.582z"/>
							</g>
						</g>
					</g>
					<g>
						<g>
							<g>
								<path style="fill:#FAFAFA;" d="M591.674,226.312c0,0.144-8.511,0.266-19.008,0.273c-10.501,0.007-19.01-0.104-19.011-0.248
									s8.51-0.266,19.01-0.273C583.162,226.057,591.674,226.168,591.674,226.312z"/>
							</g>
						</g>
					</g>
					<g>
						<g>
							<g>
								<path style="fill:#FAFAFA;" d="M592.001,229.123c0,0.144-8.511,0.266-19.008,0.273c-10.501,0.007-19.01-0.104-19.011-0.248
									c0-0.144,8.509-0.266,19.01-0.273C583.489,228.868,592.001,228.979,592.001,229.123z"/>
							</g>
						</g>
					</g>
					<g>
						<g>
							<g>
								<path style="fill:#FAFAFA;" d="M592.328,231.934c0.001,0.144-8.744,0.338-19.531,0.433
									c-10.79,0.096-19.536,0.056-19.537-0.087c-0.001-0.144,8.742-0.338,19.533-0.433
									C583.579,231.752,592.326,231.791,592.328,231.934z"/>
							</g>
						</g>
					</g>
					<g>
						<g>
							<g>
								<path style="fill:#FAFAFA;" d="M604.664,215.484c0.048,0.05-0.567,0.74-1.628,1.789c-1.061,1.049-2.575,2.449-4.313,3.919
									c-1.74,1.469-3.374,2.728-4.585,3.599c-1.211,0.872-1.994,1.363-2.035,1.307c-0.044-0.06,0.661-0.655,1.81-1.599
									c1.294-1.072,2.804-2.323,4.473-3.705c1.641-1.414,3.126-2.695,4.399-3.791
									C603.908,216.026,604.613,215.431,604.664,215.484z"/>
							</g>
						</g>
					</g>
					<g>
						<g>
							<g>
								<path style="fill:#FAFAFA;" d="M606.965,217.999c0.046,0.052-0.682,0.786-1.926,1.898c-1.243,1.113-3.009,2.597-5.027,4.15
									c-2.02,1.552-3.908,2.878-5.302,3.794c-1.395,0.916-2.29,1.432-2.329,1.374c-0.041-0.062,0.781-0.685,2.118-1.676
									c1.337-0.991,3.184-2.358,5.196-3.905c2.01-1.547,3.806-2.981,5.107-4.019C606.103,218.579,606.916,217.943,606.965,217.999
									z"/>
							</g>
						</g>
					</g>
					<g>
						<g>
							<g>
								<path style="fill:#FAFAFA;" d="M608.135,220.375c0.093,0.109-2.95,2.863-6.797,6.151c-3.848,3.288-7.042,5.864-7.135,5.755
									c-0.093-0.109,2.949-2.863,6.797-6.151C604.846,222.842,608.041,220.266,608.135,220.375z"/>
							</g>
						</g>
					</g>
					<g>
						<g>
							<g>
								<path style="fill:#FAFAFA;" d="M553.299,227.189c-0.034,0.056-0.813-0.335-1.933-1.178c-1.124-0.837-2.543-2.16-3.998-3.704
									c-1.458-1.541-2.75-2.958-3.669-4c-0.918-1.043-1.46-1.712-1.408-1.761c0.052-0.049,0.689,0.531,1.676,1.509
									c0.987,0.977,2.324,2.355,3.779,3.894c1.451,1.539,2.805,2.879,3.852,3.776
									C552.641,226.627,553.342,227.123,553.299,227.189z"/>
							</g>
						</g>
					</g>
					<g>
						<g>
							<g>
								<path style="fill:#FAFAFA;" d="M552.019,230.618c-0.045,0.053-0.799-0.495-1.955-1.458
									c-1.156-0.962-2.709-2.347-4.348-3.955c-1.638-1.61-3.051-3.137-4.034-4.276c-0.984-1.139-1.545-1.883-1.493-1.928
									c0.056-0.049,0.714,0.608,1.764,1.679c1.049,1.072,2.497,2.551,4.128,4.154c1.631,1.601,3.137,3.022,4.227,4.051
									C551.398,229.914,552.067,230.561,552.019,230.618z"/>
							</g>
						</g>
					</g>
					<g>
						<g>
							<g>
								<path style="fill:#FAFAFA;" d="M550.618,233.064c-0.056,0.05-0.731-0.611-1.814-1.683c-1.083-1.072-2.582-2.546-4.282-4.127
									c-1.701-1.581-3.281-2.969-4.428-3.971c-1.147-1.002-1.856-1.627-1.81-1.686c0.042-0.055,0.832,0.469,2.044,1.402
									c1.212,0.932,2.839,2.285,4.549,3.874c1.709,1.59,3.176,3.114,4.194,4.255C550.09,232.269,550.669,233.018,550.618,233.064z
									"/>
							</g>
						</g>
					</g>
				</g>
				<g>
					<g>
						<g>
							<path style="fill:#455A64;" d="M597.167,270.596c-0.004,0.144-10.091,0.008-22.529-0.304
								c-12.442-0.312-22.521-0.681-22.518-0.825c0.004-0.144,10.089-0.008,22.531,0.304
								C587.089,270.083,597.171,270.452,597.167,270.596z"/>
						</g>
					</g>
				</g>
			</g>
		</g>
	</g>
</g>
<g id="Plant">
	<g>
		<g>
			<g>
				<g>
					<path style="fill:#E8505B;" d="M698.502,357.022c2.631,1.201,4.536,3.69,5.464,6.43c0.928,2.74,0.96,5.714,0.581,8.581
						c-0.735,5.548-4,11.101-7.485,15.48c-4.605-4.174-5.548-11.322-5.799-14.978C690.867,366.756,693.661,356.071,698.502,357.022"
						/>
				</g>
			</g>
		</g>
		<g>
			<g>
				<g>
					<path style="fill:#E8505B;" d="M702.331,396.792c-0.69-3.157,0.682-6.579,3.135-8.683c2.453-2.104,5.84-2.95,9.056-2.643
						c1.487,0.142,3.089,0.606,3.918,1.849c0.776,1.161,0.656,2.76-0.014,3.985c-0.67,1.225-1.807,2.129-3.004,2.849
						C711.318,396.619,706.892,398.255,702.331,396.792"/>
				</g>
			</g>
		</g>
		<g>
			<g>
				<g>
					<g>
						<path style="fill:#263238;" d="M696.006,413.727c-0.028-0.007,0.044-0.411,0.188-1.138c0.162-0.8,0.372-1.835,0.624-3.077
							c0.566-2.57,1.3-6.254,3.372-9.804c2.045-3.542,4.864-6.125,7.22-7.389c1.171-0.648,2.191-1.028,2.911-1.222
							c0.355-0.112,0.645-0.152,0.835-0.195c0.192-0.037,0.295-0.049,0.298-0.036c0.031,0.091-1.629,0.358-3.9,1.702
							c-2.276,1.304-5.001,3.863-7.013,7.344c-2.032,3.476-2.806,7.107-3.443,9.663c-0.308,1.288-0.558,2.333-0.75,3.049
							C696.157,413.341,696.033,413.733,696.006,413.727z"/>
					</g>
				</g>
			</g>
		</g>
		<g>
			<g>
				<g>
					<g>
						<path style="fill:#263238;" d="M697.093,365.347c0.014,0,0.03,0.172,0.048,0.5c0.015,0.371,0.034,0.846,0.058,1.435
							c0.043,1.246,0.083,3.05,0.112,5.278c0.061,4.458,0.058,10.617-0.099,17.418c-0.159,6.803-0.441,12.957-0.708,17.407
							c-0.133,2.225-0.255,4.025-0.356,5.267c-0.051,0.587-0.092,1.061-0.124,1.43c-0.033,0.327-0.057,0.498-0.071,0.497
							c-0.014-0.001-0.017-0.174-0.011-0.502c0.013-0.371,0.029-0.846,0.048-1.435c0.056-1.296,0.133-3.084,0.227-5.273
							c0.193-4.452,0.43-10.603,0.589-17.402c0.156-6.796,0.204-12.951,0.217-17.407c0.007-2.19,0.013-3.981,0.017-5.278
							c0.007-0.589,0.013-1.065,0.018-1.436C697.068,365.52,697.079,365.347,697.093,365.347z"/>
					</g>
				</g>
			</g>
		</g>
		<g>
			<g>
				<g>
					<path style="fill:#E8505B;" d="M694.167,400.024c-0.939-6.747-5.358-12.914-11.445-15.972c-1.55-0.779-3.584-1.307-4.892-0.167
						c-1.31,1.141-1.061,3.239-0.461,4.87c2.495,6.786,9.449,11.674,16.679,11.725"/>
				</g>
			</g>
		</g>
		<g>
			<g>
				<g>
					<g>
						<path style="fill:#263238;" d="M683.382,389.34c0.013-0.025,0.362,0.137,0.985,0.452c0.313,0.156,0.695,0.348,1.111,0.62
							c0.416,0.271,0.919,0.536,1.412,0.923c0.504,0.371,1.067,0.765,1.612,1.261c0.574,0.464,1.129,1.022,1.71,1.614
							c1.131,1.21,2.265,2.651,3.226,4.31c0.946,1.668,1.621,3.375,2.086,4.966c0.208,0.803,0.408,1.566,0.507,2.298
							c0.145,0.724,0.191,1.409,0.243,2.033c0.074,0.622,0.035,1.191,0.046,1.687c0.013,0.497-0.027,0.923-0.062,1.271
							c-0.064,0.696-0.113,1.077-0.141,1.075c-0.091-0.005,0.097-1.545-0.13-4.009c-0.07-0.614-0.131-1.288-0.288-1.999
							c-0.112-0.718-0.321-1.465-0.535-2.252c-0.477-1.559-1.15-3.229-2.078-4.868c-0.944-1.63-2.049-3.051-3.147-4.257
							c-0.565-0.589-1.103-1.148-1.659-1.616c-0.528-0.501-1.073-0.903-1.56-1.284C684.737,390.086,683.339,389.418,683.382,389.34z
							"/>
					</g>
				</g>
			</g>
		</g>
	</g>
</g>
<g id="Speech_Bubble">
	<g>
		<g>
			<g>
				<path style="fill:#E8505B;" d="M532.755,168.169c-1.19-1.089-4.091-1.112-5.353,0.817c-1.227-2.038-4.225-2.035-5.436-0.927
					c-1.563,1.43-1.754,3.803-0.662,5.521c1.501,2.363,4.362,3.381,6.137,5.512c1.775-2.131,4.492-3.041,5.993-5.404
					C534.526,171.97,534.318,169.599,532.755,168.169z"/>
			</g>
		</g>
		<g>
			<g>
				<g>
					<path style="fill:#263238;" d="M546.961,189.21c0.011,0.008-0.211-0.022-0.65-0.087c-0.476-0.071-1.127-0.168-1.958-0.291
						c-1.779-0.272-4.322-0.661-7.528-1.151l0.104-0.023c-2.264,1.567-5.38,2.912-9.077,3.14c-3.667,0.251-7.901-0.706-11.552-3.262
						c-3.641-2.521-6.595-6.734-7.439-11.714c-0.893-4.939,0.402-10.543,3.903-14.742c3.566-4.276,8.95-6.646,14.073-6.565
						c5.148,0.004,9.856,2.295,12.953,5.537c3.178,3.231,4.694,7.351,5.022,11.011c0.345,3.703-0.554,6.965-1.734,9.397l0.001-0.118
						c1.242,2.822,2.221,5.045,2.904,6.598c0.315,0.723,0.561,1.289,0.742,1.704C546.891,189.027,546.971,189.218,546.961,189.21
						c-0.005-0.004-0.033-0.058-0.083-0.159c-0.059-0.122-0.129-0.267-0.215-0.448c-0.199-0.418-0.469-0.989-0.815-1.718
						c-0.711-1.512-1.729-3.678-3.021-6.426l-0.027-0.058l0.028-0.06c1.131-2.412,1.977-5.619,1.61-9.243
						c-0.351-3.581-1.857-7.592-4.971-10.728c-3.037-3.148-7.623-5.357-12.63-5.351c-4.983-0.067-10.204,2.241-13.671,6.395
						c-3.4,4.08-4.664,9.517-3.807,14.323c0.809,4.843,3.667,8.953,7.206,11.427c3.548,2.507,7.672,3.47,11.266,3.252
						c3.621-0.195,6.69-1.481,8.938-2.995l0.049-0.033l0.056,0.01c3.146,0.559,5.642,1.003,7.388,1.313
						c0.845,0.153,1.507,0.273,1.992,0.361c0.211,0.039,0.38,0.071,0.521,0.097C546.893,189.193,546.956,189.206,546.961,189.21z"/>
				</g>
			</g>
		</g>
	</g>
</g>
</svg>
