<?xml version="1.0" encoding="utf-8"?>
<!-- Generator: Adobe Illustrator 27.5.0, SVG Export Plug-In . SVG Version: 6.00 Build 0)  -->
<svg version="1.1" xmlns="http://www.w3.org/2000/svg" xmlns:xlink="http://www.w3.org/1999/xlink" x="0px" y="0px"
	 viewBox="0 0 3710 3710" style="enable-background:new 0 0 3710 3710;" xml:space="preserve">
<g id="Background">
	<g>
		<g>
			<rect style="fill:#FFFFFF;" width="3710" height="3710"/>
		</g>
	</g>
</g>
<g id="Illustration">
	<g>
		<path style="fill:#F4F7FA;" d="M3244.253,1624.188c-56.433-369.382-101.737-624.658-305.521-764.541
			c-343.734-235.948-727.615,147.086-1214.528-109.935c-239.737-126.547-248.723-273.268-451.761-292.743
			C913.226,422.514,619.05,851.204,593.555,887.968c-154.902,223.374-206.645,495.746-143.849,755.419
			c40.784,168.661,68.346,343.218,60.781,516.527c-13.164,301.627-5.589,583.173,287.134,763.056
			c261.366,160.615,590.302,302.272,904.11,327.082c213.261,16.863,452.422-10.425,657.965-65.946
			C3407.198,2901.143,3321.845,2132.068,3244.253,1624.188z"/>
		<g>
			<g>
				<g>
					<defs>
						<path id="SVGID_1_" d="M1821.988,2656.999c61.633-110.958,134.886-282.56,126.644-489.364
							c-10.81-271.219-152.293-364.686-276.041-790.077c-78.245-268.97-130.141-457.467-27.592-600.049
							c80.362-111.734,245.949-181.893,372.62-142.793c105.323,32.511,196.074,144.366,240.504,230.729
							c36.21,70.386,43.567,127.559,98.979,152.992c56.63,25.991,96.654-11.824,147.113,4.698
							c102.329,33.506,118.059,248.079,120.601,282.758c28.279,385.764-224.249,732.977-336.227,883.105
							C2196.003,2313.129,2046.889,2486.788,1821.988,2656.999z"/>
					</defs>
					
						<linearGradient id="SVGID_00000045611347374929487190000002041473652614323861_" gradientUnits="userSpaceOnUse" x1="2101.4756" y1="1306.558" x2="2043.8358" y2="2596.2471">
						<stop  offset="0.0036" style="stop-color:#E38DDD"/>
						<stop  offset="1" style="stop-color:#9571F6"/>
					</linearGradient>
					
						<use xlink:href="#SVGID_1_"  style="overflow:visible;fill:url(#SVGID_00000045611347374929487190000002041473652614323861_);"/>
					<clipPath id="SVGID_00000077309563234022436670000008722738570809450431_">
						<use xlink:href="#SVGID_1_"  style="overflow:visible;"/>
					</clipPath>
					<g style="opacity:0.5;clip-path:url(#SVGID_00000077309563234022436670000008722738570809450431_);">
						<path style="fill:#FFFFFF;" d="M1743.116,2756.25l-6.104-7.652c236.222-188.406,512.864-483.449,489.327-819.094
							c-8.652-123.418-56.623-238.891-123.016-398.71c-53.012-127.609-102.094-213.273-145.401-288.85
							c-56.66-98.885-101.412-176.989-127.952-302.675c-26.925-127.534-25.554-263.315,4.075-403.579l9.579,2.026
							c-29.346,138.918-30.717,273.341-4.075,399.528c26.223,124.182,70.637,201.696,126.868,299.835
							c43.449,75.829,92.696,161.776,145.943,289.945c64.241,154.649,114.981,276.785,123.746,401.799
							c11.213,159.897-44.636,326.161-165.998,494.168C1988.174,2536.419,1878.158,2648.543,1743.116,2756.25z"/>
						<path style="fill:#FFFFFF;" d="M2071.202,1440.4l-5.501-0.559c-0.996-0.102-100.904-10.821-217.108-72.75
							c-107.247-57.151-250.893-170.861-326.188-388.005l9.249-3.206c74.194,213.966,215.611,326.038,321.182,382.378
							c99.136,52.909,186.106,67.972,208.365,71.133c-4.157-259.99,75.502-449.443,143.344-562.883
							c74.127-123.943,150.734-186.599,151.501-187.216l6.156,7.611c-0.757,0.61-76.255,62.43-149.493,185.03
							c-67.566,113.102-146.979,302.576-141.619,562.934L2071.202,1440.4z"/>
						<path style="fill:#FFFFFF;" d="M2203.658,1789.478l-2.81-2.183c-1.259-0.982-127.79-98.995-273.856-172.419
							c-145.097-72.93-415.871-27.681-418.586-27.217l-1.654-9.651c11.228-1.923,276.677-46.249,424.639,28.124
							c134.767,67.744,252.972,156.276,272.618,171.25c100.512-70.335,189.464-248.105,257.391-514.544
							c51.965-203.814,73.561-389.202,73.773-391.054l9.726,1.119c-0.211,1.855-21.887,187.905-74.011,392.353
							c-70.172,275.23-159.089,450.933-264.287,522.227L2203.658,1789.478z"/>
						<path style="fill:#FFFFFF;" d="M2099.943,2378.347l2.056-9.535c30.709-142.57-19.929-265.743-150.502-366.101
							c-97.775-75.15-205.972-108.42-207.053-108.748l2.834-9.371c1.1,0.334,111.009,34.129,210.187,110.357
							c128.987,99.141,182.803,225.598,156.068,366.238c30.937-15.128,139.804-71.014,267.322-167.1
							c138.676-104.499,328.412-279.288,444.778-518.557l226.171-465.055l8.805,4.283l-226.171,465.055
							c-117.263,241.108-308.292,417.08-447.898,522.247c-151.218,113.914-276.475,171.662-277.723,172.235L2099.943,2378.347z"/>
					</g>
				</g>
			</g>
			<g>
				<g>
					<defs>
						<path id="SVGID_00000129914835386809788580000000028748762497859714_" d="M1602.943,2872.821
							c198.288,29.026,455.03,37.711,712.66-38.101c65.748-19.347,471.906-138.867,451.054-319.169
							c-7.345-63.512-61.471-80.928-72.776-165.672c-13.395-100.414,54.025-140.235,112.894-254.841
							c35.126-68.385,137.926-268.515,28.136-402.575c-65.608-80.11-204.162-133.004-316.668-122.765
							c-165.022,15.018-241.665,162.919-367.019,415.412c-111.121,223.826-99.021,284.261-181.851,444.039
							C1907.899,2547.73,1800.952,2707.884,1602.943,2872.821z"/>
					</defs>
					<use xlink:href="#SVGID_00000129914835386809788580000000028748762497859714_"  style="overflow:visible;fill:#D8DEE8;"/>
					<clipPath id="SVGID_00000027600276374903486100000015857630284048848546_">
						<use xlink:href="#SVGID_00000129914835386809788580000000028748762497859714_"  style="overflow:visible;"/>
					</clipPath>
					<g style="opacity:0.5;clip-path:url(#SVGID_00000027600276374903486100000015857630284048848546_);">
						<path style="fill:#FFFFFF;" d="M1258.181,2923.619c-170.382,0.003-342.852-36.373-514.281-108.608l3.802-9.023
							c209.106,88.116,419.744,122.494,626.043,102.176c738.201-72.692,1110.604-847.6,1207.157-1083.371
							c54.761-133.727,69.34-288.233,43.323-459.224l9.678-1.473c26.286,172.767,11.499,329.016-43.944,464.407
							c-79.499,194.125-223.453,474.672-457.784,708.781c-225.489,225.271-480.338,353.33-757.472,380.619
							C1336.007,2921.717,1297.138,2923.619,1258.181,2923.619z"/>
						<path style="fill:#FFFFFF;" d="M2390.962,2206.868l-2.271-3.772c-0.46-0.767-46.539-78.032-76.787-190.371
							c-27.95-103.817-47.787-259.785,16.451-413.257l9.03,3.778c-63.17,150.922-43.582,304.592-16.028,406.932
							c26.122,97.006,64.054,167.342,73.524,184.062c458.091-214.876,497.479-527.864,498.618-618.885
							c0.034-2.909,0.051-3.867,0.167-4.641l9.685,1.446l-4.843-0.723l4.853,0.631c-0.051,0.525-0.051,1.674-0.075,3.41
							c-1.159,92.733-41.246,412.197-508.334,629.532L2390.962,2206.868z"/>
						<path style="fill:#FFFFFF;" d="M2415.86,2578.337c-81.204,0-176.004-11.956-284.632-43.726l-2.51-0.737l-0.784-2.496
							c-0.812-2.581-80.307-262.104-9.208-589.909l71.648-330.332l9.569,2.073l-71.648,330.332
							c-66.819,308.063,0.314,555.122,8.239,582.417c250.69,72.75,426.373,38.876,529.732-2.455
							c112.298-44.906,165.793-108.049,166.322-108.679l7.526,6.261c-2.203,2.646-55.242,65.387-169.609,111.268
							C2610.095,2556.591,2525.344,2578.337,2415.86,2578.337z"/>
					</g>
				</g>
			</g>
		</g>
		<g>
			<g>
				<g>
					<g>
						<g>
							<g>
								
									<linearGradient id="SVGID_00000182517399835706901240000000453228019030548102_" gradientUnits="userSpaceOnUse" x1="997.614" y1="1886.8301" x2="2551.8735" y2="1886.8301" gradientTransform="matrix(0.9993 0.0372 -0.0372 0.9993 -147.3405 -31.9133)">
									<stop  offset="0" style="stop-color:#444B8C"/>
									<stop  offset="0.9964" style="stop-color:#26264F"/>
								</linearGradient>
								<path style="fill:url(#SVGID_00000182517399835706901240000000453228019030548102_);" d="M2086.651,704.199
									l205.743,2308.688c3.115,34.955-21.161,66.038-54.005,69.067l-1113.152,114.651c-66.599,3.544-101.84-32.576-104.831-68.885
									L822.94,730.719c-2.915-35.388,30.16-68.741,95.957-71.164l1102.941-16.211
									C2054.471,642.719,2083.611,670.099,2086.651,704.199z"/>
								
									<linearGradient id="SVGID_00000155853401516315436230000014886085387486248360_" gradientUnits="userSpaceOnUse" x1="1671.2833" y1="2259.3594" x2="1886.0015" y2="1663.332" gradientTransform="matrix(0.9993 0.0372 -0.0372 0.9993 -147.3405 -31.9133)">
									<stop  offset="0" style="stop-color:#444B8C"/>
									<stop  offset="0.9964" style="stop-color:#26264F"/>
								</linearGradient>
								<path style="fill:url(#SVGID_00000155853401516315436230000014886085387486248360_);" d="M2137.214,698.47l207.605,2322.506
									c3.144,35.168-21.26,66.439-54.291,69.488L1135.495,3197.06c-35.414,3.267-66.912-23.954-69.931-60.484L866.344,725.102
									c-2.94-35.599,23.467-65.265,58.62-65.937l1147.054-21.914C2104.835,636.625,2134.147,664.168,2137.214,698.47z"/>
							</g>
							
								<linearGradient id="SVGID_00000084489455048410894720000017410983733547606702_" gradientUnits="userSpaceOnUse" x1="1721.0472" y1="599.2965" x2="401.5997" y2="4172.7998" gradientTransform="matrix(0.9993 0.0372 -0.0372 0.9993 -147.3405 -31.9133)">
								<stop  offset="0" style="stop-color:#FFC444"/>
								<stop  offset="0.9964" style="stop-color:#F36F56"/>
							</linearGradient>
							<path style="fill:url(#SVGID_00000084489455048410894720000017410983733547606702_);" d="M1535.434,718.104
								c1.043,12.108-7.646,22.132-19.415,22.388c-11.778,0.257-22.176-9.364-23.218-21.485
								c-1.042-12.121,7.666-22.143,19.442-22.384C1524.012,696.383,1534.391,705.999,1535.434,718.104z"/>
						</g>
						<g>
							<defs>
								<path id="SVGID_00000127024098131695175650000018445475337286824123_" d="M2044.443,761.247L974.469,784.844
									c-27.837,0.614-48.401,23.934-45.886,52.081l201.679,2256.348c2.484,27.784,26.8,48.128,54.266,45.449l1055.972-102.99
									c25.597-2.496,44.45-26.215,42.146-52.985L2095.588,809.296C2093.255,782.189,2070.374,760.675,2044.443,761.247z"/>
							</defs>
							<clipPath id="SVGID_00000023960439053351059140000009824724838806592640_">
								<use xlink:href="#SVGID_00000127024098131695175650000018445475337286824123_"  style="overflow:visible;"/>
							</clipPath>
							<polygon style="clip-path:url(#SVGID_00000023960439053351059140000009824724838806592640_);fill:#FFFFFF;" points="
								2151.579,1459.861 988.961,1512.414 958.525,1171.902 2123.353,1131.902 							"/>
							<g style="clip-path:url(#SVGID_00000023960439053351059140000009824724838806592640_);">
								<polygon style="fill:#D8DEE8;" points="2287.638,3040.764 1135.645,3153.488 973.282,1336.99 2137.036,1290.901 								"/>
								
									<linearGradient id="SVGID_00000076576969535277778000000006664001518185017483_" gradientUnits="userSpaceOnUse" x1="1034.1598" y1="192.5706" x2="2077.3782" y2="2050.8726" gradientTransform="matrix(1 0 0.0902 0.9985 -49.2091 1.1571)">
									<stop  offset="0" style="stop-color:#FF9085"/>
									<stop  offset="1" style="stop-color:#FB6FBB"/>
								</linearGradient>
								<polygon style="fill:url(#SVGID_00000076576969535277778000000006664001518185017483_);" points="2132.527,1238.502 
									968.419,1282.586 919.86,739.308 2087.497,715.288 								"/>
								<g>
									<polygon style="fill:#FFFFFF;" points="1994.182,987.172 1574.486,999.528 1570.755,956.926 1990.551,945.148 									"/>
									<polygon style="fill:#FFFFFF;" points="2001.121,1067.489 1581.618,1080.949 1577.888,1038.367 1997.492,1025.484 
																			"/>
								</g>
								<g>
									<defs>
										<polygon id="SVGID_00000032622198300345560280000016884490183239996315_" points="2287.638,3040.764 1135.645,3153.488 
											973.282,1336.99 2137.036,1290.901 										"/>
									</defs>
									<clipPath id="SVGID_00000073719098764340854170000006318990673902305722_">
										<use xlink:href="#SVGID_00000032622198300345560280000016884490183239996315_"  style="overflow:visible;"/>
									</clipPath>
									<g style="clip-path:url(#SVGID_00000073719098764340854170000006318990673902305722_);">
										<path style="fill:#FFFFFF;" d="M2354.968,3141.166c-9.6,0-19.019-4.648-24.738-13.239l-514.544-773.104l-513.911,37.495
											L988.36,3039.546c-7.146,14.756-24.898,20.921-39.652,13.781c-14.754-7.144-20.923-24.898-13.779-39.65l320.884-662.648
											c4.621-9.545,13.982-15.898,24.555-16.669l548.272-40.005c10.71-0.76,20.94,4.252,26.871,13.156l524.14,787.523
											c9.081,13.648,5.381,32.073-8.263,41.158C2366.331,3139.556,2360.619,3141.166,2354.968,3141.166z"/>
										<path style="fill:#FFFFFF;" d="M1651.503,3197.676c-15.22,0-28.177-11.639-29.534-27.087l-72.066-819.736
											L969.466,1244.232c-7.615-14.517-2.019-32.458,12.498-40.073c14.521-7.615,32.46-2.019,40.073,12.498l583.199,1111.887
											c1.823,3.475,2.94,7.277,3.282,11.189l72.586,825.659c1.436,16.328-10.638,30.732-26.969,32.168
											C1653.254,3197.635,1652.373,3197.676,1651.503,3197.676z"/>
										<path style="fill:#FFFFFF;" d="M1617.225,2798.933c-10.749,0-19.898-8.222-20.85-19.131
											c-1.004-11.53,7.526-21.689,19.054-22.695l367.234-32.018l-125.226-1442.764c-0.999-11.526,7.533-21.685,19.063-22.685
											c11.492-1.033,21.682,7.533,22.685,19.063l127.036,1463.628c0.999,11.523-7.53,21.679-19.053,22.685l-388.1,33.839
											C1618.451,2798.909,1617.836,2798.933,1617.225,2798.933z"/>
										<path style="fill:#FFFFFF;" d="M2251.09,2436.047c-3.131,0-6.261-1.197-8.648-3.588l-651.062-652.053
											c-27.425,8.911-129.448,41.959-231.117,73.541c-69.539,21.604-125.333,38.31-165.833,49.656
											c-24.192,6.78-43.193,11.714-56.476,14.671c-3.567,0.791-6.805,1.484-9.748,2.043
											c20.444,58.335,106.5,284.727,165.735,439.271c2.416,6.305-0.735,13.371-7.039,15.789
											c-6.304,2.401-13.373-0.74-15.786-7.039c-0.435-1.135-43.959-114.705-86.541-227.02
											c-25.016-65.98-44.817-118.63-58.856-156.484c-8.35-22.514-14.734-39.995-18.974-51.958
											c-2.276-6.425-4.021-11.496-5.146-14.988c-1.685-5.224-4.82-14.947,4.467-19.915c3.182-1.705,6.906-1.784,10.152-0.549
											c32.192-1.545,306.544-87.71,474.721-142.58c4.38-1.422,9.189-0.273,12.439,2.984l656.36,657.362
											c4.771,4.774,4.764,12.516-0.014,17.283C2257.341,2434.857,2254.214,2436.047,2251.09,2436.047z M1121.953,1901.758
											c0.037,0.051,0.075,0.102,0.111,0.153C1122.026,1901.861,1121.99,1901.809,1121.953,1901.758z M1121.944,1901.745
											c0,0.003,0.002,0.003,0.003,0.007C1121.946,1901.748,1121.944,1901.748,1121.944,1901.745z"/>
										<path style="fill:#FFFFFF;" d="M1594.716,1778.684c-6.268,0-11.603-4.791-12.162-11.155L1530.398,1173
											c-0.59-6.725,4.384-12.652,11.109-13.242c6.713-0.658,12.652,4.382,13.244,11.107l52.156,594.53
											c0.59,6.725-4.384,12.652-11.109,13.242C1595.434,1778.671,1595.074,1778.684,1594.716,1778.684z"/>
									</g>
									<g style="clip-path:url(#SVGID_00000073719098764340854170000006318990673902305722_);">
										
											<linearGradient id="SVGID_00000103948921330370536670000010627498342575701928_" gradientUnits="userSpaceOnUse" x1="1089.0328" y1="1040.697" x2="1912.7749" y2="3162.4536" gradientTransform="matrix(1 0 0.0902 0.9985 -49.2091 1.1571)">
											<stop  offset="0" style="stop-color:#AA80F9"/>
											<stop  offset="0.9964" style="stop-color:#6165D7"/>
										</linearGradient>
										<path style="fill:url(#SVGID_00000103948921330370536670000010627498342575701928_);" d="M2332.454,3084.342
											c-3.146,0-6.234-1.521-8.112-4.334l-21.685-32.448c-2.993-4.477-1.79-10.532,2.689-13.524
											c4.467-2.991,10.53-1.788,13.52,2.689l21.685,32.448c2.993,4.477,1.79,10.532-2.689,13.524
											C2336.201,3083.809,2334.316,3084.342,2332.454,3084.342z M2276.101,3000.016c-3.146,0-6.234-1.521-8.112-4.334
											l-34.672-51.878c-2.993-4.477-1.79-10.532,2.685-13.523c4.475-2.992,10.534-1.788,13.524,2.688l34.672,51.878
											c2.993,4.477,1.79,10.532-2.689,13.523C2279.849,2999.483,2277.963,3000.016,2276.101,3000.016z M2206.758,2896.26
											c-3.146,0-6.234-1.521-8.116-4.334l-34.668-51.878c-2.99-4.477-1.786-10.532,2.692-13.524
											c4.479-2.99,10.53-1.788,13.52,2.689l34.668,51.878c2.993,4.477,1.79,10.532-2.689,13.524
											C2210.501,2895.727,2208.62,2896.26,2206.758,2896.26z M2137.418,2792.504c-3.146,0-6.234-1.521-8.112-4.334
											l-34.672-51.878c-2.99-4.477-1.786-10.532,2.693-13.524c4.479-2.99,10.53-1.79,13.52,2.689l34.668,51.878
											c2.993,4.477,1.79,10.532-2.688,13.523C2141.162,2791.971,2139.281,2792.504,2137.418,2792.504z M2068.081,2688.749
											c-3.148,0-6.236-1.521-8.116-4.334l-34.67-51.88c-2.991-4.477-1.788-10.532,2.689-13.524
											c4.484-2.991,10.534-1.784,13.524,2.689l34.67,51.88c2.991,4.477,1.788,10.532-2.689,13.524
											C2071.824,2688.215,2069.941,2688.749,2068.081,2688.749z M1998.741,2584.99c-3.148,0-6.236-1.521-8.116-4.334
											l-34.67-51.878c-2.991-4.477-1.788-10.532,2.689-13.524c4.484-2.991,10.536-1.786,13.524,2.689l34.67,51.878
											c2.991,4.477,1.788,10.532-2.689,13.523C2002.485,2584.458,2000.602,2584.99,1998.741,2584.99z M1929.402,2481.235
											c-3.148,0-6.236-1.521-8.116-4.334l-34.67-51.878c-2.992-4.477-1.788-10.532,2.689-13.524
											c4.481-2.993,10.536-1.784,13.524,2.689l34.67,51.878c2.991,4.477,1.788,10.532-2.689,13.524
											C1933.145,2480.701,1931.262,2481.235,1929.402,2481.235z M1860.06,2377.479c-3.148,0-6.236-1.521-8.116-4.334
											l-26.095-39.049l-4.065,0.295c-5.398,0.402-10.043-3.645-10.433-9.013c-0.392-5.37,3.643-10.041,9.013-10.433l15.39-1.125
											l32.404,48.49c2.992,4.477,1.788,10.532-2.689,13.524C1863.804,2376.945,1861.921,2377.477,1860.06,2377.479z
											 M1573.286,2352.522l-6.137-11.699c-2.502-4.77-0.665-10.662,4.105-13.164c4.762-2.5,10.66-0.666,13.162,4.104l0.2,0.381
											l49.054-3.578c5.355-0.432,10.041,3.643,10.433,9.012c0.392,5.372-3.643,10.043-9.012,10.433L1573.286,2352.522z
											 M1696.602,2343.498c-5.063,0-9.34-3.911-9.713-9.039c-0.392-5.372,3.643-10.043,9.013-10.433l62.231-4.542
											c5.368-0.427,10.043,3.643,10.433,9.012c0.392,5.372-3.643,10.043-9.013,10.433l-62.231,4.542
											C1697.08,2343.49,1696.84,2343.498,1696.602,2343.498z M1546.808,2290.786c-3.508,0-6.899-1.9-8.641-5.223l-28.984-55.256
											c-2.502-4.768-0.663-10.662,4.105-13.162c4.76-2.502,10.66-0.665,13.162,4.105l28.984,55.256
											c2.502,4.768,0.663,10.662-4.105,13.162C1549.884,2290.426,1548.335,2290.786,1546.808,2290.786z M1488.841,2180.272
											c-3.508,0-6.899-1.9-8.641-5.223l-28.982-55.256c-2.502-4.768-0.663-10.662,4.105-13.162
											c4.76-2.502,10.662-0.665,13.162,4.105l28.982,55.256c2.502,4.768,0.663,10.662-4.105,13.162
											C1491.916,2179.912,1490.368,2180.272,1488.841,2180.272z M1430.875,2069.758c-3.508,0-6.899-1.9-8.641-5.223
											l-28.982-55.256c-2.502-4.768-0.663-10.662,4.105-13.162c4.76-2.5,10.66-0.665,13.162,4.105l28.982,55.256
											c2.502,4.768,0.663,10.662-4.105,13.162C1433.95,2069.398,1432.402,2069.758,1430.875,2069.758z M1372.909,1959.244
											c-3.507,0-6.899-1.9-8.641-5.223l-28.982-55.256c-2.502-4.768-0.663-10.662,4.105-13.162
											c4.759-2.5,10.662-0.665,13.162,4.105l28.982,55.256c2.502,4.768,0.663,10.662-4.105,13.162
											C1375.984,1958.884,1374.436,1959.244,1372.909,1959.244z M1314.943,1848.73c-3.509,0-6.899-1.9-8.641-5.223
											l-28.984-55.258c-2.502-4.768-0.663-10.662,4.105-13.162c4.764-2.498,10.662-0.665,13.162,4.105l28.984,55.258
											c2.502,4.768,0.663,10.662-4.105,13.162C1318.019,1848.37,1316.471,1848.73,1314.943,1848.73z M1256.978,1738.216
											c-3.507,0-6.899-1.9-8.641-5.223l-28.984-55.258c-2.502-4.768-0.663-10.662,4.106-13.162
											c4.766-2.5,10.66-0.665,13.162,4.105l28.984,55.258c2.502,4.768,0.663,10.661-4.105,13.162
											C1260.053,1737.856,1258.505,1738.216,1256.978,1738.216z M1199.012,1627.702c-3.508,0-6.899-1.9-8.641-5.223
											l-28.984-55.258c-2.502-4.768-0.663-10.661,4.106-13.162c4.76-2.498,10.658-0.665,13.162,4.105l28.984,55.258
											c2.502,4.768,0.663,10.662-4.105,13.162C1202.087,1627.342,1200.539,1627.702,1199.012,1627.702z M1141.046,1517.188
											c-3.51,0-6.899-1.9-8.641-5.223l-28.984-55.258c-2.502-4.768-0.663-10.662,4.105-13.162
											c4.764-2.5,10.66-0.667,13.162,4.106l28.984,55.258c2.502,4.768,0.663,10.662-4.105,13.162
											C1144.121,1516.828,1142.573,1517.188,1141.046,1517.188z M1083.079,1406.674c-3.509,0-6.899-1.9-8.641-5.223
											l-28.982-55.258c-2.502-4.768-0.663-10.662,4.105-13.162c4.762-2.5,10.66-0.665,13.162,4.105l28.982,55.258
											c2.502,4.768,0.663,10.661-4.105,13.162C1086.154,1406.314,1084.606,1406.674,1083.079,1406.674z M1044.515,1290.299
											c-4.936,0-9.169-3.732-9.687-8.748l-6.41-62.067c-0.552-5.356,3.34-10.146,8.697-10.7c5.351-0.541,10.146,3.34,10.7,8.697
											l6.409,62.067c0.552,5.357-3.34,10.148-8.696,10.7C1045.187,1290.282,1044.85,1290.299,1044.515,1290.299z
											 M1031.694,1166.166c-4.936,0-9.169-3.732-9.687-8.748l-6.411-62.068c-0.552-5.356,3.34-10.146,8.697-10.7
											c5.356-0.543,10.147,3.338,10.7,8.697l6.411,62.067c0.554,5.357-3.34,10.146-8.696,10.7
											C1032.366,1166.149,1032.029,1166.166,1031.694,1166.166z"/>
									</g>
								</g>
							</g>
						</g>
					</g>
					<g style="opacity:0.48;">
						<path style="fill:#FFFFFF;" d="M1859.689,2283.3c-111.975-391.222-438.448-352.102-536.083-705.614
							c-80.188-290.339,104.708-443.394-7.448-686.469c-52.75-114.321-145.16-191.622-240.989-244.448l-150.203,2.87
							c-35.155,0.673-61.56,30.338-58.622,65.937l199.219,2411.473c3.019,36.531,34.52,63.752,69.932,60.484l947.022-87.399
							c-60.554-76.818-118.011-170.832-157.888-283.756C1840.221,2577.348,1921.609,2499.644,1859.689,2283.3z"/>
					</g>
				</g>
				<g>
					<g>
						
							<linearGradient id="SVGID_00000016056232207349228610000017315140422281299607_" gradientUnits="userSpaceOnUse" x1="1565.4764" y1="1575.694" x2="1878.7456" y2="2382.5981">
							<stop  offset="0" style="stop-color:#FF9085"/>
							<stop  offset="1" style="stop-color:#FB6FBB"/>
						</linearGradient>
						<path style="fill:url(#SVGID_00000016056232207349228610000017315140422281299607_);" d="M1916.675,1688.628
							c0,132.925-186.22,375.483-270.495,478.447c-20.972,25.623-60.175,25.623-81.147,0
							c-84.275-102.965-270.495-345.523-270.495-478.447c0-171.798,139.27-311.069,311.069-311.069
							C1777.405,1377.559,1916.675,1516.83,1916.675,1688.628z"/>
						
							<ellipse transform="matrix(0.7071 -0.7071 0.7071 0.7071 -723.7693 1629.9227)" style="fill:#FFFFFF;" cx="1605.606" cy="1688.628" rx="173.488" ry="173.487"/>
						<g style="opacity:0.3;">
							
								<linearGradient id="SVGID_00000018202263951977538920000018358102918354292630_" gradientUnits="userSpaceOnUse" x1="1453.3059" y1="1619.2422" x2="1766.5757" y2="2426.1482">
								<stop  offset="0" style="stop-color:#FF9085"/>
								<stop  offset="1" style="stop-color:#FB6FBB"/>
							</linearGradient>
							<path style="fill:url(#SVGID_00000018202263951977538920000018358102918354292630_);" d="M1604.232,2039.356
								c19.736-129.969,105.561-171.569,90.83-294.291c-16.989-141.531-142.305-179.227-145.329-305.191
								c-0.487-20.279,2.272-39.835,7.476-58.56c-148.812,23.248-262.672,151.98-262.672,307.315
								c0,132.924,186.22,375.483,270.495,478.447c12.344,15.082,31.003,21.276,48.545,18.603
								C1598.495,2128.753,1598.038,2080.141,1604.232,2039.356z"/>
						</g>
					</g>
					
						<linearGradient id="SVGID_00000092455236714460391330000013529610923053676175_" gradientUnits="userSpaceOnUse" x1="1687.1403" y1="2194.657" x2="1483.6802" y2="2503.481">
						<stop  offset="0" style="stop-color:#FF9085"/>
						<stop  offset="1" style="stop-color:#FB6FBB"/>
					</linearGradient>
					
						<circle style="fill:url(#SVGID_00000092455236714460391330000013529610923053676175_);" cx="1605.606" cy="2318.415" r="63.581"/>
				</g>
			</g>
			<g>
				<g>
					<path style="fill:#FFFFFF;" d="M1191.179,917.834c0,0,0.051-0.445,0.18-0.479c0.065-0.017,0.138-0.252,0.235-0.277
						c0.15-0.033,0.321-0.177,0.519-0.22c0.723-0.149,1.794-0.423,3.193-0.712c2.528-0.511,6.029-1.182,10.457-1.812
						c4.438-0.667,9.768-1.225,15.939-1.687c6.16-0.357,13.149-0.626,20.821-0.366c7.669,0.293,16.051,0.853,24.9,2.312
						c1.109,0.169,2.226,0.339,3.35,0.512c1.123,0.191,2.244,0.436,3.379,0.657c2.27,0.468,4.569,0.942,6.893,1.421
						c4.595,1.218,9.372,2.297,14.088,3.936c2.362,0.798,4.798,1.49,7.16,2.429c2.371,0.939,4.758,1.883,7.16,2.834l1.806,0.727
						l1.763,0.825c1.177,0.558,2.358,1.116,3.541,1.676c2.35,1.156,4.796,2.206,7.062,3.554c2.305,1.309,4.618,2.622,6.938,3.939
						c1.18,0.642,2.278,1.387,3.388,2.124l3.334,2.223c4.549,2.889,8.661,6.258,12.864,9.595c2.16,1.627,3.995,3.495,5.973,5.272
						c1.929,1.807,3.917,3.593,5.773,5.454c1.771,1.919,3.538,3.833,5.299,5.741c1.747,1.925,3.552,3.83,5.057,5.853
						c6.433,7.924,12.022,16.147,16.668,24.314c1.128,2.053,2.246,4.087,3.354,6.102c0.549,1.013,1.096,2.021,1.64,3.024
						c0.541,1.004,0.954,2.013,1.431,3.014c1.838,4.004,3.642,7.948,5.333,11.805c2.851,7.685,5.781,15.059,7.568,21.815
						c0.987,3.382,1.962,6.641,2.807,9.734c0.698,3.077,1.359,5.994,1.981,8.732c0.609,2.751,1.179,5.324,1.706,7.702
						c0.443,2.364,0.761,4.519,1.091,6.478c1.253,7.84,1.968,12.312,1.968,12.312l-105.632,8.474c0,0,0.16-3.281,0.441-9.031
						c0.065-1.44,0.184-3.062,0.234-4.791c-0.019-1.698-0.038-3.535-0.059-5.499c-0.01-1.98-0.022-4.088-0.033-6.312
						c-0.152-2.155-0.311-4.422-0.478-6.789c-0.157-4.871-1.079-9.69-1.724-15.067c-0.535-2.552-1.086-5.176-1.648-7.86
						c-0.15-0.668-0.248-1.383-0.439-2.027c-0.192-0.646-0.384-1.296-0.577-1.949c-0.38-1.319-0.762-2.651-1.149-3.994
						c-1.608-5.346-3.693-10.596-6.181-15.708c-0.545-1.354-1.302-2.52-2.001-3.755c-0.699-1.245-1.401-2.494-2.105-3.746
						c-0.76-1.205-1.607-2.334-2.4-3.532c-0.832-1.158-1.539-2.464-2.5-3.511c-1.827-2.195-3.544-4.566-5.632-6.566l-1.496-1.587
						c-0.496-0.534-0.981-1.085-1.547-1.544c-1.089-0.981-2.176-1.96-3.259-2.935c-4.491-3.766-9.277-7.319-14.506-10.174
						c-2.514-1.578-5.275-2.752-7.881-4.118c-1.37-0.586-2.726-1.165-4.065-1.737c-0.675-0.283-1.335-0.593-2.015-0.856
						c-0.689-0.25-1.374-0.498-2.054-0.745c-5.401-2.096-10.872-3.561-16.002-4.81c-5.15-1.222-10.027-1.988-14.378-2.605
						c-4.349-0.516-8.2-0.894-11.311-1.029c-3.118-0.172-5.534-0.204-7.029-0.209c-0.368-0.002-0.694-0.004-0.974-0.006
						c-0.166-0.013-0.277,0.825-0.39,0.816c-0.061-0.004-0.067,0.834-0.13,0.837c-0.099,0.005-0.182,0.009-0.248,0.012
						c-0.133,0.006-0.2,0.009-0.2,0.009L1191.179,917.834z"/>
					<polygon style="fill:#FFFFFF;" points="1212.941,1007.267 1085.655,947.518 1208.408,870.803 					"/>
				</g>
				<polygon style="fill:#FFFFFF;" points="1433.735,1189.714 1108.263,1205.243 1105.948,1154.959 1433.735,1138.38 				"/>
			</g>
		</g>
		<g>
			<g>
				
					<linearGradient id="SVGID_00000140730239720868884720000007641129649626797989_" gradientUnits="userSpaceOnUse" x1="2910.8252" y1="1986.6349" x2="3169.8569" y2="1986.6349">
					<stop  offset="0" style="stop-color:#AA80F9"/>
					<stop  offset="0.9964" style="stop-color:#6165D7"/>
				</linearGradient>
				<path style="fill:url(#SVGID_00000140730239720868884720000007641129649626797989_);" d="M3074.774,2147.603l-31.602-56.149
					l38.453-21.645c10.928-6.151,19.045-16.635,22.27-28.759c3.221-12.116,1.38-25.243-5.05-36.011l-54.977-92.066
					c-12.867-21.543-40.242-29.097-62.343-17.225l-40.183,21.609l-30.517-56.747l40.187-21.609
					c52.531-28.236,117.607-10.252,148.175,40.938l54.973,92.062c15.286,25.593,19.663,56.794,12.002,85.608
					c-7.665,28.814-26.958,53.723-52.933,68.344L3074.774,2147.603z"/>
			</g>
			<g>
				
					<linearGradient id="SVGID_00000049915554843962666640000001280486028555281316_" gradientUnits="userSpaceOnUse" x1="2148.0969" y1="1454.48" x2="2020.3601" y2="1673.8871" gradientTransform="matrix(0.8338 0.552 -0.552 0.8338 1487.9567 -438.5239)">
					<stop  offset="0" style="stop-color:#AA80F9"/>
					<stop  offset="0.9964" style="stop-color:#6165D7"/>
				</linearGradient>
				<path style="fill:url(#SVGID_00000049915554843962666640000001280486028555281316_);" d="M2251.373,2156.961
					c-17.685,26.711-53.675,34.029-80.386,16.344l-12.091-8.005c-26.711-17.685-34.029-53.675-16.344-80.387l45.364-68.517
					c17.685-26.711,53.675-34.029,80.386-16.344l12.091,8.005c26.711,17.685,34.029,53.675,16.344,80.386L2251.373,2156.961z"/>
				
					<linearGradient id="SVGID_00000102527187354470761690000003846913042335309229_" gradientUnits="userSpaceOnUse" x1="2918.3911" y1="1584.0217" x2="2080.5366" y2="3023.1611" gradientTransform="matrix(0.9764 0.216 -0.216 0.9764 702.1158 -366.4409)">
					<stop  offset="0" style="stop-color:#AA80F9"/>
					<stop  offset="0.9964" style="stop-color:#6165D7"/>
				</linearGradient>
				<path style="fill:url(#SVGID_00000102527187354470761690000003846913042335309229_);" d="M2928.527,2942.914
					c-5.835,5.342-11.782,10.512-17.801,15.567c-118.16,98.612-276.838,144.739-435.357,109.167
					c-166.81-36.364-295.72-154.742-358.22-304.321c-63.838-150.02-61.217-331.229,4.376-504.392
					c65.858-173.9,177.16-310.217,292.625-399.77c19.003-14.51,38.122-27.754,57.338-39.643
					c98.636-61.395,198.993-87.605,294.774-66.511c114.383,25.409,206.194,114.787,274.457,244.796
					c66.903,129.907,110.305,300.455,96.648,485.906C3123.781,2668.385,3049.708,2833.783,2928.527,2942.914z"/>
				
					<linearGradient id="SVGID_00000037685593252828025880000006344835048537310902_" gradientUnits="userSpaceOnUse" x1="2744.4302" y1="1877.9557" x2="2098.7222" y2="2987.0544" gradientTransform="matrix(0.9764 0.216 -0.216 0.9764 702.1158 -366.4409)">
					<stop  offset="0" style="stop-color:#AA80F9"/>
					<stop  offset="0.9964" style="stop-color:#6165D7"/>
				</linearGradient>
				<path style="opacity:0.2;fill:url(#SVGID_00000037685593252828025880000006344835048537310902_);" d="M2910.726,2958.481
					c-118.16,98.612-276.838,144.739-435.357,109.167c-166.81-36.364-295.72-154.742-358.22-304.321
					c-63.838-150.02-61.217-331.229,4.376-504.392c65.858-173.9,177.16-310.217,292.625-399.77
					c19.003-14.51,38.122-27.754,57.338-39.643c-34.902,153.026-12.736,364.966,176.835,634.297
					C2792.778,2659.008,2875.992,2825.941,2910.726,2958.481z"/>
				<g>
					
						<linearGradient id="SVGID_00000106134766691592256200000017422967722594296228_" gradientUnits="userSpaceOnUse" x1="2697.1448" y1="1963.6284" x2="2245.3481" y2="2739.6563" gradientTransform="matrix(0.9764 0.216 -0.216 0.9764 702.1158 -366.4409)">
						<stop  offset="0" style="stop-color:#AA80F9"/>
						<stop  offset="0.9964" style="stop-color:#6165D7"/>
					</linearGradient>
					
						<circle style="opacity:0.3;fill:url(#SVGID_00000106134766691592256200000017422967722594296228_);" cx="2600.034" cy="2471.138" r="343.768"/>
					
						<linearGradient id="SVGID_00000036245204301076129670000004933873509428065445_" gradientUnits="userSpaceOnUse" x1="2657.0459" y1="2032.5044" x2="2283.6316" y2="2673.8987" gradientTransform="matrix(0.9764 0.216 -0.216 0.9764 702.1158 -366.4409)">
						<stop  offset="0" style="stop-color:#444B8C"/>
						<stop  offset="0.9964" style="stop-color:#26264F"/>
					</linearGradient>
					
						<circle style="fill:url(#SVGID_00000036245204301076129670000004933873509428065445_);" cx="2600.035" cy="2471.138" r="284.024"/>
					<g style="opacity:0.8;">
						<g>
							<path style="fill:#FFFFFF;" d="M2664.97,2589.448c-9.98,45.104-54.635,73.577-99.739,63.597l-18.295-4.048
								c-45.104-9.98-73.577-54.635-63.597-99.739l18.115-81.865c9.98-45.104,54.635-73.577,99.739-63.597l18.295,4.048
								c45.104,9.98,73.577,54.635,63.597,99.739L2664.97,2589.448z M2660.52,2501.929c7.129-32.217-13.209-64.113-45.426-71.242
								l-19.554-4.327c-32.217-7.129-64.113,13.209-71.242,45.427l-18.393,83.125c-7.129,32.217,13.209,64.113,45.426,71.242
								l19.554,4.327c32.217,7.129,64.113-13.209,71.242-45.427L2660.52,2501.929z"/>
						</g>
						<g>
							<path style="fill:#FFFFFF;" d="M2620.688,2377.803c-24.125-5.338-39.408-29.306-34.07-53.431
								c5.338-24.125,29.306-39.408,53.431-34.07s39.408,29.306,34.07,53.431
								C2668.781,2367.859,2644.813,2383.142,2620.688,2377.803z M2634.886,2313.636c-11.257-2.491-22.444,4.643-24.935,15.899
								c-2.491,11.257,4.643,22.444,15.899,24.935c11.257,2.491,22.444-4.643,24.935-15.899S2646.143,2316.126,2634.886,2313.636z"
								/>
						</g>
					</g>
				</g>
			</g>
			
				<linearGradient id="SVGID_00000141447782710836163090000011245325036689442432_" gradientUnits="userSpaceOnUse" x1="2684.2458" y1="2955.3203" x2="2758.0378" y2="2955.3203">
				<stop  offset="0" style="stop-color:#AA80F9"/>
				<stop  offset="0.9964" style="stop-color:#6165D7"/>
			</linearGradient>
			
				<circle style="opacity:0.3;fill:url(#SVGID_00000141447782710836163090000011245325036689442432_);" cx="2721.142" cy="2955.32" r="36.896"/>
			
				<linearGradient id="SVGID_00000181794755157384458840000012419206132988171150_" gradientUnits="userSpaceOnUse" x1="2695.8972" y1="2955.3203" x2="2746.3865" y2="2955.3203">
				<stop  offset="0" style="stop-color:#444B8C"/>
				<stop  offset="0.9964" style="stop-color:#26264F"/>
			</linearGradient>
			<circle style="fill:url(#SVGID_00000181794755157384458840000012419206132988171150_);" cx="2721.142" cy="2955.32" r="25.245"/>
		</g>
		<g>
			<g>
				
					<linearGradient id="SVGID_00000106148755629688615640000007039794685569373364_" gradientUnits="userSpaceOnUse" x1="2304.0427" y1="3049.7048" x2="2416.4692" y2="3049.7048" gradientTransform="matrix(-0.9989 0.0464 0.0464 0.9989 3112.0557 -58.4637)">
					<stop  offset="0" style="stop-color:#444B8C"/>
					<stop  offset="0.9964" style="stop-color:#26264F"/>
				</linearGradient>
				<path style="fill:url(#SVGID_00000106148755629688615640000007039794685569373364_);" d="M859.09,3041.045
					c-20.003,16.167-21.135,27.655-20.488,33.253c1.043,9.024,7.845,12.526,24.124,29.56c22.019,23.042,18.651,26.126,29.867,34.46
					c24.752,18.39,59.754,17.173,61.865,10.919c1.482-4.392-14.347-7.971-32.363-28.835c-16.624-19.252-22.251-38.333-23.755-43.93
					c-2.735-10.178-3.444-18.976-3.579-25.065L859.09,3041.045z"/>
				
					<linearGradient id="SVGID_00000106139611089989361860000012985940915088466096_" gradientUnits="userSpaceOnUse" x1="2391.4241" y1="2915.2451" x2="2334.95" y2="3018.5513" gradientTransform="matrix(-0.9989 0.0464 0.0464 0.9989 3112.0557 -58.4637)">
					<stop  offset="0" style="stop-color:#FFC444"/>
					<stop  offset="0.9964" style="stop-color:#F36F56"/>
				</linearGradient>
				<path style="fill:url(#SVGID_00000106139611089989361860000012985940915088466096_);" d="M926.082,2991.779l-39.39,68.64
					c-9.485,4.197-18.556,2.077-26.969-10.159l15.369-83.443L926.082,2991.779z"/>
				
					<linearGradient id="SVGID_00000050638277103711837950000013235514315769557935_" gradientUnits="userSpaceOnUse" x1="2180.7346" y1="3035.5234" x2="2379.5542" y2="2168.3289" gradientTransform="matrix(-0.9989 0.0464 0.0464 0.9989 3112.0557 -58.4637)">
					<stop  offset="0" style="stop-color:#AA80F9"/>
					<stop  offset="0.9964" style="stop-color:#6165D7"/>
				</linearGradient>
				<path style="fill:url(#SVGID_00000050638277103711837950000013235514315769557935_);" d="M973.828,2111.438
					c38.375,64.778,100.619,189.802,113.213,358.86c12.43,166.865-29.662,294.036-47.294,341.463
					c-33.036,88.863-90.49,182.172-123.864,226.646c-22.509-9.414-35.76-24.178-58.27-33.592
					c3.381-12.248,13.818-52.694,20.387-76.785c5.091-18.665,14.476-53.199,16.406-60.58c16.162-61.801,3.403-108.177,7.85-184.611
					c5.188-89.141,25.611-78.782,22.539-132.298c-4.587-79.909-49.867-98.566-101.851-214.237
					c-35.582-79.172-72.953-162.329-38.605-207.795C827.573,2071.286,959.142,2107.265,973.828,2111.438z"/>
				
					<linearGradient id="SVGID_00000154387860742249307610000018166843534705708697_" gradientUnits="userSpaceOnUse" x1="2433.6687" y1="3140.2588" x2="2588.3772" y2="3140.2588" gradientTransform="matrix(-1 0 0 1 3268.8992 0)">
					<stop  offset="0" style="stop-color:#444B8C"/>
					<stop  offset="0.9964" style="stop-color:#26264F"/>
				</linearGradient>
				<path style="fill:url(#SVGID_00000154387860742249307610000018166843534705708697_);" d="M696.148,3103.821
					c-11.999,7.631-19.24,25.769-13.774,37.189c5.374,11.227,19.071,7.679,52.34,17.905c35.635,10.952,42.685,22.017,68.954,21.993
					c10.613-0.013,29.854-1.836,31.461-8.975c1.129-5.016-7.039-10.011-33.933-28.081c-38.178-25.648-37.783-26.367-46.305-30.301
					C733.486,3103.668,711.989,3093.745,696.148,3103.821z"/>
				
					<linearGradient id="SVGID_00000163767581766456378900000000189294105022781832_" gradientUnits="userSpaceOnUse" x1="2517.8625" y1="3132.4026" x2="2577.4839" y2="3009.0005" gradientTransform="matrix(-1 0 0 1 3268.8992 0)">
					<stop  offset="0" style="stop-color:#FFC444"/>
					<stop  offset="0.9964" style="stop-color:#F36F56"/>
				</linearGradient>
				<path style="fill:url(#SVGID_00000163767581766456378900000000189294105022781832_);" d="M753.146,3049.46l-14.627,66.81
					c-2.043,2.99-22.87,10.136-37.46,0l5.377-66.81H753.146z"/>
				
					<linearGradient id="SVGID_00000041278267739153940400000018396186636836916640_" gradientUnits="userSpaceOnUse" x1="2183.4883" y1="3036.1548" x2="2382.3079" y2="2168.9602" gradientTransform="matrix(-0.9989 0.0464 0.0464 0.9989 3112.0557 -58.4637)">
					<stop  offset="0" style="stop-color:#AA80F9"/>
					<stop  offset="0.9964" style="stop-color:#6165D7"/>
				</linearGradient>
				<path style="opacity:0.3;fill:url(#SVGID_00000041278267739153940400000018396186636836916640_);" d="M784.34,2128.51
					c43.233-57.225,174.802-21.245,189.488-17.072c15.768,26.616,35.549,63.56,54.276,109.393
					c-46.629-9.17-66.868-0.845-76.299,10.213c-36.606,42.924,78.007,137.699,54.439,281.513
					c-9.218,56.247-33.275,81.562-28.873,150.257c3.275,51.122,19.155,76.998,30.133,114.424
					c6.587,22.457,11.689,50.07,11.931,83.441c-32.964,72.466-76.289,141.394-103.553,177.729
					c-22.509-9.414-35.76-24.177-58.27-33.59c3.381-12.248,13.818-52.696,20.387-76.787c5.091-18.665,14.476-53.199,16.406-60.58
					c16.162-61.801,3.403-108.177,7.85-184.611c5.188-89.141,25.611-78.782,22.539-132.298
					c-4.587-79.909-49.867-98.566-101.851-214.237C787.364,2257.133,749.992,2173.976,784.34,2128.51z"/>
				
					<linearGradient id="SVGID_00000008871042633539363090000014847521354094378392_" gradientUnits="userSpaceOnUse" x1="2426.6248" y1="2700.4495" x2="2777.8535" y2="2146.7473" gradientTransform="matrix(-1 0 0 1 3268.8992 0)">
					<stop  offset="0" style="stop-color:#AA80F9"/>
					<stop  offset="0.9964" style="stop-color:#6165D7"/>
				</linearGradient>
				<path style="fill:url(#SVGID_00000008871042633539363090000014847521354094378392_);" d="M871.074,2146.548
					c3.712,149.067-1.91,321.796-26.439,512.188c-19.969,154.999-49.008,294.844-80.996,417.536
					c-4.424,2.498-19.941,10.536-39.814,6.772c-14.072-2.664-23.488-9.951-27.677-13.656c3.491-25.063,7.029-62.987,4.132-108.815
					c-4.979-78.776-23.527-94.824-31.487-176.348c-6.981-71.489,0.375-129.891,3.94-156.972
					c10.975-83.352,25.873-85.067,26.169-134.984c0.456-76.867-34.689-104.392-54.01-177.628
					c-12.889-48.855-19.722-121.792,12.689-221.811C728.745,2110.735,799.909,2128.644,871.074,2146.548z"/>
				
					<linearGradient id="SVGID_00000031919281941583812900000010069589195634387840_" gradientUnits="userSpaceOnUse" x1="2162.7817" y1="1489.5302" x2="2276.897" y2="1894.2823" gradientTransform="matrix(-1 0 0 1 3268.8992 0)">
					<stop  offset="0" style="stop-color:#311944"/>
					<stop  offset="1" style="stop-color:#893976"/>
				</linearGradient>
				<path style="fill:url(#SVGID_00000031919281941583812900000010069589195634387840_);" d="M947.129,1551.773
					c26.134,14.676,62.435,38.99,96.27,77.737c78.036,89.364,126.297,236.414,76.141,284.526
					c-34.123,32.732-115.055,22.816-142.931-16.03c-20.504-28.572-5.745-63.665,1.336-113.543
					C985.564,1730.792,985.289,1652.958,947.129,1551.773z"/>
				
					<linearGradient id="SVGID_00000089567192127580840920000007697682305605129882_" gradientUnits="userSpaceOnUse" x1="2359.8684" y1="1434.8054" x2="2584.0088" y2="2229.802" gradientTransform="matrix(-1 0 0 1 3268.8992 0)">
					<stop  offset="0" style="stop-color:#311944"/>
					<stop  offset="1" style="stop-color:#893976"/>
				</linearGradient>
				<path style="fill:url(#SVGID_00000089567192127580840920000007697682305605129882_);" d="M644.098,2128.783
					c28.894-380.874,121.021-536.789,112.969-583.072c11.594-8.336,57.403-21.587,161.182-7.926
					c8.868,3.258,32.542,12.811,56.004,34.259c0,0,5.454,4.973,12.914,13.71c-72.905,13.767-147.17,55.281-173.903,114.094
					c-46.308,112.464,39.693,238.158,0,337.392c-20.859,52.148-54.23,98.369-94.067,141.582
					C673.648,2167.462,642.433,2150.736,644.098,2128.783z"/>
				
					<linearGradient id="SVGID_00000014600491983116046400000015226631838403384753_" gradientUnits="userSpaceOnUse" x1="2471.8684" y1="2729.1492" x2="2823.0974" y2="2175.4468" gradientTransform="matrix(-1 0 0 1 3268.8992 0)">
					<stop  offset="0" style="stop-color:#AA80F9"/>
					<stop  offset="0.9964" style="stop-color:#6165D7"/>
				</linearGradient>
				<path style="opacity:0.3;fill:url(#SVGID_00000014600491983116046400000015226631838403384753_);" d="M657.581,2092.831
					c20.832,5.242,41.665,10.484,62.496,15.726c-10.894,37.536-21.359,93.868-8.779,157.823
					c17.371,88.313,62.266,107.689,68.869,187.325c5.94,71.643-27.883,86.254-44.076,181.813
					c-16.594,97.927,8.521,143.982,13.774,225.886c3.595,56.053-2.24,129.387-36.345,218.635
					c-8.425-3.333-14.31-7.941-17.372-10.649c3.491-25.063,7.029-62.987,4.132-108.815c-4.979-78.776-23.527-94.824-31.487-176.348
					c-6.981-71.489,0.375-129.891,3.94-156.972c10.975-83.352,25.873-85.067,26.169-134.984
					c0.456-76.867-34.689-104.392-54.01-177.628C632.003,2265.786,625.17,2192.849,657.581,2092.831z"/>
				
					<linearGradient id="SVGID_00000119817466349498113810000006014367560518605991_" gradientUnits="userSpaceOnUse" x1="2231.0054" y1="1361.2142" x2="2455.1514" y2="2156.231" gradientTransform="matrix(-1 0 0 1 3268.8992 0)">
					<stop  offset="0" style="stop-color:#311944"/>
					<stop  offset="1" style="stop-color:#893976"/>
				</linearGradient>
				<path style="fill:url(#SVGID_00000119817466349498113810000006014367560518605991_);" d="M974.254,1572.045
					c0,0,27.613,25.127,43.713,62.04c24.256,55.612-1.866,103.354-9.702,194.172c-8.595,99.624,3.563,265.586,31.592,325.042
					c0.487,1.035,1.702,3.991,1.207,7.74c-7.577,57.464-402.785,44.442-396.966-32.257
					c28.894-380.874,121.021-536.789,112.969-583.071c11.594-8.337,57.403-21.588,161.182-7.927
					C927.118,1541.043,950.791,1550.597,974.254,1572.045z"/>
				<g>
					
						<linearGradient id="SVGID_00000074419010776073754400000007687795554808074146_" gradientUnits="userSpaceOnUse" x1="130.2917" y1="1882.015" x2="137.4492" y2="1691.3643" gradientTransform="matrix(0.917 0.3988 -0.3988 0.917 1461.4939 -184.8945)">
						<stop  offset="0" style="stop-color:#FFC444"/>
						<stop  offset="0.9964" style="stop-color:#F36F56"/>
					</linearGradient>
					<path style="fill:url(#SVGID_00000074419010776073754400000007687795554808074146_);" d="M856.78,1442.143
						c0,0-25.522,80.108-33.786,89.748c-8.265,9.64,33.174,34.837,64.94,23.476c29.171-10.432-0.023-54.893-0.023-54.893
						L856.78,1442.143z"/>
					<g>
						<path style="fill:#FFFFFF;" d="M957.535,1485.727c17.204-7.291,30.859-29.502,27.903-50.249
							c-2.545-17.851-16.711-28.384-25.19-34.692c-24.572-18.281-64.16-26.514-89.741-8.965
							c-15.158,10.401-17.614,48.814-18.398,55.521c-0.885,7.587,2.674,12.424,4.424,19.56c2.426,9.895,6.131,25.541,11.943,51.484
							c4.102-4.289,9.52-9.401,16.325-14.405c2.617-1.925,12.973-9.374,24.653-13.761
							C932.863,1481.426,941.227,1492.64,957.535,1485.727z"/>
						
							<linearGradient id="SVGID_00000157272062333750011940000008059529514069237905_" gradientUnits="userSpaceOnUse" x1="270.1091" y1="1728.6925" x2="265.9659" y2="2062.5007" gradientTransform="matrix(0.8962 0.4436 -0.4436 0.8962 1435.1813 -209.8398)">
							<stop  offset="0" style="stop-color:#FFC444"/>
							<stop  offset="0.9964" style="stop-color:#F36F56"/>
						</linearGradient>
						<path style="fill:url(#SVGID_00000157272062333750011940000008059529514069237905_);" d="M854.452,1491.282
							c0,0,0.878,38.417,36.642,56.118c32.021,15.848,76.586-50.737,65.374-76.83c-3.741-8.704-15.733-18.358-28.178-21.555
							c-7.35-1.888-11.013-0.499-22.963-3.816c-11.023-3.06-13.115-5.689-17.417-4.929c-5.383,0.952-12.353,6.885-18.018,30.611
							c-2.438-9.367-8.18-15.746-14.555-16.279c-1.017-0.084-3.972,0.132-6.427,1.625
							C840.022,1461.637,841.399,1475.909,854.452,1491.282z"/>
						<path style="fill:#FFFFFF;" d="M888.909,1435.322c0.845,1.972-6.916,4.894-11.803,12.554
							c-9.486,14.873-4.642,42.117,10.211,52.786c8.782,6.306,14.59,2.173,30.925,9.456c10.114,4.509,17.347,10.311,21.708,14.291
							c-4.843,19.528-19.049,33.576-34.708,34.843c-16.863,1.365-29.316-12.587-34.523-18.422
							c-3.484-3.904-14.661-16.381-14.55-33.19c0.117-17.514,12.076-21.191,8.621-35.082c-1.742-7.007-6.322-12.255-6.842-24.169
							c-0.141-3.236,0.064-5.91,0.261-7.672C871.053,1436.889,887.684,1432.469,888.909,1435.322z"/>
					</g>
				</g>
				
					<linearGradient id="SVGID_00000072980074786023460590000004428651917235461791_" gradientUnits="userSpaceOnUse" x1="2255.207" y1="1354.392" x2="2479.3533" y2="2149.4089" gradientTransform="matrix(-1 0 0 1 3268.8992 0)">
					<stop  offset="0" style="stop-color:#311944"/>
					<stop  offset="1" style="stop-color:#893976"/>
				</linearGradient>
				<path style="opacity:0.3;fill:url(#SVGID_00000072980074786023460590000004428651917235461791_);" d="M755.534,1792.478
					c43.128,15.142,100.355,57.689,104.193,112.207c5.896,83.734-118.802,129.677-102.189,188.347
					c4.531,15.997,18.853,30.426,112.208,64.119c37.775,13.634,72.868,24.753,104.728,33.953
					c-114.233,16.837-334.733-4.888-330.376-62.322c11.061-145.803,31.389-258.541,51.816-344.882
					C716.611,1783.087,736.731,1785.876,755.534,1792.478z"/>
				
					<linearGradient id="SVGID_00000055700419393183450730000009577876756633379001_" gradientUnits="userSpaceOnUse" x1="3193.583" y1="866.6404" x2="3357.8523" y2="1449.2827" gradientTransform="matrix(-0.9424 0.3345 0.3345 0.9424 3400.0366 -484.9011)">
					<stop  offset="0" style="stop-color:#311944"/>
					<stop  offset="1" style="stop-color:#893976"/>
				</linearGradient>
				<path style="fill:url(#SVGID_00000055700419393183450730000009577876756633379001_);" d="M891.316,1963.802
					c-70.152,71.218-170.304,93.653-247.304,58.024c-106.932-49.479-123.469-189.772-98.537-277.573
					c41.626-146.583,223.031-232.063,280.18-193.014c41.329,28.238,40.935,137.497-8.319,192.186
					c-44.274,49.158-112.277,36.74-130.771,86.82c-13.854,37.511,12.915,75.308,15.214,78.455
					c29.775,40.76,94.663,54.59,156.03,26.599C868.979,1944.798,880.147,1954.3,891.316,1963.802z"/>
				
					<linearGradient id="SVGID_00000118390007586394390390000015722609821851647661_" gradientUnits="userSpaceOnUse" x1="2280.2236" y1="1914.899" x2="2285.2917" y2="1779.9014" gradientTransform="matrix(-1 0 0 1 3268.8992 0)">
					<stop  offset="0" style="stop-color:#FFC444"/>
					<stop  offset="0.9964" style="stop-color:#F36F56"/>
				</linearGradient>
				<path style="fill:url(#SVGID_00000118390007586394390390000015722609821851647661_);" d="M1030.212,1841.062
					c-5.712-18.351-24.271-27.753-38.872-29.787c-14.292-1.991-37.842,1.257-47.218,19.941
					c-8.769,17.472-1.874,41.921,18.286,55.176c2.837-7.04,7.921-16.3,16.875-19.109c16.469-5.166,30.742,16.293,42.91,10.687
					C1031.891,1873.501,1034.404,1854.529,1030.212,1841.062z"/>
				<path style="fill:#FFFFFF;" d="M962.849,1952.295l-53.985,9.385c-10.458,1.818-19.436-7.523-17.204-17.901l19.64-91.325
					c1.422-6.607,7.092-11.443,13.839-11.804l64.634-3.458c10.667-0.57,18.484,9.891,14.913,19.958l-30.289,85.399
					C972.59,1947.644,968.176,1951.369,962.849,1952.295z"/>
				
					<linearGradient id="SVGID_00000102504125225505998650000002084052971239400099_" gradientUnits="userSpaceOnUse" x1="2348.2468" y1="1987.8031" x2="2352.5498" y2="1873.1887" gradientTransform="matrix(-1 0 0 1 3268.8992 0)">
					<stop  offset="0" style="stop-color:#FFC444"/>
					<stop  offset="0.9964" style="stop-color:#F36F56"/>
				</linearGradient>
				<path style="fill:url(#SVGID_00000102504125225505998650000002084052971239400099_);" d="M868.629,1944.501
					c4.431-31.799,17.835-40.123,22.687-42.487c8.135-3.964,12.144-0.885,40.544-1.336c25.37-0.402,31.382-3.005,34.591,1.336
					c6.076,8.22-6.413,29.823-20.565,42.487c-19.841,17.755-44.445,19.277-54.57,19.301L868.629,1944.501z"/>
			</g>
			<g>
				
					<linearGradient id="SVGID_00000038412088943894421860000012670197496952869565_" gradientUnits="userSpaceOnUse" x1="896.1818" y1="1791.5308" x2="922.1081" y2="1791.5308">
					<stop  offset="0" style="stop-color:#FFC444"/>
					<stop  offset="0.9964" style="stop-color:#F36F56"/>
				</linearGradient>
				<polygon style="fill:url(#SVGID_00000038412088943894421860000012670197496952869565_);" points="913.548,1828.572 
					896.182,1754.489 922.108,1754.489 				"/>
				
					<linearGradient id="SVGID_00000084494206441327729290000016396118775118298004_" gradientUnits="userSpaceOnUse" x1="858.1888" y1="1811.9447" x2="903.6524" y2="1811.9447">
					<stop  offset="0" style="stop-color:#FFC444"/>
					<stop  offset="0.9964" style="stop-color:#F36F56"/>
				</linearGradient>
				<polygon style="fill:url(#SVGID_00000084494206441327729290000016396118775118298004_);" points="903.652,1836.391 
					876.35,1787.498 858.189,1795.615 				"/>
			</g>
		</g>
		<g>
			<g>
				<g>
					
						<linearGradient id="SVGID_00000021085206328106831690000001028029642894418621_" gradientUnits="userSpaceOnUse" x1="2536.1099" y1="1225.6624" x2="2588.2617" y2="1175.9941" gradientTransform="matrix(0.9992 -0.0396 0.0396 0.9992 158.4824 22.5709)">
						<stop  offset="0" style="stop-color:#FF9085"/>
						<stop  offset="1" style="stop-color:#FB6FBB"/>
					</linearGradient>
					<path style="fill:url(#SVGID_00000021085206328106831690000001028029642894418621_);" d="M3082.345,1208.53
						c8.791,221.592-164.524,406.471-389.142,412.998c-226.893,6.593-419.777-170.957-428.73-396.63s169.55-410.656,396.605-413.147
						C2885.857,809.284,3073.555,986.938,3082.345,1208.53z"/>
					
						<linearGradient id="SVGID_00000108290050040131786330000002997098155979754162_" gradientUnits="userSpaceOnUse" x1="2376.0271" y1="904.2618" x2="2555.6316" y2="1681.3669" gradientTransform="matrix(0.9992 -0.0396 0.0396 0.9992 158.4824 22.5709)">
						<stop  offset="0" style="stop-color:#FF9085"/>
						<stop  offset="1" style="stop-color:#FB6FBB"/>
					</linearGradient>
					<path style="fill:url(#SVGID_00000108290050040131786330000002997098155979754162_);" d="M3073.896,1208.699
						c8.608,216.971-161.114,397.962-381.031,404.311c-222.097,6.412-410.869-167.405-419.632-388.287
						s165.93-401.973,388.183-404.454C2881.488,817.812,3065.289,991.728,3073.896,1208.699z"/>
					<path style="opacity:0.8;fill:#FFFFFF;" d="M3033.045,1209.517c7.721,194.631-144.612,356.843-341.812,362.355
						c-198.952,5.56-367.896-150.222-375.741-347.995c-7.846-197.773,148.48-360.065,347.556-362.47
						C2860.373,859.023,3025.324,1014.885,3033.045,1209.517z"/>
					<path style="opacity:0.5;fill:#FFFFFF;" d="M2728.403,1494.473c-23.402-43.568-18.73-65.322-42.134-230
						c-34.827-245.05-57.832-286.027-76.459-311.685c-19.023-26.203-52.759-62.97-114.563-94.506
						c-136.737,64.75-228.414,205.083-222.013,366.441c8.763,220.883,197.535,394.699,419.632,388.287
						c42.896-1.238,83.87-9.118,121.972-22.592C2780.059,1565.454,2749.68,1534.085,2728.403,1494.473z"/>
				</g>
			</g>
			<g>
				<g>
					<g>
						
							<linearGradient id="SVGID_00000078027961989625445020000014472430673090757008_" gradientUnits="userSpaceOnUse" x1="2682.252" y1="1196.3961" x2="2674.3354" y2="1373.5253">
							<stop  offset="0" style="stop-color:#FF9085"/>
							<stop  offset="1" style="stop-color:#FB6FBB"/>
						</linearGradient>
						<path style="fill:url(#SVGID_00000078027961989625445020000014472430673090757008_);" d="M2787.803,1174.566
							c-3.456-39.378-36.277-69.596-75.806-69.596c-25.221,0-50.443,0-75.664,0c-39.458,0-72.356,30.289-75.806,69.596
							c-5.932,67.571-11.864,132.942-17.795,202.783c87.624,0,175.246,0,262.866,0
							C2799.666,1307.508,2793.734,1242.137,2787.803,1174.566z"/>
						
							<linearGradient id="SVGID_00000036243989016480530450000011063369996589430667_" gradientUnits="userSpaceOnUse" x1="2672.2834" y1="1412.3419" x2="2669.947" y2="1464.6174">
							<stop  offset="0" style="stop-color:#FF9085"/>
							<stop  offset="1" style="stop-color:#FB6FBB"/>
						</linearGradient>
						<path style="fill:url(#SVGID_00000036243989016480530450000011063369996589430667_);" d="M2837.534,1414.509
							c0-12.808-10.383-23.191-23.191-23.191h-285.363c-12.808,0-23.19,10.383-23.19,23.191v23.458
							c0,12.808,10.383,23.191,23.19,23.191h285.363c12.808,0,23.191-10.383,23.191-23.191V1414.509z"/>
					</g>
					
						<linearGradient id="SVGID_00000059277927333663351310000001198930023534150076_" gradientUnits="userSpaceOnUse" x1="2674.0125" y1="998.9162" x2="2671.74" y2="1049.7588">
						<stop  offset="0" style="stop-color:#FF9085"/>
						<stop  offset="1" style="stop-color:#FB6FBB"/>
					</linearGradient>
					<path style="fill:url(#SVGID_00000059277927333663351310000001198930023534150076_);" d="M2687.376,1038.977
						c0,7.518-6.094,13.612-13.612,13.612h-0.712c-7.518,0-13.612-6.094-13.612-13.612v-53.093c0-7.518,6.094-13.612,13.612-13.612
						h0.712c7.518,0,13.612,6.094,13.612,13.612V1038.977z"/>
					<g>
						<g>
							
								<linearGradient id="SVGID_00000022542783262480647570000013842560414710729400_" gradientUnits="userSpaceOnUse" x1="3597.7468" y1="50.0028" x2="3595.437" y2="101.6831" gradientTransform="matrix(0.8734 -0.487 0.487 0.8734 -609.5838 2723.8667)">
								<stop  offset="0" style="stop-color:#FF9085"/>
								<stop  offset="1" style="stop-color:#FB6FBB"/>
							</linearGradient>
							<path style="fill:url(#SVGID_00000022542783262480647570000013842560414710729400_);" d="M2588.34,1044.884
								c3.661,6.566,1.306,14.857-5.261,18.518l0,0c-6.566,3.661-14.857,1.306-18.518-5.261l-26.514-47.557
								c-3.661-6.566-1.305-14.857,5.261-18.518l0,0c6.566-3.661,14.857-1.306,18.518,5.261L2588.34,1044.884z"/>
							
								<linearGradient id="SVGID_00000110429542387806990620000015288549236672545710_" gradientUnits="userSpaceOnUse" x1="5320.582" y1="-245.8447" x2="5318.2725" y2="-194.1678" gradientTransform="matrix(0.384 -0.9234 0.9234 0.384 667.4992 6102.4951)">
								<stop  offset="0" style="stop-color:#FF9085"/>
								<stop  offset="1" style="stop-color:#FB6FBB"/>
							</linearGradient>
							<path style="fill:url(#SVGID_00000110429542387806990620000015288549236672545710_);" d="M2526.402,1098.791
								c6.942,2.886,10.229,10.854,7.343,17.795l0,0c-2.886,6.942-10.854,10.229-17.795,7.342l-50.275-20.906
								c-6.942-2.886-10.229-10.854-7.343-17.795l0,0c2.886-6.942,10.854-10.229,17.795-7.342L2526.402,1098.791z"/>
						</g>
						<g>
							
								<linearGradient id="SVGID_00000119118757824247000990000004358765776869898926_" gradientUnits="userSpaceOnUse" x1="7501.2295" y1="2226.5498" x2="7498.9199" y2="2278.2302" gradientTransform="matrix(-0.8734 -0.487 -0.487 0.8734 10425.6807 2723.8667)">
								<stop  offset="0" style="stop-color:#FF9085"/>
								<stop  offset="1" style="stop-color:#FB6FBB"/>
							</linearGradient>
							<path style="fill:url(#SVGID_00000119118757824247000990000004358765776869898926_);" d="M2758.477,1044.884
								c-3.661,6.566-1.305,14.857,5.261,18.518l0,0c6.566,3.661,14.857,1.306,18.518-5.261l26.514-47.557
								c3.661-6.566,1.306-14.857-5.261-18.518l0,0c-6.566-3.661-14.857-1.306-18.518,5.261L2758.477,1044.884z"/>
							
								<linearGradient id="SVGID_00000047776765744455030480000008287675188603907238_" gradientUnits="userSpaceOnUse" x1="7036.5737" y1="3880.5789" x2="7034.2642" y2="3932.2559" gradientTransform="matrix(-0.384 -0.9234 -0.9234 0.384 9148.5977 6102.4951)">
								<stop  offset="0" style="stop-color:#FF9085"/>
								<stop  offset="1" style="stop-color:#FB6FBB"/>
							</linearGradient>
							<path style="fill:url(#SVGID_00000047776765744455030480000008287675188603907238_);" d="M2820.415,1098.791
								c-6.942,2.886-10.229,10.854-7.343,17.795l0,0c2.886,6.942,10.854,10.229,17.795,7.342l50.275-20.906
								c6.942-2.886,10.229-10.854,7.343-17.795l0,0c-2.886-6.942-10.854-10.229-17.795-7.342L2820.415,1098.791z"/>
						</g>
					</g>
				</g>
				<g>
					<path style="fill:#FFFFFF;" d="M2631.552,1288.163c0,6.122-2.202,10.946-6.608,14.47c-4.406,3.526-10.537,5.288-18.39,5.288
						c-7.234,0-13.634-1.36-19.199-4.081v-13.358c4.574,2.041,8.447,3.478,11.617,4.314c3.169,0.834,6.069,1.252,8.697,1.252
						c3.153,0,5.573-0.604,7.258-1.809c1.685-1.207,2.529-2.998,2.529-5.381c0-1.328-0.372-2.511-1.114-3.548
						c-0.743-1.035-1.831-2.032-3.27-2.991c-1.437-0.959-4.367-2.489-8.788-4.592c-4.145-1.947-7.251-3.818-9.323-5.611
						c-2.071-1.793-3.727-3.88-4.963-6.261c-1.236-2.381-1.855-5.164-1.855-8.348c0-5.998,2.034-10.714,6.1-14.145
						c4.065-3.432,9.685-5.149,16.859-5.149c3.524,0,6.887,0.418,10.086,1.253c3.201,0.834,6.548,2.01,10.041,3.524l-4.638,11.178
						c-3.617-1.484-6.608-2.52-8.974-3.108c-2.365-0.586-4.691-0.882-6.979-0.882c-2.722,0-4.809,0.635-6.261,1.902
						c-1.455,1.269-2.18,2.922-2.18,4.963c0,1.267,0.292,2.373,0.88,3.316c0.588,0.944,1.523,1.855,2.806,2.737
						c1.283,0.88,4.32,2.465,9.113,4.753c6.338,3.031,10.683,6.069,13.033,9.113
						C2630.376,1280.009,2631.552,1283.743,2631.552,1288.163z"/>
					<path style="fill:#FFFFFF;" d="M2705.387,1272.998c0,11.224-2.783,19.851-8.348,25.88s-13.543,9.044-23.932,9.044
						c-10.388,0-18.365-3.015-23.93-9.044s-8.348-14.686-8.348-25.972c0-11.286,2.79-19.904,8.37-25.857
						c5.582-5.952,13.581-8.929,24.001-8.929c10.419,0,18.389,3,23.908,8.998
						C2702.628,1253.119,2705.387,1261.744,2705.387,1272.998z M2655.901,1272.998c0,7.577,1.437,13.281,4.313,17.114
						c2.876,3.834,7.173,5.752,12.893,5.752c11.472,0,17.207-7.621,17.207-22.866c0-15.274-5.704-22.91-17.114-22.91
						c-5.721,0-10.033,1.925-12.94,5.774C2657.355,1259.71,2655.901,1265.423,2655.901,1272.998z"/>
					<path style="fill:#FFFFFF;" d="M2759.463,1288.163c0,6.122-2.202,10.946-6.608,14.47c-4.406,3.526-10.537,5.288-18.39,5.288
						c-7.234,0-13.634-1.36-19.199-4.081v-13.358c4.574,2.041,8.447,3.478,11.617,4.314c3.169,0.834,6.069,1.252,8.697,1.252
						c3.153,0,5.573-0.604,7.258-1.809c1.685-1.207,2.529-2.998,2.529-5.381c0-1.328-0.372-2.511-1.114-3.548
						c-0.743-1.035-1.832-2.032-3.27-2.991c-1.437-0.959-4.367-2.489-8.788-4.592c-4.145-1.947-7.251-3.818-9.323-5.611
						c-2.071-1.793-3.727-3.88-4.963-6.261c-1.236-2.381-1.855-5.164-1.855-8.348c0-5.998,2.034-10.714,6.1-14.145
						c4.065-3.432,9.685-5.149,16.859-5.149c3.524,0,6.887,0.418,10.086,1.253c3.201,0.834,6.548,2.01,10.041,3.524l-4.638,11.178
						c-3.617-1.484-6.608-2.52-8.974-3.108c-2.365-0.586-4.691-0.882-6.979-0.882c-2.722,0-4.809,0.635-6.261,1.902
						c-1.455,1.269-2.18,2.922-2.18,4.963c0,1.267,0.292,2.373,0.88,3.316c0.588,0.944,1.523,1.855,2.806,2.737
						c1.283,0.88,4.32,2.465,9.113,4.753c6.338,3.031,10.683,6.069,13.033,9.113
						C2758.288,1280.009,2759.463,1283.743,2759.463,1288.163z"/>
				</g>
			</g>
		</g>
	</g>
</g>
</svg>
