<?xml version="1.0" encoding="utf-8"?>
<!-- Generator: Adobe Illustrator 27.5.0, SVG Export Plug-In . SVG Version: 6.00 Build 0)  -->
<svg version="1.1" xmlns="http://www.w3.org/2000/svg" xmlns:xlink="http://www.w3.org/1999/xlink" x="0px" y="0px"
	 viewBox="0 0 500 500" style="enable-background:new 0 0 500 500;" xml:space="preserve">
<g id="BACKGROUND">
	<rect style="fill:#FFFFFF;" width="500" height="500"/>
</g>
<g id="OBJECTS">
	
		<text transform="matrix(1 0 0 1 60.3585 306.717)" style="fill:#FF5555; font-family:'OpenSans-ExtraboldItalic'; font-size:68.034px;">EMERGENCY</text>
	<g>
		<g>
			<g>
				<path style="fill:#FFFFFF;" d="M185.897,262.401c-5.414,0-9.818-4.404-9.818-9.818c0-4.739,6.841-14.199,8.212-16.047
					l1.606-2.165l1.606,2.165c1.372,1.848,8.213,11.308,8.213,16.047C195.716,257.997,191.311,262.401,185.897,262.401z"/>
				<path style="fill:#FF5555;" d="M178.079,252.583c0-4.318,7.819-14.855,7.819-14.855s7.818,10.537,7.818,14.855
					c0,4.318-3.5,7.819-7.818,7.819S178.079,256.901,178.079,252.583z"/>
				<path style="fill:none;stroke:#FFFFFF;stroke-linecap:round;stroke-linejoin:round;stroke-miterlimit:10;" d="M191.716,252.583
					c0,3.208-2.61,5.818-5.819,5.818"/>
				<path style="fill:none;stroke:#FFFFFF;stroke-linecap:round;stroke-linejoin:round;stroke-miterlimit:10;" d="M189.851,247.618
					c0.402,0.756,0.758,1.479,1.049,2.143"/>
				<path style="fill:none;stroke:#FFFFFF;stroke-linecap:round;stroke-miterlimit:10;" d="M182.921,245.87
					c0.919-1.577,1.963-3.208,2.977-4.69"/>
			</g>
		</g>
		<g>
			
				<line style="fill:none;stroke:#252324;stroke-width:2;stroke-linecap:round;stroke-linejoin:round;stroke-miterlimit:10;" x1="178.05" y1="208.728" x2="193.744" y2="208.728"/>
			
				<line style="fill:none;stroke:#252324;stroke-linecap:round;stroke-linejoin:round;stroke-miterlimit:10;" x1="180.852" y1="217.212" x2="183.655" y2="217.212"/>
			
				<line style="fill:none;stroke:#252324;stroke-linecap:round;stroke-linejoin:round;stroke-miterlimit:10;" x1="180.852" y1="219.454" x2="183.655" y2="219.454"/>
			
				<line style="fill:none;stroke:#252324;stroke-linecap:round;stroke-linejoin:round;stroke-miterlimit:10;" x1="180.852" y1="221.697" x2="183.655" y2="221.697"/>
			<path style="fill:none;stroke:#252324;stroke-linecap:round;stroke-linejoin:round;stroke-miterlimit:10;" d="M185.897,197.518
				c-2.732,0-5.045,2.482-5.045,5.605v22.497c0,2.803,1.32,4.91,3.363,5.605v3.803h3.363v-3.803
				c2.043-0.695,3.363-2.803,3.363-5.605v-22.497C190.942,200,188.629,197.518,185.897,197.518z"/>
			<path style="fill:#252324;" d="M190.942,208.728v-5.605c0-3.123-2.313-5.605-5.045-5.605c-2.732,0-5.045,2.482-5.045,5.605v5.605
				H190.942z"/>
		</g>
	</g>
	<path style="fill:none;stroke:#252324;stroke-linecap:round;stroke-linejoin:round;stroke-miterlimit:10;" d="M356.933,217.084
		c-6.61,0-11.969,5.359-11.969,11.969v10.015v13.435h23.938v-13.435v-10.015C368.902,222.442,363.543,217.084,356.933,217.084z"/>
	<path style="fill:none;stroke:#FF5555;stroke-width:3;stroke-miterlimit:10;" d="M348.964,236.028v-6.975
		c0-3.433,2.182-6.366,5.232-7.485"/>
	<path style="fill:none;stroke:#252324;stroke-linecap:round;stroke-linejoin:round;stroke-miterlimit:10;" d="M356.933,220.083
		c4.946,0,8.97,4.023,8.97,8.969v2.712"/>
	
		<rect x="340.811" y="245.174" style="fill:#FFFFFF;stroke:#252324;stroke-linecap:round;stroke-linejoin:round;stroke-miterlimit:10;" width="32.243" height="9.038"/>
	<g>
		<path style="fill:none;stroke:#252324;stroke-width:2;stroke-linecap:round;stroke-linejoin:round;stroke-miterlimit:10;" d="
			M146.301,332.848c0,11.335-9.575,20.525-21.385,20.525c-11.81,0-21.384-9.19-21.384-20.525c0-11.336,9.574-20.527,21.384-20.527
			C136.726,312.321,146.301,321.512,146.301,332.848z"/>
		<path style="fill:none;stroke:#000100;stroke-linecap:round;stroke-linejoin:round;stroke-miterlimit:10;" d="M129.566,344.315
			c-1.441,0.539-3.009,0.835-4.649,0.835c-7.078,0-12.815-5.508-12.815-12.302c0-6.795,5.737-12.303,12.815-12.303
			c3.15,0,6.035,1.091,8.267,2.901"/>
		<path style="fill:none;stroke:#000100;stroke-linecap:round;stroke-linejoin:round;stroke-miterlimit:10;" d="M133.467,342.011
			c-0.312,0.269-0.638,0.523-0.977,0.761"/>
		<path style="fill:none;stroke:#000100;stroke-linecap:round;stroke-linejoin:round;stroke-miterlimit:10;" d="M137.732,332.848
			c0,2.996-1.116,5.742-2.971,7.876"/>
		<path style="fill:none;stroke:#000100;stroke-linecap:round;stroke-linejoin:round;stroke-miterlimit:10;" d="M136.991,328.713
			c0.157,0.421,0.29,0.853,0.398,1.295"/>
		<path style="fill:none;stroke:#000100;stroke-linecap:round;stroke-linejoin:round;stroke-miterlimit:10;" d="M135.41,325.782
			c0.215,0.294,0.418,0.598,0.606,0.91"/>
		<path style="fill:none;stroke:#000100;stroke-linecap:round;stroke-linejoin:round;stroke-miterlimit:10;" d="M134.701,332.848
			c0,5.186-4.381,9.391-9.784,9.391c-5.404,0-9.784-4.206-9.784-9.391c0-5.187,4.38-9.395,9.784-9.395
			C130.32,323.453,134.701,327.662,134.701,332.848z"/>
		<path style="fill:none;stroke:#000100;stroke-linecap:round;stroke-linejoin:round;stroke-miterlimit:10;" d="M129.238,332.847
			c0,2.29-1.935,4.148-4.321,4.148c-2.386,0-4.32-1.857-4.32-4.148c0-2.291,1.934-4.148,4.32-4.148
			C127.303,328.699,129.238,330.556,129.238,332.847z"/>
		<path d="M126.121,340.285c0,0.638-0.539,1.156-1.204,1.156c-0.665,0-1.204-0.517-1.204-1.156c0-0.638,0.539-1.156,1.204-1.156
			C125.582,339.13,126.121,339.647,126.121,340.285z"/>
		<path d="M131.028,337.256c0.451,0.451,0.436,1.198-0.034,1.668c-0.47,0.47-1.217,0.485-1.668,0.034
			c-0.451-0.451-0.436-1.198,0.034-1.668C129.83,336.82,130.577,336.804,131.028,337.256z"/>
		<path d="M132.355,331.643c0.638,0,1.156,0.539,1.156,1.204c0,0.665-0.517,1.204-1.156,1.204s-1.156-0.539-1.156-1.204
			C131.2,332.182,131.717,331.643,132.355,331.643z"/>
		<path d="M129.326,326.736c0.451-0.451,1.198-0.436,1.668,0.034c0.47,0.47,0.485,1.217,0.034,1.668
			c-0.451,0.451-1.198,0.436-1.668-0.034C128.89,327.934,128.874,327.187,129.326,326.736z"/>
		<path d="M123.713,325.408c0-0.638,0.539-1.155,1.204-1.155c0.665,0,1.204,0.517,1.204,1.155c0,0.638-0.539,1.156-1.204,1.156
			C124.252,326.564,123.713,326.047,123.713,325.408z"/>
		<path d="M118.806,328.438c-0.451-0.451-0.436-1.198,0.034-1.668c0.47-0.47,1.217-0.485,1.668-0.034
			c0.451,0.451,0.436,1.198-0.034,1.668C120.004,328.874,119.257,328.89,118.806,328.438z"/>
		<path d="M117.478,334.051c-0.638,0-1.155-0.539-1.155-1.204c0-0.665,0.517-1.204,1.155-1.204c0.638,0,1.156,0.539,1.156,1.204
			C118.634,333.512,118.117,334.051,117.478,334.051z"/>
		<path d="M120.508,338.958c-0.451,0.451-1.198,0.436-1.668-0.034c-0.47-0.47-0.485-1.217-0.034-1.668
			c0.451-0.451,1.198-0.436,1.668,0.034C120.944,337.76,120.96,338.507,120.508,338.958z"/>
	</g>
	<g>
		
			<line style="fill:none;stroke:#000100;stroke-linecap:round;stroke-linejoin:round;stroke-miterlimit:10;" x1="132.266" y1="236.521" x2="138.734" y2="236.521"/>
		
			<line style="fill:none;stroke:#000100;stroke-linecap:round;stroke-linejoin:round;stroke-miterlimit:10;" x1="108.984" y1="245.575" x2="108.984" y2="227.467"/>
		
			<line style="fill:none;stroke:#000100;stroke-linecap:round;stroke-linejoin:round;stroke-miterlimit:10;" x1="101.223" y1="241.695" x2="101.223" y2="231.347"/>
		
			<line style="fill:none;stroke:#000100;stroke-linecap:round;stroke-linejoin:round;stroke-miterlimit:10;" x1="101.223" y1="239.108" x2="108.984" y2="239.108"/>
		
			<line style="fill:none;stroke:#000100;stroke-linecap:round;stroke-linejoin:round;stroke-miterlimit:10;" x1="101.223" y1="233.934" x2="108.984" y2="233.934"/>
		<path style="fill:none;stroke:#000100;stroke-linecap:round;stroke-linejoin:round;stroke-miterlimit:10;" d="M108.984,231.347
			h18.108c2.857,0,5.174,2.317,5.174,5.174c0,2.857-2.317,5.174-5.174,5.174h-18.108"/>
		
			<line style="fill:none;stroke:#000100;stroke-linecap:round;stroke-linejoin:round;stroke-miterlimit:10;" x1="114.158" y1="241.695" x2="114.158" y2="237.815"/>
		
			<line style="fill:none;stroke:#000100;stroke-linecap:round;stroke-linejoin:round;stroke-miterlimit:10;" x1="118.038" y1="241.695" x2="118.038" y2="237.815"/>
		
			<line style="fill:none;stroke:#000100;stroke-linecap:round;stroke-linejoin:round;stroke-miterlimit:10;" x1="121.919" y1="241.695" x2="121.919" y2="237.815"/>
	</g>
	
		<line style="fill:none;stroke:#252324;stroke-linecap:round;stroke-linejoin:round;stroke-miterlimit:10;" x1="448.5" y1="354.373" x2="51.5" y2="354.373"/>
	<g>
		
			<line style="fill:none;stroke:#FFFFFF;stroke-width:2;stroke-linecap:round;stroke-linejoin:round;stroke-miterlimit:10;" x1="91.75" y1="262.192" x2="45.799" y2="262.192"/>
		
			<line style="fill:none;stroke:#FFFFFF;stroke-width:2;stroke-linecap:round;stroke-linejoin:round;stroke-miterlimit:10;" x1="86.865" y1="271.963" x2="52.764" y2="271.963"/>
		
			<line style="fill:none;stroke:#FFFFFF;stroke-width:2;stroke-linecap:round;stroke-linejoin:round;stroke-miterlimit:10;" x1="74.71" y1="281.734" x2="58.1" y2="281.734"/>
		
			<line style="fill:none;stroke:#FFFFFF;stroke-width:2;stroke-linecap:round;stroke-linejoin:round;stroke-miterlimit:10;" x1="69.815" y1="291.505" x2="62.785" y2="291.505"/>
	</g>
	<g>
		<path style="fill:none;stroke:#252324;stroke-linecap:round;stroke-linejoin:round;stroke-miterlimit:10;" d="M284,232.728
			c0,2.75-2.25,5-5,5h-24c-2.75,0-5-2.25-5-5v-48c0-2.75,2.25-5,5-5h24c2.75,0,5,2.25,5,5V232.728z"/>
		
			<line style="fill:none;stroke:#252324;stroke-linecap:round;stroke-linejoin:round;stroke-miterlimit:10;" x1="250" y1="189.728" x2="284" y2="189.728"/>
		
			<line style="fill:none;stroke:#252324;stroke-linecap:round;stroke-linejoin:round;stroke-miterlimit:10;" x1="250" y1="227.728" x2="284" y2="227.728"/>
		
			<line style="fill:none;stroke:#252324;stroke-linecap:round;stroke-linejoin:round;stroke-miterlimit:10;" x1="260" y1="185.728" x2="274" y2="185.728"/>
		
			<circle style="fill:none;stroke:#252324;stroke-linecap:round;stroke-linejoin:round;stroke-miterlimit:10;" cx="267" cy="232.728" r="2"/>
	</g>
	<text transform="matrix(1 0 0 1 255.8564 212.4278)" style="font-family:'BebasNeue'; font-size:15.3489px;">sos</text>
	
		<line style="fill:none;stroke:#252324;stroke-linecap:round;stroke-linejoin:round;stroke-miterlimit:10;stroke-dasharray:4;" x1="243.667" y1="208.728" x2="199.745" y2="208.728"/>
	<g>
		<g>
			
				<line style="fill:none;stroke:#252324;stroke-linecap:round;stroke-linejoin:round;" x1="172.049" y1="208.728" x2="170.049" y2="208.728"/>
			
				<line style="fill:none;stroke:#252324;stroke-linecap:round;stroke-linejoin:round;stroke-dasharray:3.9377,3.9377;" x1="166.112" y1="208.728" x2="112.953" y2="208.728"/>
			<polyline style="fill:none;stroke:#252324;stroke-linecap:round;stroke-linejoin:round;" points="110.984,208.728 
				108.984,208.728 108.984,210.728 			"/>
			
				<line style="fill:none;stroke:#252324;stroke-linecap:round;stroke-linejoin:round;stroke-dasharray:3.424,3.424;" x1="108.984" y1="214.152" x2="108.984" y2="219.288"/>
			
				<line style="fill:none;stroke:#252324;stroke-linecap:round;stroke-linejoin:round;" x1="108.984" y1="221" x2="108.984" y2="223"/>
		</g>
	</g>
	
		<line style="fill:none;stroke:#252324;stroke-linecap:round;stroke-linejoin:round;stroke-miterlimit:10;" x1="356.452" y1="245.174" x2="357.206" y2="250.25"/>
	<path style="fill:#252324;" d="M366.417,234.214c0,0.284-0.23,0.514-0.514,0.514c-0.284,0-0.514-0.23-0.514-0.514
		c0-0.284,0.23-0.514,0.514-0.514C366.186,233.699,366.417,233.93,366.417,234.214z"/>
	<path style="fill:#252324;" d="M366.417,236.542c0,0.284-0.23,0.514-0.514,0.514c-0.284,0-0.514-0.23-0.514-0.514
		c0-0.284,0.23-0.514,0.514-0.514C366.186,236.028,366.417,236.258,366.417,236.542z"/>
	<path style="fill:#252324;" d="M357.961,251.988c0,0.284-0.23,0.514-0.514,0.514c-0.284,0-0.514-0.23-0.514-0.514
		c0-0.284,0.23-0.514,0.514-0.514C357.731,251.474,357.961,251.704,357.961,251.988z"/>
	
		<line style="fill:#FFFFFF;stroke:#252324;stroke-linecap:round;stroke-linejoin:round;stroke-miterlimit:10;" x1="357.447" y1="212.428" x2="357.447" y2="198.625"/>
	
		<line style="fill:#FFFFFF;stroke:#252324;stroke-linecap:round;stroke-linejoin:round;stroke-miterlimit:10;" x1="343.987" y1="217.577" x2="334.227" y2="207.817"/>
	
		<line style="fill:#FFFFFF;stroke:#252324;stroke-linecap:round;stroke-linejoin:round;stroke-miterlimit:10;" x1="338.111" y1="230.736" x2="324.308" y2="230.736"/>
	
		<line style="fill:#FFFFFF;stroke:#252324;stroke-linecap:round;stroke-linejoin:round;stroke-miterlimit:10;" x1="370.606" y1="218.304" x2="380.366" y2="208.544"/>
	
		<line style="fill:#FFFFFF;stroke:#252324;stroke-linecap:round;stroke-linejoin:round;stroke-miterlimit:10;" x1="375.755" y1="231.764" x2="389.558" y2="231.764"/>
	<g>
		<g>
			
				<line style="fill:none;stroke:#252324;stroke-linecap:round;stroke-linejoin:round;" x1="380.366" y1="249.693" x2="382.366" y2="249.693"/>
			
				<line style="fill:none;stroke:#252324;stroke-linecap:round;stroke-linejoin:round;stroke-dasharray:3.9964,3.9964;" x1="386.362" y1="249.693" x2="416.335" y2="249.693"/>
			<polyline style="fill:none;stroke:#252324;stroke-linecap:round;stroke-linejoin:round;" points="418.333,249.693 
				420.333,249.693 420.333,247.693 			"/>
			
				<line style="fill:none;stroke:#252324;stroke-linecap:round;stroke-linejoin:round;stroke-dasharray:4.1124,4.1124;" x1="420.333" y1="243.581" x2="420.333" y2="163.389"/>
			<polyline style="fill:none;stroke:#252324;stroke-linecap:round;stroke-linejoin:round;" points="420.333,161.333 
				420.333,159.333 418.333,159.333 			"/>
			
				<line style="fill:none;stroke:#252324;stroke-linecap:round;stroke-linejoin:round;stroke-dasharray:4.0383,4.0383;" x1="414.295" y1="159.333" x2="270.934" y2="159.333"/>
			<polyline style="fill:none;stroke:#252324;stroke-linecap:round;stroke-linejoin:round;" points="268.915,159.333 
				266.915,159.333 266.915,161.333 			"/>
			
				<line style="fill:none;stroke:#252324;stroke-linecap:round;stroke-linejoin:round;stroke-dasharray:3.3333,3.3333;" x1="266.915" y1="164.667" x2="266.915" y2="169.667"/>
			
				<line style="fill:none;stroke:#252324;stroke-linecap:round;stroke-linejoin:round;" x1="266.915" y1="171.333" x2="266.915" y2="173.333"/>
		</g>
	</g>
	<g>
		<g>
			<path style="fill:#FF5555;" d="M86.627,204.957c0,0,14.607-11.308,14.607-22.009c0-10.702-12.961-11.525-14.607-0.823
				c-1.647-10.702-14.608-9.879-14.608,1.646C72.019,195.297,86.627,204.957,86.627,204.957z"/>
		</g>
	</g>
	
		<line style="fill:none;stroke:#252324;stroke-linecap:round;stroke-linejoin:round;stroke-miterlimit:10;stroke-dasharray:4;" x1="152.5" y1="331.643" x2="262.065" y2="331.643"/>
	<g>
		<path style="fill:none;stroke:#252324;stroke-linecap:round;stroke-linejoin:round;stroke-miterlimit:10;" d="M209.538,131.858
			c0,8.356-5.646,15.13-12.609,15.13c-6.964,0-12.608-6.774-12.608-15.13c0-8.355,5.645-15.13,12.608-15.13
			C203.893,116.727,209.538,123.502,209.538,131.858z"/>
		<path style="fill:none;stroke:#252324;stroke-linecap:round;stroke-linejoin:round;stroke-miterlimit:10;" d="M216.272,156.543
			l-10.98-4.815c0,0-3.924,2.807-8.002,2.807c-4.078,0-8.002-2.807-8.002-2.807l-10.98,4.815c-3.01,1.076-5.02,3.987-5.02,7.185
			v16.001h48.003v-16.001C221.291,160.53,219.282,157.618,216.272,156.543z"/>
		
			<line style="fill:none;stroke:#252324;stroke-linecap:round;stroke-linejoin:round;stroke-miterlimit:10;" x1="189.288" y1="151.727" x2="194.597" y2="179.728"/>
		
			<line style="fill:none;stroke:#252324;stroke-linecap:round;stroke-linejoin:round;stroke-miterlimit:10;" x1="205.269" y1="151.727" x2="199.961" y2="179.728"/>
		<polygon style="fill:#252324;" points="194.263,179.728 195.794,157.316 198.138,157.316 200.433,179.728 		"/>
		<path style="fill:#252324;" d="M199.432,154.297c0,0-1.852,0.394-4.886-0.143l1.248,3.161h2.344L199.432,154.297z"/>
		<path style="fill:none;stroke:#252324;stroke-linecap:round;stroke-linejoin:round;stroke-miterlimit:10;" d="M189.288,151.727
			c-0.19,0.136-4.373,2.986-6.156,7.741"/>
		<path style="fill:none;stroke:#252324;stroke-linecap:round;stroke-linejoin:round;stroke-miterlimit:10;" d="M205.292,151.727
			c0,0,3.154,2.826,5.772,9.807"/>
		<g>
			<path style="fill:none;stroke:#252324;stroke-linecap:round;stroke-linejoin:round;stroke-miterlimit:10;" d="M178.805,174.899
				c-1.109-1.077-1.668-2.562-1.418-4.092l1.447-8.838c0.236-1.443,2.15-2.501,4.298-2.501l0,0c2.148,0,4.062,1.058,4.298,2.501
				l1.447,8.838c0.242,1.478-0.271,2.914-1.306,3.981"/>
			<circle style="fill:#252324;" cx="178.805" cy="174.899" r="1.172"/>
			<circle style="fill:#252324;" cx="187.471" cy="174.899" r="1.172"/>
		</g>
		<path style="fill:#252324;" d="M215.257,164.231c0,2.011-1.63,3.641-3.641,3.641c-2.011,0-3.641-1.63-3.641-3.641
			c0-2.011,1.63-3.641,3.641-3.641C213.627,160.59,215.257,162.22,215.257,164.231z"/>
		<path style="fill:none;stroke:#FFFFFF;stroke-linecap:round;stroke-linejoin:round;stroke-miterlimit:10;" d="M213.382,164.231
			c0,0.975-0.79,1.766-1.766,1.766c-0.975,0-1.766-0.791-1.766-1.766c0-0.975,0.79-1.766,1.766-1.766
			C212.592,162.465,213.382,163.256,213.382,164.231z"/>
		<path style="fill:#252324;" d="M184.43,129.967c17.729,3.281,16.863-11.877,16.836-12.301c-1.354-0.596-2.81-0.938-4.336-0.938
			C190.5,116.727,185.207,122.506,184.43,129.967z"/>
		<path style="fill:#252324;" d="M198.339,116.828l-0.339,2.38l2.615,3.417c-0.071,0.226,1.248,6.032,8.723,6.622
			C208.384,122.683,203.916,117.573,198.339,116.828z"/>
		<path style="fill:none;stroke:#252324;stroke-linecap:round;stroke-linejoin:round;stroke-miterlimit:10;" d="M184.321,134.814
			L184.321,134.814c-1.235,0-2.236-1.001-2.236-2.236v-0.619c0-1.235,1.001-2.236,2.236-2.236l0,0"/>
		<path style="fill:none;stroke:#252324;stroke-linecap:round;stroke-linejoin:round;stroke-miterlimit:10;" d="M209.538,134.814
			L209.538,134.814c1.235,0,2.236-1.001,2.236-2.236v-0.619c0-1.235-1.001-2.236-2.236-2.236l0,0"/>
		
			<line style="fill:none;stroke:#252324;stroke-linecap:round;stroke-linejoin:round;stroke-miterlimit:10;" x1="190.942" y1="145.176" x2="189.288" y2="151.727"/>
		
			<line style="fill:none;stroke:#252324;stroke-linecap:round;stroke-linejoin:round;stroke-miterlimit:10;" x1="203.669" y1="145.176" x2="205.322" y2="151.727"/>
	</g>
	
		<polyline style="fill:none;stroke:#252324;stroke-linecap:round;stroke-linejoin:round;stroke-miterlimit:10;stroke-dasharray:4;" points="
		165,165.997 146.301,165.997 146.301,205.526 	"/>
	
		<polyline style="fill:none;stroke:#252324;stroke-linecap:round;stroke-linejoin:round;stroke-miterlimit:10;stroke-dasharray:4;" points="
		219.333,146.988 254.667,146.988 254.667,174.899 	"/>
	<g>
		<path style="fill:none;stroke:#252324;stroke-width:2;stroke-linecap:round;stroke-linejoin:round;stroke-miterlimit:10;" d="
			M383.908,332.846c0-11.335,9.575-20.525,21.385-20.525c11.81,0,21.384,9.19,21.384,20.525c0,11.336-9.574,20.527-21.384,20.527
			C393.483,353.373,383.908,344.182,383.908,332.846z"/>
		<path style="fill:none;stroke:#000100;stroke-linecap:round;stroke-linejoin:round;stroke-miterlimit:10;" d="M400.643,321.379
			c1.441-0.539,3.01-0.835,4.65-0.835c7.078,0,12.815,5.508,12.815,12.302c0,6.795-5.737,12.303-12.815,12.303
			c-3.15,0-6.035-1.091-8.267-2.901"/>
		<path style="fill:none;stroke:#000100;stroke-linecap:round;stroke-linejoin:round;stroke-miterlimit:10;" d="M396.741,323.683
			c0.312-0.268,0.638-0.523,0.977-0.761"/>
		<path style="fill:none;stroke:#000100;stroke-linecap:round;stroke-linejoin:round;stroke-miterlimit:10;" d="M392.477,332.846
			c0-2.996,1.116-5.742,2.971-7.876"/>
		<path style="fill:none;stroke:#000100;stroke-linecap:round;stroke-linejoin:round;stroke-miterlimit:10;" d="M393.218,336.981
			c-0.157-0.422-0.29-0.854-0.398-1.295"/>
		<path style="fill:none;stroke:#000100;stroke-linecap:round;stroke-linejoin:round;stroke-miterlimit:10;" d="M394.799,339.911
			c-0.215-0.294-0.418-0.598-0.606-0.91"/>
		<path style="fill:none;stroke:#000100;stroke-linecap:round;stroke-linejoin:round;stroke-miterlimit:10;" d="M395.508,332.845
			c0-5.185,4.381-9.391,9.784-9.391c5.404,0,9.784,4.206,9.784,9.391c0,5.187-4.38,9.395-9.784,9.395
			C399.889,342.24,395.508,338.032,395.508,332.845z"/>
		<path style="fill:none;stroke:#000100;stroke-linecap:round;stroke-linejoin:round;stroke-miterlimit:10;" d="M400.971,332.847
			c0-2.29,1.935-4.148,4.321-4.148c2.386,0,4.32,1.857,4.32,4.148c0,2.291-1.934,4.148-4.32,4.148
			C402.906,336.995,400.971,335.138,400.971,332.847z"/>
		<path d="M404.088,325.408c0-0.638,0.539-1.155,1.204-1.155c0.665,0,1.204,0.517,1.204,1.155c0,0.638-0.539,1.156-1.204,1.156
			C404.627,326.564,404.088,326.047,404.088,325.408z"/>
		<path d="M399.181,328.438c-0.451-0.451-0.436-1.198,0.034-1.668c0.47-0.47,1.217-0.485,1.668-0.034
			c0.451,0.451,0.436,1.198-0.034,1.668C400.379,328.874,399.632,328.89,399.181,328.438z"/>
		<path d="M397.853,334.051c-0.638,0-1.155-0.539-1.155-1.204c0-0.665,0.517-1.204,1.155-1.204c0.638,0,1.156,0.539,1.156,1.204
			C399.009,333.512,398.492,334.051,397.853,334.051z"/>
		<path d="M400.883,338.958c-0.451,0.451-1.198,0.436-1.668-0.034c-0.47-0.47-0.485-1.217-0.034-1.668
			c0.451-0.451,1.198-0.436,1.668,0.034C401.319,337.76,401.335,338.507,400.883,338.958z"/>
		<path d="M406.496,340.285c0,0.638-0.539,1.156-1.204,1.156c-0.665,0-1.204-0.517-1.204-1.156c0-0.638,0.539-1.156,1.204-1.156
			C405.957,339.13,406.496,339.647,406.496,340.285z"/>
		<path d="M411.403,337.256c0.451,0.451,0.436,1.198-0.034,1.668c-0.47,0.47-1.217,0.485-1.668,0.034
			c-0.451-0.451-0.436-1.198,0.034-1.668C410.205,336.82,410.952,336.804,411.403,337.256z"/>
		<path d="M412.731,331.643c0.638,0,1.156,0.539,1.156,1.204c0,0.665-0.517,1.204-1.156,1.204c-0.638,0-1.156-0.539-1.156-1.204
			C411.575,332.182,412.092,331.643,412.731,331.643z"/>
		<path d="M409.701,326.736c0.451-0.451,1.198-0.436,1.668,0.034c0.47,0.47,0.485,1.217,0.034,1.668
			c-0.451,0.451-1.198,0.436-1.668-0.034C409.265,327.934,409.249,327.187,409.701,326.736z"/>
	</g>
	<g>
		<g>
			<g>
				
					<line style="fill:none;stroke:#252324;stroke-linecap:round;stroke-linejoin:round;stroke-miterlimit:10;" x1="331.548" y1="340.029" x2="331.548" y2="335.488"/>
				
					<line style="fill:none;stroke:#252324;stroke-linecap:round;stroke-linejoin:round;stroke-miterlimit:10;" x1="335.067" y1="340.029" x2="335.067" y2="335.488"/>
				
					<line style="fill:none;stroke:#252324;stroke-linecap:round;stroke-linejoin:round;stroke-miterlimit:10;" x1="338.586" y1="340.029" x2="338.586" y2="335.488"/>
				
					<line style="fill:none;stroke:#252324;stroke-linecap:round;stroke-linejoin:round;stroke-miterlimit:10;" x1="320.991" y1="340.029" x2="320.991" y2="335.488"/>
				
					<line style="fill:none;stroke:#252324;stroke-linecap:round;stroke-linejoin:round;stroke-miterlimit:10;" x1="324.51" y1="339.49" x2="324.51" y2="331.856"/>
				
					<line style="fill:none;stroke:#252324;stroke-linecap:round;stroke-linejoin:round;stroke-miterlimit:10;" x1="328.029" y1="340.029" x2="328.029" y2="335.488"/>
				
					<line style="fill:none;stroke:#252324;stroke-linecap:round;stroke-linejoin:round;stroke-miterlimit:10;" x1="310.433" y1="340.029" x2="310.433" y2="335.488"/>
				
					<line style="fill:none;stroke:#252324;stroke-linecap:round;stroke-linejoin:round;stroke-miterlimit:10;" x1="313.952" y1="340.029" x2="313.952" y2="335.488"/>
				
					<line style="fill:none;stroke:#252324;stroke-linecap:round;stroke-linejoin:round;stroke-miterlimit:10;" x1="317.472" y1="340.029" x2="317.472" y2="335.488"/>
				
					<line style="fill:none;stroke:#252324;stroke-linecap:round;stroke-linejoin:round;stroke-miterlimit:10;" x1="299.876" y1="340.029" x2="299.876" y2="335.488"/>
				
					<line style="fill:none;stroke:#252324;stroke-linecap:round;stroke-linejoin:round;stroke-miterlimit:10;" x1="303.395" y1="340.029" x2="303.395" y2="335.488"/>
				
					<line style="fill:none;stroke:#252324;stroke-linecap:round;stroke-linejoin:round;stroke-miterlimit:10;" x1="306.914" y1="340.029" x2="306.914" y2="331.856"/>
				
					<line style="fill:none;stroke:#252324;stroke-linecap:round;stroke-linejoin:round;stroke-miterlimit:10;" x1="289.319" y1="340.029" x2="289.319" y2="331.856"/>
				
					<line style="fill:none;stroke:#252324;stroke-linecap:round;stroke-linejoin:round;stroke-miterlimit:10;" x1="292.838" y1="340.029" x2="292.838" y2="335.488"/>
				
					<line style="fill:none;stroke:#252324;stroke-linecap:round;stroke-linejoin:round;stroke-miterlimit:10;" x1="296.357" y1="340.029" x2="296.357" y2="335.488"/>
				<path style="fill:none;stroke:#252324;stroke-linecap:round;stroke-linejoin:round;stroke-miterlimit:10;" d="M271.291,331.856
					c0,4.426,4.022,8.173,9.081,8.173h58.571c4.54,0,7.954-2.139,9.081-5.449h13.742c1.496,0,2.709-1.216,2.709-2.717
					c0-1.5-1.213-2.717-2.709-2.717v-0.015h-13.742c-1.127-3.31-4.54-5.449-9.081-5.449h-58.571
					C275.312,323.683,271.291,327.431,271.291,331.856z"/>
				<path style="fill:none;stroke:#252324;stroke-linecap:round;stroke-linejoin:round;stroke-miterlimit:10;" d="M274.291,331.856
					c0-2.804,2.785-5.173,6.081-5.173h25.647"/>
				<path style="fill:#252324;" d="M309.019,326.195c0.27,0,0.488,0.219,0.488,0.488c0,0.27-0.218,0.488-0.488,0.488
					c-0.27,0-0.488-0.219-0.488-0.488C308.531,326.414,308.749,326.195,309.019,326.195z"/>
				<path style="fill:#252324;" d="M312.019,326.195c0.27,0,0.488,0.219,0.488,0.488c0,0.27-0.219,0.488-0.488,0.488
					c-0.27,0-0.488-0.219-0.488-0.488C311.531,326.414,311.749,326.195,312.019,326.195z"/>
				<path style="fill:#252324;" d="M315.019,326.195c0.27,0,0.488,0.219,0.488,0.488c0,0.27-0.219,0.488-0.488,0.488
					s-0.488-0.219-0.488-0.488C314.531,326.414,314.75,326.195,315.019,326.195z"/>
			</g>
		</g>
		<path style="fill:#FF5555;" d="M361.56,330.523c0.736,0,1.333,0.597,1.333,1.333c0,0.736-0.597,1.333-1.333,1.333
			c-0.736,0-1.333-0.597-1.333-1.333C360.227,331.12,360.824,330.523,361.56,330.523z"/>
		
			<line style="fill:none;stroke:#FF5555;stroke-width:1.5;stroke-linecap:round;stroke-linejoin:round;stroke-miterlimit:10;" x1="361.131" y1="331.856" x2="283.31" y2="331.856"/>
	</g>
	<polyline style="fill:none;stroke:#000100;stroke-linecap:round;stroke-linejoin:round;stroke-miterlimit:10;" points="
		48.764,189.728 59.814,189.728 62.501,181 66.001,196.667 69.864,186.667 72.019,191.667 78.667,182.5 84.834,191.333 
		88.501,185.728 96.001,200 105.167,185.728 107.667,189.728 113.277,189.728 	"/>
	
		<line style="fill:none;stroke:#252324;stroke-linecap:round;stroke-linejoin:round;stroke-miterlimit:10;stroke-dasharray:4;" x1="44.763" y1="189.728" x2="23.001" y2="189.728"/>
	
		<line style="fill:none;stroke:#252324;stroke-linecap:round;stroke-linejoin:round;stroke-miterlimit:10;stroke-dasharray:4;" x1="137.04" y1="189.728" x2="115.277" y2="189.728"/>
	<g>
		<defs>
			<path id="SVGID_1_" d="M86.627,204.957c0,0,14.607-11.308,14.607-22.009c0-10.702-12.961-11.525-14.607-0.823
				c-1.647-10.702-14.608-9.879-14.608,1.646C72.019,195.297,86.627,204.957,86.627,204.957z"/>
		</defs>
		<clipPath id="SVGID_00000036972370743915752890000018399588656346933638_">
			<use xlink:href="#SVGID_1_"  style="overflow:visible;"/>
		</clipPath>
		
			<polyline style="clip-path:url(#SVGID_00000036972370743915752890000018399588656346933638_);fill:none;stroke:#FFFFFF;stroke-linecap:round;stroke-linejoin:round;stroke-miterlimit:10;" points="
			48.764,189.728 59.814,189.728 62.501,181 66.001,196.667 69.864,186.667 72.019,191.667 78.667,182.5 84.834,191.333 
			88.501,185.728 96.001,200 103.167,185.728 105.667,189.728 113.277,189.728 		"/>
	</g>
	<g>
		
			<line style="fill:none;stroke:#252324;stroke-width:2;stroke-linecap:round;stroke-linejoin:round;stroke-miterlimit:10;" x1="62.018" y1="262.192" x2="28.798" y2="262.192"/>
		
			<line style="fill:none;stroke:#252324;stroke-width:2;stroke-linecap:round;stroke-linejoin:round;stroke-miterlimit:10;" x1="59.864" y1="271.963" x2="35.763" y2="271.963"/>
		
			<line style="fill:none;stroke:#252324;stroke-width:2;stroke-linecap:round;stroke-linejoin:round;stroke-miterlimit:10;" x1="57.709" y1="281.734" x2="41.099" y2="281.734"/>
		
			<line style="fill:none;stroke:#252324;stroke-width:2;stroke-linecap:round;stroke-linejoin:round;stroke-miterlimit:10;" x1="55.555" y1="291.505" x2="45.784" y2="291.505"/>
	</g>
	<path d="M25.798,262.192c0,0.552-0.448,1-1,1l0,0c-0.552,0-1-0.448-1-1l0,0c0-0.552,0.448-1,1-1l0,0
		C25.35,261.192,25.798,261.639,25.798,262.192L25.798,262.192z"/>
	<path d="M32.763,271.963c0,0.552-0.448,1-1,1l0,0c-0.552,0-1-0.448-1-1l0,0c0-0.552,0.448-1,1-1l0,0
		C32.315,270.963,32.763,271.411,32.763,271.963L32.763,271.963z"/>
	<path d="M28.762,271.963c0,0.552-0.448,1-1,1l0,0c-0.552,0-1-0.448-1-1l0,0c0-0.552,0.448-1,1-1l0,0
		C28.315,270.963,28.762,271.411,28.762,271.963L28.762,271.963z"/>
	<path d="M42.825,291.505c0,0.552-0.448,1-1,1l0,0c-0.552,0-1-0.448-1-1l0,0c0-0.552,0.448-1,1-1l0,0
		C42.377,290.505,42.825,290.953,42.825,291.505L42.825,291.505z"/>
	<path d="M38.825,291.505c0,0.552-0.448,1-1,1l0,0c-0.552,0-1-0.448-1-1l0,0c0-0.552,0.448-1,1-1l0,0
		C38.377,290.505,38.825,290.953,38.825,291.505L38.825,291.505z"/>
	<path d="M21.798,262.192c0,0.552-0.448,1-1,1l0,0c-0.552,0-1-0.448-1-1l0,0c0-0.552,0.448-1,1-1l0,0
		C21.35,261.192,21.798,261.639,21.798,262.192L21.798,262.192z"/>
	<path d="M17.797,262.192c0,0.552-0.448,1-1,1l0,0c-0.552,0-1-0.448-1-1l0,0c0-0.552,0.448-1,1-1l0,0
		C17.35,261.192,17.797,261.639,17.797,262.192L17.797,262.192z"/>
	<path d="M38.079,281.734c0,0.552-0.448,1-1,1l0,0c-0.552,0-1-0.448-1-1l0,0c0-0.552,0.448-1,1-1l0,0
		C37.631,280.734,38.079,281.182,38.079,281.734L38.079,281.734z"/>
	<path d="M34.079,281.734c0,0.552-0.448,1-1,1l0,0c-0.552,0-1-0.448-1-1l0,0c0-0.552,0.448-1,1-1l0,0
		C33.631,280.734,34.079,281.182,34.079,281.734L34.079,281.734z"/>
	<path d="M30.078,281.734c0,0.552-0.448,1-1,1l0,0c-0.552,0-1-0.448-1-1l0,0c0-0.552,0.448-1,1-1l0,0
		C29.631,280.734,30.078,281.182,30.078,281.734L30.078,281.734z"/>
</g>
<g id="Designed_by_Freepik">
	<g>
		<g id="XMLID_319_">
			<g id="XMLID_338_">
				<path id="XMLID_346_" style="fill:#1D262D;" d="M261.522,466.36c-0.432,0.443-0.803,0.931-1.108,1.453l-0.465-0.241
					c-0.067-0.298-0.349-0.503-0.659-0.466c-0.331,0.039-0.568,0.339-0.529,0.67c0.039,0.331,0.339,0.568,0.67,0.529
					c0.065-0.008,0.127-0.026,0.184-0.052l0.451,0.234c-0.251,0.554-0.433,1.139-0.539,1.744l0.747,0.132
					c0.23-1.306,0.85-2.507,1.792-3.473L261.522,466.36z"/>
				<path id="XMLID_345_" style="fill:#1D262D;" d="M267.01,464.058c-0.171,0-0.341,0.006-0.51,0.017l-0.074-0.626
					c0.188-0.149,0.296-0.389,0.266-0.645c-0.046-0.393-0.402-0.674-0.795-0.628c-0.393,0.046-0.674,0.402-0.628,0.795
					c0.03,0.254,0.189,0.461,0.405,0.564l0.073,0.624c-0.714,0.116-1.403,0.332-2.06,0.646l0.327,0.684
					c0.934-0.447,1.942-0.673,2.995-0.673c0.496,0,0.993,0.053,1.475,0.158l0.161-0.741
					C268.11,464.117,267.56,464.058,267.01,464.058z"/>
				<path id="XMLID_344_" style="fill:#1D262D;" d="M273.612,466.605c0.331-0.04,0.566-0.341,0.526-0.672
					c-0.04-0.331-0.341-0.566-0.672-0.526c-0.309,0.038-0.535,0.304-0.53,0.609l-0.416,0.363c-0.418-0.43-0.89-0.813-1.408-1.139
					l-0.404,0.641c1.134,0.715,2.021,1.726,2.563,2.925l0.69-0.313c-0.251-0.554-0.567-1.072-0.942-1.545l0.402-0.351
					C273.483,466.61,273.547,466.613,273.612,466.605z"/>
				<path id="XMLID_343_" style="fill:#1D262D;" d="M266.462,474.267c-0.386,0.023-0.775,0.035-1.157,0.035
					c-0.88,0-1.733-0.061-2.478-0.179c-0.39-0.062-0.846-0.155-1.27-0.292c1.046,1.861,3.069,3.125,5.388,3.125
					c2.855,0,5.262-1.916,5.95-4.504c-0.682,0.449-1.505,0.825-2.459,1.123C269.257,473.942,267.881,474.181,266.462,474.267z"/>
				<path id="XMLID_339_" style="fill:#1D262D;" d="M267.01,465.574c-3.352,0-6.08,2.666-6.08,5.944
					c0,0.426,0.046,0.849,0.137,1.261c0.673,0.483,2.706,0.89,5.348,0.731c2.879-0.173,5.297-0.957,6.672-2.159
					c-0.005-0.195-0.021-0.39-0.045-0.582C272.662,467.808,270.068,465.574,267.01,465.574z M264.85,472.089
					c-1.02,0-1.85-0.83-1.85-1.85c0-1.02,0.83-1.85,1.85-1.85c1.02,0,1.85,0.83,1.85,1.85
					C266.7,471.259,265.87,472.089,264.85,472.089z M269.588,471.181c-0.75,0-1.36-0.61-1.36-1.36c0-0.75,0.61-1.36,1.36-1.36
					c0.75,0,1.361,0.61,1.361,1.36C270.948,470.571,270.338,471.181,269.588,471.181z"/>
			</g>
			<path id="XMLID_336_" style="fill:#1D262D;" d="M283.013,467.441c-0.295-0.116-0.805-0.309-1.382-0.237
				c-0.551,0.069-0.844,0.34-0.844,1.007v0.866h2.228v1.717h-2.228v5.455h-1.932v-5.455h-1.34v-1.717h1.34v-0.888
				c0-1.68,0.896-2.783,2.568-2.783c0.643,0,1.157,0.122,1.59,0.308L283.013,467.441z"/>
			<path id="XMLID_334_" style="fill:#1D262D;" d="M287.716,470.773c-0.177-0.03-0.358-0.046-0.526-0.046
				c-0.896,0-1.51,0.548-1.51,1.613v3.908h-1.932v-7.172h1.873v0.785c0.451-0.673,1.14-0.977,2.021-0.977
				c0.414,0,0.848,0.128,1.094,0.337L287.716,470.773z"/>
			<path id="XMLID_331_" style="fill:#1D262D;" d="M295.383,472.651c0,0.222-0.015,0.489-0.037,0.651h-5.085
				c0.207,1.036,0.933,1.488,1.843,1.488c0.622,0,1.295-0.252,1.813-0.688l1.133,1.243c-0.814,0.748-1.85,1.088-3.057,1.088
				c-2.198,0-3.723-1.495-3.723-3.752c0-2.258,1.48-3.797,3.626-3.797C293.962,468.884,295.376,470.416,295.383,472.651z
				 M290.269,471.985h3.175c-0.177-0.918-0.733-1.436-1.562-1.436C290.972,470.549,290.439,471.097,290.269,471.985z"/>
			<path id="XMLID_328_" style="fill:#1D262D;" d="M303.036,472.651c0,0.222-0.015,0.489-0.037,0.651h-5.085
				c0.207,1.036,0.933,1.488,1.843,1.488c0.622,0,1.295-0.252,1.813-0.688l1.132,1.243c-0.814,0.748-1.85,1.088-3.057,1.088
				c-2.198,0-3.723-1.495-3.723-3.752c0-2.258,1.48-3.797,3.627-3.797C301.615,468.884,303.029,470.416,303.036,472.651z
				 M297.922,471.985h3.175c-0.178-0.918-0.733-1.436-1.562-1.436C298.625,470.549,298.092,471.097,297.922,471.985z"/>
			<path id="XMLID_325_" style="fill:#1D262D;" d="M311.382,472.659c0,2.154-1.495,3.775-3.471,3.775
				c-0.962,0-1.643-0.377-2.109-0.933v3.708h-1.924v-10.133h1.887v0.792c0.466-0.585,1.155-0.984,2.139-0.984
				C309.887,468.884,311.382,470.505,311.382,472.659z M305.705,472.659c0,1.132,0.748,1.976,1.843,1.976
				c1.14,0,1.85-0.881,1.85-1.976c0-1.095-0.71-1.976-1.85-1.976C306.453,470.683,305.705,471.526,305.705,472.659z"/>
			<path id="XMLID_322_" style="fill:#1D262D;" d="M314.486,466.73c0,0.696-0.54,1.229-1.236,1.229
				c-0.696,0-1.229-0.533-1.229-1.229c0-0.696,0.533-1.243,1.229-1.243C313.945,465.487,314.486,466.035,314.486,466.73z
				 M314.227,476.249h-1.932v-7.172h1.932V476.249z"/>
			<path id="XMLID_320_" style="fill:#1D262D;" d="M317.45,471.63l2.701-2.554h2.368l-3.479,3.375l3.501,3.797h-2.376l-2.716-2.901
				v2.901h-1.932v-10.658h1.932V471.63z"/>
		</g>
		<g>
			<path style="fill:#1D262D;" d="M185.83,476.184v-1.055c-0.527,0.718-1.391,1.23-2.387,1.23c-1.846,0-3.149-1.406-3.149-3.706
				c0-2.256,1.289-3.721,3.149-3.721c0.952,0,1.816,0.469,2.387,1.245v-3.765h1.099v9.77H185.83z M185.83,474.265v-3.208
				c-0.395-0.615-1.245-1.143-2.124-1.143c-1.421,0-2.27,1.172-2.27,2.739c0,1.567,0.85,2.724,2.27,2.724
				C184.585,475.378,185.435,474.88,185.83,474.265z"/>
			<path style="fill:#1D262D;" d="M188.35,472.639c0-2.051,1.465-3.706,3.486-3.706c2.139,0,3.398,1.67,3.398,3.794v0.279h-5.727
				c0.088,1.333,1.025,2.446,2.549,2.446c0.805,0,1.626-0.322,2.182-0.893l0.527,0.718c-0.703,0.703-1.655,1.084-2.812,1.084
				C189.858,476.359,188.35,474.851,188.35,472.639z M191.821,469.841c-1.509,0-2.256,1.274-2.314,2.358h4.643
				C194.136,471.145,193.432,469.841,191.821,469.841z"/>
			<path style="fill:#1D262D;" d="M196.025,475.246l0.571-0.791c0.469,0.542,1.362,1.011,2.329,1.011c1.084,0,1.67-0.513,1.67-1.216
				c0-1.714-4.38-0.659-4.38-3.281c0-1.098,0.952-2.036,2.636-2.036c1.201,0,2.051,0.454,2.622,1.025l-0.513,0.762
				c-0.424-0.513-1.201-0.894-2.109-0.894c-0.967,0-1.567,0.483-1.567,1.113c0,1.553,4.38,0.527,4.38,3.281
				c0,1.187-0.952,2.139-2.783,2.139C197.724,476.359,196.742,476.008,196.025,475.246z"/>
			<path style="fill:#1D262D;" d="M202.895,467.366c0-0.41,0.337-0.747,0.732-0.747c0.41,0,0.747,0.337,0.747,0.747
				c0,0.41-0.337,0.732-0.747,0.732C203.232,468.098,202.895,467.776,202.895,467.366z M203.085,476.184v-7.075h1.099v7.075H203.085
				z"/>
			<path style="fill:#1D262D;" d="M206,478l0.556-0.82c0.586,0.703,1.289,0.967,2.3,0.967c1.172,0,2.27-0.571,2.27-2.124v-1.011
				c-0.513,0.718-1.377,1.26-2.373,1.26c-1.845,0-3.149-1.377-3.149-3.662c0-2.27,1.289-3.676,3.149-3.676
				c0.952,0,1.802,0.469,2.373,1.245v-1.069h1.098v6.87c0,2.344-1.641,3.076-3.369,3.076C207.655,479.055,206.835,478.82,206,478z
				 M211.127,474.148v-3.091c-0.381-0.615-1.231-1.143-2.109-1.143c-1.421,0-2.27,1.128-2.27,2.695c0,1.553,0.849,2.695,2.27,2.695
				C209.896,475.305,210.746,474.763,211.127,474.148z"/>
			<path style="fill:#1D262D;" d="M218.831,476.184v-4.629c0-1.245-0.63-1.641-1.582-1.641c-0.865,0-1.685,0.527-2.095,1.099v5.17
				h-1.099v-7.075h1.099v1.025c0.498-0.586,1.465-1.201,2.519-1.201c1.48,0,2.256,0.747,2.256,2.285v4.966H218.831z"/>
			<path style="fill:#1D262D;" d="M221.35,472.639c0-2.051,1.465-3.706,3.486-3.706c2.138,0,3.398,1.67,3.398,3.794v0.279h-5.727
				c0.088,1.333,1.025,2.446,2.549,2.446c0.806,0,1.626-0.322,2.183-0.893l0.527,0.718c-0.703,0.703-1.655,1.084-2.812,1.084
				C222.859,476.359,221.35,474.851,221.35,472.639z M224.822,469.841c-1.509,0-2.256,1.274-2.314,2.358h4.643
				C227.136,471.145,226.433,469.841,224.822,469.841z"/>
			<path style="fill:#1D262D;" d="M234.768,476.184v-1.055c-0.527,0.718-1.392,1.23-2.388,1.23c-1.846,0-3.149-1.406-3.149-3.706
				c0-2.256,1.289-3.721,3.149-3.721c0.952,0,1.817,0.469,2.388,1.245v-3.765h1.098v9.77H234.768z M234.768,474.265v-3.208
				c-0.396-0.615-1.245-1.143-2.124-1.143c-1.421,0-2.27,1.172-2.27,2.739c0,1.567,0.849,2.724,2.27,2.724
				C233.523,475.378,234.372,474.88,234.768,474.265z"/>
			<path style="fill:#1D262D;" d="M241.11,476.184v-9.77h1.098v3.765c0.572-0.776,1.421-1.245,2.388-1.245
				c1.845,0,3.149,1.465,3.149,3.721c0,2.299-1.304,3.706-3.149,3.706c-0.996,0-1.86-0.513-2.388-1.23v1.055H241.11z
				 M244.318,475.378c1.436,0,2.286-1.157,2.286-2.724c0-1.567-0.85-2.739-2.286-2.739c-0.864,0-1.728,0.527-2.109,1.143v3.208
				C242.589,474.88,243.454,475.378,244.318,475.378z"/>
			<path style="fill:#1D262D;" d="M248.946,477.956c0.161,0.073,0.425,0.117,0.601,0.117c0.483,0,0.806-0.161,1.055-0.747
				l0.469-1.069l-2.959-7.148h1.187l2.358,5.801l2.344-5.801h1.201l-3.545,8.51c-0.425,1.025-1.143,1.421-2.08,1.435
				c-0.234,0-0.601-0.044-0.805-0.103L248.946,477.956z"/>
		</g>
	</g>
</g>
</svg>
